<?xml version="1.0" encoding="UTF-8" standalone="no"?>
<!-- Created with Inkscape (http://www.inkscape.org/) -->

<svg
   xmlns:dc="http://purl.org/dc/elements/1.1/"
   xmlns:cc="http://creativecommons.org/ns#"
   xmlns:rdf="http://www.w3.org/1999/02/22-rdf-syntax-ns#"
   xmlns:svg="http://www.w3.org/2000/svg"
   xmlns="http://www.w3.org/2000/svg"
   xmlns:sodipodi="http://sodipodi.sourceforge.net/DTD/sodipodi-0.dtd"
   xmlns:inkscape="http://www.inkscape.org/namespaces/inkscape"
   id="svg3689"
   version="1.1"
   inkscape:version="0.91 r13725"
   xml:space="preserve"
   width="777.5"
   height="703.75"
   viewBox="0 0 777.5 703.75"
   sodipodi:docname="concept_of_metamodel_management.svg"><metadata
     id="metadata3695"><rdf:RDF><cc:Work
         rdf:about=""><dc:format>image/svg+xml</dc:format><dc:type
           rdf:resource="http://purl.org/dc/dcmitype/StillImage" /><dc:title></dc:title></cc:Work></rdf:RDF></metadata><defs
     id="defs3693"><clipPath
       clipPathUnits="userSpaceOnUse"
       id="clipPath3705"><path
         d="M 4,4 618,4 618,559 4,559 4,4 Z"
         id="path3707"
         inkscape:connector-curvature="0" /></clipPath></defs><sodipodi:namedview
     pagecolor="#ffffff"
     bordercolor="#666666"
     borderopacity="1"
     objecttolerance="10"
     gridtolerance="10"
     guidetolerance="10"
     inkscape:pageopacity="0"
     inkscape:pageshadow="2"
     inkscape:window-width="640"
     inkscape:window-height="480"
     id="namedview3691"
     showgrid="false"
     inkscape:zoom="0.33534636"
     inkscape:cx="388.75"
     inkscape:cy="351.875"
     inkscape:window-x="252"
     inkscape:window-y="90"
     inkscape:window-maximized="0"
     inkscape:current-layer="g3697" /><g
     id="g3697"
     inkscape:groupmode="layer"
     inkscape:label="test"
     transform="matrix(1.25,0,0,-1.25,0,703.75)"><g
       id="g3699" /><g
       id="g3701"><g
         id="g3703"
         clip-path="url(#clipPath3705)"><path
           d="M 4,559 618,559 618,4 4,4 4,559 Z"
           style="fill:#ffffff;fill-opacity:0;fill-rule:nonzero;stroke:none"
           id="path3709"
           inkscape:connector-curvature="0" /><path
           d="m 5,475 612,0 0,-198 -612,0 0,198 z"
           style="fill:#ffffff;fill-opacity:1;fill-rule:nonzero;stroke:none"
           id="path3711"
           inkscape:connector-curvature="0" /><g
           id="g3713"
           transform="matrix(7.874016e-5,0,0,-7.874016e-5,5,475)"><path
             d="m 0,0 7772400,0 0,2514600 L 0,2514600 0,0 Z"
             style="fill:none;stroke:#000000;stroke-width:25400;stroke-linecap:butt;stroke-linejoin:miter;stroke-miterlimit:8;stroke-dasharray:none;stroke-opacity:1"
             id="path3715"
             inkscape:connector-curvature="0" /></g><path
           d="m 5,519 612,0 0,-44 -612,0 0,44 z"
           style="fill:#ffffff;fill-opacity:1;fill-rule:nonzero;stroke:none"
           id="path3717"
           inkscape:connector-curvature="0" /><g
           id="g3719"
           transform="matrix(7.874016e-5,0,0,-7.874016e-5,5,519)"><path
             d="m 0,0 7772400,0 0,558800 L 0,558800 0,0 Z"
             style="fill:none;stroke:#000000;stroke-width:25400;stroke-linecap:butt;stroke-linejoin:miter;stroke-miterlimit:8;stroke-dasharray:none;stroke-opacity:1"
             id="path3721"
             inkscape:connector-curvature="0" /></g><g
           id="g3723"
           transform="translate(118.1275,480.4994)"><text
             transform="scale(1,-1)"
             style="font-variant:normal;font-size:36px;font-family:'Hiragino Sans';-inkscape-font-specification:HiraginoSans-W2;writing-mode:lr-tb;fill:#000000;fill-opacity:1;fill-rule:nonzero;stroke:#000000;stroke-width:1;stroke-linecap:butt;stroke-linejoin:miter;stroke-miterlimit:10;stroke-dasharray:none;stroke-opacity:1"
             id="text3725"><tspan
               x="0 36 72 108 144 180 216"
               y="0"
               sodipodi:role="line"
               id="tspan3727">オントロジー（</tspan></text>
</g><g
           id="g3729"
           transform="translate(370.1275,480.4994)"><text
             transform="scale(1,-1)"
             style="font-variant:normal;font-size:36px;font-family:'Hiragino Sans';-inkscape-font-specification:HiraginoSans-W2;writing-mode:lr-tb;fill:#000000;fill-opacity:1;fill-rule:nonzero;stroke:#000000;stroke-width:1;stroke-linecap:butt;stroke-linejoin:miter;stroke-miterlimit:10;stroke-dasharray:none;stroke-opacity:1"
             id="text3731"><tspan
               x="0 25.999201 53.006401 74.001602"
               y="0"
               sodipodi:role="line"
               id="tspan3733">RDFS</tspan></text>
</g><g
           id="g3735"
           transform="translate(468.1275,480.4994)"><text
             transform="scale(1,-1)"
             style="font-variant:normal;font-size:36px;font-family:'Hiragino Sans';-inkscape-font-specification:HiraginoSans-W2;writing-mode:lr-tb;fill:#000000;fill-opacity:1;fill-rule:nonzero;stroke:#000000;stroke-width:1;stroke-linecap:butt;stroke-linejoin:miter;stroke-miterlimit:10;stroke-dasharray:none;stroke-opacity:1"
             id="text3737"><tspan
               x="0"
               y="0"
               id="tspan3739">）</tspan></text>
</g><path
           d="m 5,200 612,0 0,-195.000003 -612,0 L 5,200 Z"
           style="fill:#ffffff;fill-opacity:1;fill-rule:nonzero;stroke:none"
           id="path3741"
           inkscape:connector-curvature="0" /><g
           id="g3743"
           transform="matrix(7.874016e-5,0,0,-7.874016e-5,5,200)"><path
             d="m 0,0 7772400,0 0,2476500 L 0,2476500 0,0 Z"
             style="fill:none;stroke:#000000;stroke-width:25400;stroke-linecap:butt;stroke-linejoin:miter;stroke-miterlimit:8;stroke-dasharray:none;stroke-opacity:1"
             id="path3745"
             inkscape:connector-curvature="0" /></g><path
           d="m 93.5,408.5 165,0 0,-40 -165,0 0,40 z"
           style="fill:#d5fc79;fill-opacity:1;fill-rule:nonzero;stroke:none"
           id="path3747"
           inkscape:connector-curvature="0" /><g
           id="g3749"
           transform="matrix(7.874016e-5,0,0,-7.874016e-5,93.5,408.5)"><path
             d="m 0,0 2095500,0 0,508000 L 0,508000 0,0 Z"
             style="fill:none;stroke:#000000;stroke-width:12700;stroke-linecap:butt;stroke-linejoin:round;stroke-miterlimit:10;stroke-dasharray:none;stroke-opacity:1"
             id="path3751"
             inkscape:connector-curvature="0" /></g><g
           id="g3753"
           transform="translate(93.64567,378.2312)"><text
             transform="scale(1,-1)"
             style="font-variant:normal;font-size:24px;font-family:'Hiragino Sans';-inkscape-font-specification:HiraginoSans-W2;writing-mode:lr-tb;fill:#000000;fill-opacity:1;fill-rule:nonzero;stroke:none"
             id="text3755"><tspan
               x="0 10.0008 24.993601 34.9944 47.995201 53.987999 70.996803 85.0056 98.006401 112.9992 127.008 137.0088 151.01759"
               y="0"
               sodipodi:role="line"
               id="tspan3757">rdfs:Resource</tspan></text>
</g><path
           d="m 25,346 142,0 0,-39 -142,0 0,39 z"
           style="fill:#d5fc79;fill-opacity:1;fill-rule:nonzero;stroke:none"
           id="path3759"
           inkscape:connector-curvature="0" /><g
           id="g3761"
           transform="matrix(7.874016e-5,0,0,-7.874016e-5,25,346)"><path
             d="m 0,0 1803400,0 0,495300 L 0,495300 0,0 Z"
             style="fill:none;stroke:#000080;stroke-width:25400;stroke-linecap:butt;stroke-linejoin:round;stroke-miterlimit:10;stroke-dasharray:101600, 76200;stroke-dashoffset:0;stroke-opacity:1"
             id="path3763"
             inkscape:connector-curvature="0" /></g><g
           id="g3765"
           transform="translate(71.64815,315.8563)"><text
             transform="scale(1,-1)"
             style="font-variant:normal;font-size:24px;font-family:'Hiragino Sans';-inkscape-font-specification:HiraginoSans-W2;writing-mode:lr-tb;fill:#000000;fill-opacity:1;fill-rule:nonzero;stroke:none"
             id="text3767"><tspan
               x="0 24"
               y="0"
               sodipodi:role="line"
               id="tspan3769">書籍</tspan></text>
</g><path
           d="m 190,346 142,0 0,-39 -142,0 0,39 z"
           style="fill:#d5fc79;fill-opacity:1;fill-rule:nonzero;stroke:none"
           id="path3771"
           inkscape:connector-curvature="0" /><g
           id="g3773"
           transform="matrix(7.874016e-5,0,0,-7.874016e-5,190,346)"><path
             d="m 0,0 1803400,0 0,495300 L 0,495300 0,0 Z"
             style="fill:none;stroke:#000080;stroke-width:25400;stroke-linecap:butt;stroke-linejoin:round;stroke-miterlimit:10;stroke-dasharray:101600, 76200;stroke-dashoffset:0;stroke-opacity:1"
             id="path3775"
             inkscape:connector-curvature="0" /></g><g
           id="g3777"
           transform="translate(236.0231,315.8563)"><text
             transform="scale(1,-1)"
             style="font-variant:normal;font-size:24px;font-family:'Hiragino Sans';-inkscape-font-specification:HiraginoSans-W2;writing-mode:lr-tb;fill:#000000;fill-opacity:1;fill-rule:nonzero;stroke:none"
             id="text3779"><tspan
               x="0 24"
               y="0"
               sodipodi:role="line"
               id="tspan3781">人間</tspan></text>
</g><path
           d="m 96.91148,344.4326 70.65772,20.1561 0.8229,-2.8849 7.4203,6.7962 -9.8892,1.8585 0.823,-2.8849 -70.65768,-20.1561 0.82296,-2.8849 z"
           style="fill:#000000;fill-opacity:1;fill-rule:nonzero;stroke:none"
           id="path3783"
           inkscape:connector-curvature="0" /><path
           d="m 261.177,344.4255 -76.365,20.3115 -0.7711,-2.8992 -7.5409,6.6622 9.8543,2.0354 -0.7711,-2.8992 76.3649,-20.3116 -0.7711,-2.8991 z"
           style="fill:#000000;fill-opacity:1;fill-rule:nonzero;stroke:none"
           id="path3785"
           inkscape:connector-curvature="0" /><g
           id="g3787"
           transform="translate(259.2231,355.2313)"><text
             transform="scale(1,-1)"
             style="font-variant:normal;font-size:24px;font-family:'Hiragino Sans';-inkscape-font-specification:HiraginoSans-W2;writing-mode:lr-tb;fill:#000000;fill-opacity:1;fill-rule:nonzero;stroke:none"
             id="text3789"><tspan
               x="0 4.9991999"
               y="0"
               sodipodi:role="line"
               id="tspan3791">is</tspan></text>
</g><g
           id="g3793"
           transform="translate(277.2231,355.2313)"><text
             transform="scale(1,-1)"
             style="font-variant:normal;font-size:24px;font-family:'Hiragino Sans';-inkscape-font-specification:HiraginoSans-W2;writing-mode:lr-tb;fill:#000000;fill-opacity:1;fill-rule:nonzero;stroke:none"
             id="text3795"><tspan
               x="0"
               y="0"
               id="tspan3797">-</tspan></text>
</g><g
           id="g3799"
           transform="translate(285.2231,355.2313)"><text
             transform="scale(1,-1)"
             style="font-variant:normal;font-size:24px;font-family:'Hiragino Sans';-inkscape-font-specification:HiraginoSans-W2;writing-mode:lr-tb;fill:#000000;fill-opacity:1;fill-rule:nonzero;stroke:none"
             id="text3801"><tspan
               x="0"
               y="0"
               id="tspan3803">a</tspan></text>
</g><g
           id="g3805"
           transform="translate(55.09819,355.2313)"><text
             transform="scale(1,-1)"
             style="font-variant:normal;font-size:24px;font-family:'Hiragino Sans';-inkscape-font-specification:HiraginoSans-W2;writing-mode:lr-tb;fill:#000000;fill-opacity:1;fill-rule:nonzero;stroke:none"
             id="text3807"><tspan
               x="0 4.9991999"
               y="0"
               sodipodi:role="line"
               id="tspan3809">is</tspan></text>
</g><g
           id="g3811"
           transform="translate(73.09819,355.2313)"><text
             transform="scale(1,-1)"
             style="font-variant:normal;font-size:24px;font-family:'Hiragino Sans';-inkscape-font-specification:HiraginoSans-W2;writing-mode:lr-tb;fill:#000000;fill-opacity:1;fill-rule:nonzero;stroke:none"
             id="text3813"><tspan
               x="0"
               y="0"
               id="tspan3815">-</tspan></text>
</g><g
           id="g3817"
           transform="translate(81.09819,355.2313)"><text
             transform="scale(1,-1)"
             style="font-variant:normal;font-size:24px;font-family:'Hiragino Sans';-inkscape-font-specification:HiraginoSans-W2;writing-mode:lr-tb;fill:#000000;fill-opacity:1;fill-rule:nonzero;stroke:none"
             id="text3819"><tspan
               x="0"
               y="0"
               id="tspan3821">a</tspan></text>
</g><g
           id="g3823"
           transform="translate(93.97315,426.7313)"><text
             transform="scale(1,-1)"
             style="font-variant:normal;font-size:28px;font-family:'Hiragino Sans';-inkscape-font-specification:HiraginoSans-W2;writing-mode:lr-tb;fill:#000000;fill-opacity:1;fill-rule:nonzero;stroke:#000000;stroke-width:0.77777779;stroke-linecap:butt;stroke-linejoin:miter;stroke-miterlimit:10;stroke-dasharray:none;stroke-opacity:1"
             id="text3825"><tspan
               x="0 20.000401 41.008801 58.013199"
               y="0"
               sodipodi:role="line"
               id="tspan3827">RDFS</tspan></text>
</g><g
           id="g3829"
           transform="translate(169.9731,426.7313)"><text
             transform="scale(1,-1)"
             style="font-variant:normal;font-size:28px;font-family:'Hiragino Sans';-inkscape-font-specification:HiraginoSans-W2;writing-mode:lr-tb;fill:#000000;fill-opacity:1;fill-rule:nonzero;stroke:#000000;stroke-width:0.77777779;stroke-linecap:butt;stroke-linejoin:miter;stroke-miterlimit:10;stroke-dasharray:none;stroke-opacity:1"
             id="text3831"><tspan
               x="0 28 56"
               y="0"
               sodipodi:role="line"
               id="tspan3833">クラス</tspan></text>
</g><path
           d="m 400,364 c 0,11.0457 36.7126,20 82,20 45.2874,0 82,-8.9543 82,-20 0,-11.0457 -36.7126,-20 -82,-20 -45.2874,0 -82,8.9543 -82,20 z"
           style="fill:#ffcc66;fill-opacity:1;fill-rule:nonzero;stroke:none"
           id="path3835"
           inkscape:connector-curvature="0" /><g
           id="g3837"
           transform="matrix(7.874016e-5,0,0,-7.874016e-5,400,384)"><path
             d="M 0,254000 C 0,113719.8 466250.6,0 1041400,0 c 575149,0 1041400,113719.8 1041400,254000 0,140280.2 -466251,254000 -1041400,254000 C 466250.6,508000 0,394280.2 0,254000 Z"
             style="fill:none;stroke:#ff0000;stroke-width:25400;stroke-linecap:butt;stroke-linejoin:round;stroke-miterlimit:10;stroke-dasharray:101600, 76200;stroke-dashoffset:0;stroke-opacity:1"
             id="path3839"
             inkscape:connector-curvature="0" /></g><g
           id="g3841"
           transform="translate(457.8356,353.3563)"><text
             transform="scale(1,-1)"
             style="font-variant:normal;font-size:24px;font-family:'Hiragino Sans';-inkscape-font-specification:HiraginoSans-W2;writing-mode:lr-tb;fill:#000000;fill-opacity:1;fill-rule:nonzero;stroke:none"
             id="text3843"><tspan
               x="0 24"
               y="0"
               sodipodi:role="line"
               id="tspan3845">著者</tspan></text>
</g><g
           id="g3847"
           transform="translate(366.0125,426.5652)"><text
             transform="scale(1,-1)"
             style="font-variant:normal;font-size:28px;font-family:'Hiragino Sans';-inkscape-font-specification:HiraginoSans-W2;writing-mode:lr-tb;fill:#000000;fill-opacity:1;fill-rule:nonzero;stroke:#000000;stroke-width:0.77777779;stroke-linecap:butt;stroke-linejoin:miter;stroke-miterlimit:10;stroke-dasharray:none;stroke-opacity:1"
             id="text3849"><tspan
               x="0 20.000401 41.008801 58.013199"
               y="0"
               sodipodi:role="line"
               id="tspan3851">RDFS</tspan></text>
</g><g
           id="g3853"
           transform="translate(442.0125,426.5652)"><text
             transform="scale(1,-1)"
             style="font-variant:normal;font-size:28px;font-family:'Hiragino Sans';-inkscape-font-specification:HiraginoSans-W2;writing-mode:lr-tb;fill:#000000;fill-opacity:1;fill-rule:nonzero;stroke:#000000;stroke-width:0.77777779;stroke-linecap:butt;stroke-linejoin:miter;stroke-miterlimit:10;stroke-dasharray:none;stroke-opacity:1"
             id="text3855"><tspan
               x="0 28 56 84 112"
               y="0"
               sodipodi:role="line"
               id="tspan3857">プロパティ</tspan></text>
</g><path
           d="m 22.5,81.5 c 0,11.04569 51.93497,20 116,20 64.065,0 116,-8.95431 116,-20 0,-11.0457 -51.935,-20 -116,-20 -64.06503,0 -116,8.9543 -116,20 z"
           style="fill:#ffc8c8;fill-opacity:1;fill-rule:nonzero;stroke:none"
           id="path3859"
           inkscape:connector-curvature="0" /><g
           id="g3861"
           transform="matrix(7.874016e-5,0,0,-7.874016e-5,22.5,101.5)"><path
             d="M 0,254000 C 0,113719.7 659574.2,0 1473200,0 c 813626,0 1473200,113719.7 1473200,254000 0,140280.4 -659574,254000.1 -1473200,254000.1 C 659574.2,508000.1 0,394280.4 0,254000 Z"
             style="fill:none;stroke:#000000;stroke-width:12700;stroke-linecap:butt;stroke-linejoin:round;stroke-miterlimit:10;stroke-dasharray:none;stroke-opacity:1"
             id="path3863"
             inkscape:connector-curvature="0" /></g><g
           id="g3865"
           transform="translate(108.125,72.64941)"><text
             transform="scale(1,-1)"
             style="font-variant:normal;font-size:20px;font-family:'Hiragino Sans';-inkscape-font-specification:HiraginoSans-W2;writing-mode:lr-tb;fill:#000000;fill-opacity:1;fill-rule:nonzero;stroke:none"
             id="text3867"><tspan
               x="0 20 40"
               y="0"
               sodipodi:role="line"
               id="tspan3869">こころ</tspan></text>
</g><path
           d="m 373.5,81.5 c 0,11.04569 52.1588,20 116.5,20 64.3412,0 116.5,-8.95431 116.5,-20 0,-11.0457 -52.1588,-20 -116.5,-20 -64.3412,0 -116.5,8.9543 -116.5,20 z"
           style="fill:#ffc8c8;fill-opacity:1;fill-rule:nonzero;stroke:none"
           id="path3871"
           inkscape:connector-curvature="0" /><g
           id="g3873"
           transform="matrix(7.874016e-5,0,0,-7.874016e-5,373.5,101.5)"><path
             d="M 0,254000 C 0,113719.7 662416.9,0 1479550,0 c 817133,0 1479550,113719.7 1479550,254000 0,140280.4 -662417,254000.1 -1479550,254000.1 C 662416.9,508000.1 0,394280.4 0,254000 Z"
             style="fill:none;stroke:#000000;stroke-width:12700;stroke-linecap:butt;stroke-linejoin:round;stroke-miterlimit:10;stroke-dasharray:none;stroke-opacity:1"
             id="path3875"
             inkscape:connector-curvature="0" /></g><g
           id="g3877"
           transform="translate(449.625,72.64941)"><text
             transform="scale(1,-1)"
             style="font-variant:normal;font-size:20px;font-family:'Hiragino Sans';-inkscape-font-specification:HiraginoSans-W2;writing-mode:lr-tb;fill:#000000;fill-opacity:1;fill-rule:nonzero;stroke:none"
             id="text3879"><tspan
               x="0 20 40 60"
               y="0"
               sodipodi:role="line"
               id="tspan3881">夏目漱石</tspan></text>
</g><path
           d="m 358.5,88.99993 15,-7.50001 -15,-7.49999 0,5 -104,7e-5 0,5 104,-7e-5 0,5 z"
           style="fill:#ff0000;fill-opacity:1;fill-rule:nonzero;stroke:none"
           id="path3883"
           inkscape:connector-curvature="0" /><g
           id="g3885"
           transform="translate(23.45,108.4244)"><text
             transform="scale(1,-1)"
             style="font-variant:normal;font-size:24px;font-family:'Hiragino Sans';-inkscape-font-specification:HiraginoSans-W2;writing-mode:lr-tb;fill:#44546a;fill-opacity:1;fill-rule:nonzero;stroke:none"
             id="text3887"><tspan
               x="0 24"
               y="0"
               sodipodi:role="line"
               id="tspan3889">書籍</tspan></text>
</g><g
           id="g3891"
           transform="translate(376.95,108.4244)"><text
             transform="scale(1,-1)"
             style="font-variant:normal;font-size:24px;font-family:'Hiragino Sans';-inkscape-font-specification:HiraginoSans-W2;writing-mode:lr-tb;fill:#1f497d;fill-opacity:1;fill-rule:nonzero;stroke:none"
             id="text3893"><tspan
               x="0 24"
               y="0"
               sodipodi:role="line"
               id="tspan3895">人間</tspan></text>
</g><path
           d="m 95.67943,299.5801 0.39618,1.3773 1.92206,-0.5529 -1.22444,6.5955 -4.54175,-4.9369 1.92207,-0.5528 -0.39618,-1.3773 1.92206,-0.5529 z m -1.10576,-3.8441 0.55288,1.922 -1.92206,0.5529 -0.55288,-1.9221 1.92206,-0.5528 z m -1.10576,-3.8442 0.55288,1.9221 -1.92207,0.5529 -0.55287,-1.9221 1.92206,-0.5529 z m -1.10577,-3.8441 0.55288,1.9221 -1.92205,0.5528 -0.55289,-1.922 1.92206,-0.5529 z m -1.10577,-3.8441 0.55288,1.922 -1.92206,0.5529 -0.55288,-1.922 1.92206,-0.5529 z m -1.10577,-3.8441 0.55288,1.922 -1.92205,0.5529 -0.55289,-1.922 1.92206,-0.5529 z m -1.10576,-3.8442 0.55288,1.9221 -1.92206,0.5529 -0.55288,-1.9221 1.92206,-0.5529 z m -1.10577,-3.8441 0.55289,1.9221 -1.92207,0.5528 -0.55288,-1.922 1.92206,-0.5529 z m -1.10576,-3.8441 0.55288,1.922 -1.92206,0.5529 -0.55288,-1.922 1.92206,-0.5529 z m -1.10577,-3.8441 0.55289,1.922 -1.92206,0.5529 -0.55289,-1.922 1.92206,-0.5529 z m -1.10576,-3.8441 0.55288,1.922 -1.92206,0.5529 -0.55289,-1.9221 1.92207,-0.5528 z m -1.10577,-3.8442 0.55288,1.9221 -1.92205,0.5529 -0.55289,-1.9221 1.92206,-0.5529 z m -1.10576,-3.8441 0.55288,1.9221 -1.92206,0.5528 -0.55289,-1.922 1.92207,-0.5529 z m -1.10577,-3.8441 0.55288,1.922 -1.92206,0.5529 -0.55288,-1.9221 1.92206,-0.5528 z m -1.10577,-3.8442 0.55288,1.9221 -1.92205,0.5529 -0.55289,-1.9221 1.92206,-0.5529 z m -1.10577,-3.8441 0.55289,1.9221 -1.92207,0.5529 -0.55288,-1.9221 1.92206,-0.5529 z m -1.10577,-3.8441 0.55289,1.9221 -1.92206,0.5528 -0.55288,-1.922 1.92205,-0.5529 z m -1.10576,-3.8441 0.55288,1.922 -1.92206,0.5529 -0.55289,-1.922 1.92207,-0.5529 z m -1.10577,-3.8441 0.55288,1.922 -1.92206,0.5529 -0.55288,-1.922 1.92206,-0.5529 z m -1.10576,-3.8442 0.55288,1.9221 -1.92206,0.5529 -0.55289,-1.922 1.92207,-0.553 z m -1.10578,-3.8441 0.55289,1.9221 -1.92207,0.5529 -0.55288,-1.9221 1.92206,-0.5529 z m -1.10576,-3.8441 0.55288,1.9221 -1.92206,0.5529 -0.55288,-1.9221 1.92206,-0.5529 z m -1.10577,-3.8441 0.55289,1.9221 -1.92207,0.5528 -0.55289,-1.922 1.92207,-0.5529 z m -1.10577,-3.8441 0.55288,1.922 -1.92206,0.5529 -0.55288,-1.922 1.92206,-0.5529 z m -1.10576,-3.8441 0.55288,1.922 -1.92207,0.5529 -0.55288,-1.9221 1.92207,-0.5528 z m -1.10577,-3.8442 0.55288,1.9221 -1.92206,0.5529 -0.55289,-1.9221 1.92207,-0.5529 z m -1.10577,-3.8441 0.55289,1.9221 -1.92207,0.5528 -0.55288,-1.922 1.92206,-0.5529 z m -1.10576,-3.8441 0.55288,1.922 -1.92206,0.5529 -0.55288,-1.922 1.92206,-0.5529 z m -1.10577,-3.8441 0.55288,1.922 -1.92206,0.5529 -0.55288,-1.9221 1.92206,-0.5528 z m -1.10576,-3.8442 0.55288,1.9221 -1.92206,0.5529 -0.55289,-1.9221 1.92207,-0.5529 z m -1.10577,-3.8441 0.55288,1.9221 -1.92206,0.5529 -0.55289,-1.9221 1.92207,-0.5529 z m -1.10577,-3.8441 0.55289,1.922 -1.92207,0.5529 -0.55288,-1.922 1.92206,-0.5529 z m -1.10577,-3.8441 0.55289,1.922 -1.92207,0.5529 -0.55288,-1.9221 1.92206,-0.5528 z m -1.10576,-3.8442 0.55288,1.9221 -1.92206,0.5529 -0.55289,-1.9221 1.92207,-0.5529 z m -1.10577,-3.8441 0.55288,1.9221 -1.92206,0.5529 -0.55288,-1.9221 1.92206,-0.5529 z m -1.10577,-3.8441 0.55289,1.9221 -1.92206,0.5528 -0.55289,-1.922 1.92206,-0.5529 z m -1.10576,-3.8441 0.55288,1.922 -1.92206,0.5529 -0.55288,-1.922 1.92206,-0.5529 z m -1.10577,-3.8442 0.55288,1.9221 -1.92206,0.5529 -0.55288,-1.9221 1.92206,-0.5529 z m -1.10576,-3.8441 0.55287,1.9221 -1.92205,0.5529 -0.55289,-1.9221 1.92207,-0.5529 z m -1.10578,-3.8441 0.55289,1.922 -1.92206,0.5529 -0.55288,-1.922 1.92205,-0.5529 z m -1.10576,-3.8441 0.55288,1.922 -1.92206,0.5529 -0.55288,-1.922 1.92206,-0.5529 z M 48,137.4431 l 4.54174,4.9369 -1.92206,0.5529 0.27621,0.9602 -1.92207,0.5529 -0.2762,-0.9602 -1.92207,0.5529 L 48,137.4431 Z"
           style="fill:#000080;fill-opacity:1;fill-rule:nonzero;stroke:none"
           id="path3897"
           inkscape:connector-curvature="0" /><path
           d="M 262.5149,300.4651 261,307 l 6.1368,-2.709 -1.5406,-1.2753 0.7077,-0.855 -1.5407,-1.2753 -0.7077,0.855 -1.5406,-1.2753 z m 4.7989,-2.661 -1.2753,1.5407 1.5407,1.2753 1.2753,-1.5407 -1.5407,-1.2753 z m 2.5506,-3.0813 -1.2753,1.5407 1.5406,1.2752 1.2753,-1.5406 -1.5406,-1.2753 z m 2.5505,-3.0813 -1.2753,1.5406 1.5407,1.2753 1.2753,-1.5407 -1.5407,-1.2752 z m 2.5506,-3.0813 -1.2753,1.5406 1.5407,1.2753 1.2753,-1.5407 -1.5407,-1.2752 z m 2.5506,-3.0814 -1.2753,1.5407 1.5407,1.2753 1.2753,-1.5407 -1.5407,-1.2753 z m 2.5506,-3.0813 -1.2753,1.5407 1.5407,1.2753 1.2753,-1.5407 -1.5407,-1.2753 z m 2.5506,-3.0813 -1.2753,1.5406 1.5407,1.2753 1.2752,-1.5406 -1.5406,-1.2753 z m 2.5505,-3.0813 -1.2753,1.5406 1.5407,1.2753 1.2753,-1.5406 -1.5407,-1.2753 z m 2.5506,-3.0813 -1.2753,1.5406 1.5407,1.2753 1.2753,-1.5407 -1.5407,-1.2752 z m 2.5506,-3.0814 -1.2753,1.5407 1.5407,1.2753 1.2753,-1.5407 -1.5407,-1.2753 z m 2.5506,-3.0813 -1.2753,1.5407 1.5407,1.2753 1.2753,-1.5407 -1.5407,-1.2753 z m 2.5506,-3.0813 -1.2753,1.5407 1.5407,1.2753 1.2752,-1.5407 -1.5406,-1.2753 z m 2.5506,-3.0813 -1.2753,1.5406 1.5406,1.2753 1.2753,-1.5406 -1.5406,-1.2753 z m 2.5506,-3.0813 -1.2753,1.5406 1.5406,1.2753 1.2753,-1.5407 -1.5406,-1.2752 z m 2.5505,-3.0814 -1.2753,1.5407 1.5407,1.2753 1.2753,-1.5407 -1.5407,-1.2753 z m 2.5506,-3.0813 -1.2753,1.5407 1.5407,1.2753 1.2753,-1.5407 -1.5407,-1.2753 z m 2.5506,-3.0813 -1.2753,1.5407 1.5407,1.2753 1.2753,-1.5407 -1.5407,-1.2753 z m 2.5506,-3.0813 -1.2753,1.5406 1.5407,1.2753 1.2753,-1.5406 -1.5407,-1.2753 z m 2.5506,-3.0813 -1.2753,1.5406 1.5407,1.2753 1.2753,-1.5406 -1.5407,-1.2753 z m 2.5506,-3.0814 -1.2753,1.5407 1.5407,1.2753 1.2753,-1.5407 -1.5407,-1.2753 z m 2.5506,-3.0813 -1.2753,1.5407 1.5407,1.2753 1.2752,-1.5407 -1.5406,-1.2753 z m 2.5506,-3.0813 -1.2753,1.5407 1.5406,1.2753 1.2753,-1.5407 -1.5406,-1.2753 z m 2.5505,-3.0813 -1.2752,1.5406 1.5406,1.2753 1.2753,-1.5406 -1.5407,-1.2753 z m 2.5506,-3.0813 -1.2753,1.5406 1.5407,1.2753 1.2753,-1.5406 -1.5407,-1.2753 z m 2.5506,-3.0814 -1.2753,1.5407 1.5407,1.2753 1.2753,-1.5407 -1.5407,-1.2753 z m 2.5506,-3.0813 -1.2753,1.5407 1.5407,1.2753 1.2752,-1.5407 -1.5406,-1.2753 z m 2.5506,-3.0813 -1.2753,1.5407 1.5406,1.2753 1.2753,-1.5407 -1.5406,-1.2753 z m 2.5505,-3.0813 -1.2752,1.5407 1.5406,1.2753 1.2753,-1.5407 -1.5407,-1.2753 z m 2.5506,-3.0813 -1.2753,1.5406 1.5407,1.2753 1.2753,-1.5406 -1.5407,-1.2753 z m 2.5506,-3.0813 -1.2753,1.5406 1.5407,1.2753 1.2753,-1.5406 -1.5407,-1.2753 z m 2.5506,-3.0814 -1.2753,1.5407 1.5406,1.2753 1.2753,-1.5407 -1.5406,-1.2753 z m 2.5506,-3.0813 -1.2753,1.5407 1.5406,1.2753 1.2753,-1.5407 -1.5406,-1.2753 z m 2.5506,-3.0813 -1.2753,1.5407 1.5406,1.2753 1.2753,-1.5407 -1.5406,-1.2753 z m 2.5505,-3.0813 -1.2753,1.5406 1.5407,1.2753 1.2753,-1.5406 -1.5407,-1.2753 z m 2.5506,-3.0813 -1.2753,1.5406 1.5407,1.2753 1.2753,-1.5406 -1.5407,-1.2753 z m 2.5506,-3.0814 -1.2753,1.5407 1.5407,1.2753 1.2752,-1.5407 -1.5406,-1.2753 z m 2.5506,-3.0813 -1.2753,1.5407 1.5406,1.2753 1.2753,-1.5407 -1.5406,-1.2753 z m 2.5506,-3.0813 -1.2753,1.5407 1.5406,1.2753 1.2753,-1.5407 -1.5406,-1.2753 z m 2.5505,-3.0813 -1.2752,1.5407 1.5406,1.2752 1.2753,-1.5406 -1.5407,-1.2753 z m 2.5506,-3.0813 -1.2753,1.5406 1.5407,1.2753 1.2753,-1.5406 -1.5407,-1.2753 z m 2.5506,-3.0814 -1.2753,1.5407 1.5407,1.2753 1.2752,-1.5407 -1.5406,-1.2753 z m 2.5506,-3.0813 -1.2753,1.5407 1.5406,1.2753 1.2753,-1.5407 -1.5406,-1.2753 z m 2.5506,-3.0813 -1.2753,1.5407 1.5406,1.2753 1.2753,-1.5407 -1.5406,-1.2753 z m 2.5505,-3.0813 -1.2752,1.5407 1.5406,1.2752 1.2753,-1.5406 -1.5407,-1.2753 z m 2.5506,-3.0813 -1.2753,1.5406 1.5407,1.2753 1.2753,-1.5406 -1.5407,-1.2753 z m 2.5506,-3.0813 -1.2753,1.5406 1.5407,1.2753 1.2753,-1.5407 -1.5407,-1.2752 z m 2.5506,-3.0814 -1.2753,1.5407 1.5406,1.2753 1.2753,-1.5407 -1.5406,-1.2753 z m 2.5506,-3.0813 -1.2753,1.5407 1.5406,1.2753 1.2753,-1.5407 -1.5406,-1.2753 z m 2.5506,-3.0813 -1.2753,1.5407 1.5406,1.2753 1.2753,-1.5407 -1.5406,-1.2753 z m 2.5505,-3.0813 -1.2752,1.5406 1.5406,1.2753 1.2753,-1.5406 -1.5407,-1.2753 z m 2.5506,-3.0813 -1.2753,1.5406 1.5407,1.2753 1.2753,-1.5407 -1.5407,-1.2752 z m 6.5089,-6.2951 -6.1369,2.7091 1.5407,1.2753 -0.6374,0.77 1.5407,1.2753 0.6374,-0.77 1.5406,1.2753 1.5149,-6.535 z"
           style="fill:#000080;fill-opacity:1;fill-rule:nonzero;stroke:none"
           id="path3899"
           inkscape:connector-curvature="0" /><g
           id="g3901"
           transform="translate(290.3019,91.87827)"><text
             transform="scale(1,-1)"
             style="font-variant:normal;font-size:20px;font-family:'Hiragino Sans';-inkscape-font-specification:HiraginoSans-W2;writing-mode:lr-tb;fill:#000000;fill-opacity:1;fill-rule:nonzero;stroke:none"
             id="text3903"><tspan
               x="0 20"
               y="0"
               sodipodi:role="line"
               id="tspan3905">著者</tspan></text>
</g><g
           id="g3907"
           transform="translate(142.7145,141.911)"><text
             transform="scale(1,-1)"
             style="font-variant:normal;font-size:16px;font-family:'Hiragino Sans';-inkscape-font-specification:HiraginoSans-W2;writing-mode:lr-tb;fill:#000000;fill-opacity:1;fill-rule:nonzero;stroke:none"
             id="text3909"><tspan
               x="0 11 23.007999"
               y="0"
               sodipodi:role="line"
               id="tspan3911">RDF</tspan></text>
</g><g
           id="g3913"
           transform="translate(174.7145,141.911)"><text
             transform="scale(1,-1)"
             style="font-variant:normal;font-size:16px;font-family:'Hiragino Sans';-inkscape-font-specification:HiraginoSans-W2;writing-mode:lr-tb;fill:#000000;fill-opacity:1;fill-rule:nonzero;stroke:none"
             id="text3915"><tspan
               x="0 16 32 48"
               y="0"
               sodipodi:role="line"
               id="tspan3917">リソース</tspan></text>
</g><g
           id="g3919"
           transform="translate(238.7145,141.911)"><text
             transform="scale(1,-1)"
             style="font-variant:normal;font-size:16px;font-family:'Hiragino Sans';-inkscape-font-specification:HiraginoSans-W2;writing-mode:lr-tb;fill:#000000;fill-opacity:1;fill-rule:nonzero;stroke:none"
             id="text3921"><tspan
               x="0 16 32 48"
               y="0"
               sodipodi:role="line"
               id="tspan3923">のタイプ</tspan></text>
</g><path
           d="m 135.2953,149.8831 -51.46585,-27.3427 -0.93834,1.7662 -3.89112,-5.4643 6.70616,0.1657 -0.93835,1.7662 51.4659,27.3427 -0.9384,1.7662 z"
           style="fill:#000000;fill-opacity:1;fill-rule:nonzero;stroke:none"
           id="path3925"
           inkscape:connector-curvature="0" /><path
           d="m 312.4653,149.8852 52.064,-27.3661 0.9305,1.7703 3.9152,-5.4471 -6.7068,0.1361 0.9306,1.7703 -52.0641,27.3661 0.9306,1.7704 z"
           style="fill:#000000;fill-opacity:1;fill-rule:nonzero;stroke:none"
           id="path3927"
           inkscape:connector-curvature="0" /><g
           id="g3929"
           transform="translate(265.4206,16.54944)"><text
             transform="scale(1,-1)"
             style="font-variant:normal;font-size:14px;font-family:'Hiragino Sans';-inkscape-font-specification:HiraginoSans-W2;writing-mode:lr-tb;fill:#000000;fill-opacity:1;fill-rule:nonzero;stroke:none"
             id="text3931"><tspan
               x="0 10.0002 20.000401"
               y="0"
               sodipodi:role="line"
               id="tspan3933">RDF</tspan></text>
</g><g
           id="g3935"
           transform="translate(293.4206,16.54944)"><text
             transform="scale(1,-1)"
             style="font-variant:normal;font-size:14px;font-family:'Hiragino Sans';-inkscape-font-specification:HiraginoSans-W2;writing-mode:lr-tb;fill:#000000;fill-opacity:1;fill-rule:nonzero;stroke:none"
             id="text3937"><tspan
               x="0 14 28 42"
               y="0"
               sodipodi:role="line"
               id="tspan3939">リソース</tspan></text>
</g><path
           d="M 257.7835,21.61071 143.3885,59.17789 142.7645,57.27773 138,62 l 6.6365,0.97821 -0.624,-1.90016 114.395,-37.56718 -0.624,-1.90016 z"
           style="fill:#000000;fill-opacity:1;fill-rule:nonzero;stroke:none"
           id="path3941"
           inkscape:connector-curvature="0" /><path
           d="m 355.2815,21.60123 128.6844,37.75025 0.5629,-1.91913 4.9129,4.56765 -6.6018,1.18974 0.563,-1.91913 -128.6844,-37.75025 0.563,-1.91913 z"
           style="fill:#000000;fill-opacity:1;fill-rule:nonzero;stroke:none"
           id="path3943"
           inkscape:connector-curvature="0" /><g
           id="g3945"
           transform="translate(262.2546,44.24292)"><text
             transform="scale(1,-1)"
             style="font-variant:normal;font-size:14px;font-family:'Hiragino Sans';-inkscape-font-specification:HiraginoSans-W2;writing-mode:lr-tb;fill:#000000;fill-opacity:1;fill-rule:nonzero;stroke:none"
             id="text3947"><tspan
               x="0 10.0002 20.000401"
               y="0"
               sodipodi:role="line"
               id="tspan3949">RDF</tspan></text>
</g><g
           id="g3951"
           transform="translate(290.2546,44.24292)"><text
             transform="scale(1,-1)"
             style="font-variant:normal;font-size:14px;font-family:'Hiragino Sans';-inkscape-font-specification:HiraginoSans-W2;writing-mode:lr-tb;fill:#000000;fill-opacity:1;fill-rule:nonzero;stroke:none"
             id="text3953"><tspan
               x="0 14 28 42 56"
               y="0"
               sodipodi:role="line"
               id="tspan3955">プロパティ</tspan></text>
</g><path
           d="m 311,61.61465 10e-5,17.38536 2,-1e-5 -3,6.00001 -3,-5.99999 2,0 -10e-5,-17.38536 2,-1e-5 z"
           style="fill:#000000;fill-opacity:1;fill-rule:nonzero;stroke:none"
           id="path3957"
           inkscape:connector-curvature="0" /><path
           d="M 487.8502,337.3911 489,344 l -5.9771,-3.0455 4.8273,-3.5634 z m -3.1581,-0.9105 1.1878,1.6091 -1.609,1.1878 -1.1878,-1.6091 1.609,-1.1878 z m -2.3756,-3.2181 1.1878,1.6091 -1.609,1.1877 -1.1879,-1.609 1.6091,-1.1878 z m -2.3756,-3.2182 1.1878,1.6091 -1.6091,1.1878 -1.1878,-1.6091 1.6091,-1.1878 z m -2.3756,-3.2181 1.1878,1.6091 -1.6091,1.1878 -1.1878,-1.6091 1.6091,-1.1878 z m -2.3757,-3.2181 1.1879,1.6091 -1.6091,1.1877 -1.1878,-1.609 1.609,-1.1878 z m -2.3756,-3.2181 1.1878,1.609 -1.609,1.1878 -1.1878,-1.6091 1.609,-1.1877 z m -2.3756,-3.2182 1.1878,1.6091 -1.609,1.1878 -1.1879,-1.6091 1.6091,-1.1878 z m -2.3756,-3.2181 1.1878,1.609 -1.6091,1.1878 -1.1878,-1.609 1.6091,-1.1878 z m -2.3756,-3.2181 1.1878,1.609 -1.6091,1.1878 -1.1878,-1.6091 1.6091,-1.1877 z m -2.3756,-3.2182 1.1878,1.6091 -1.6091,1.1878 -1.1878,-1.6091 1.6091,-1.1878 z m -2.3757,-3.2181 1.1878,1.6091 -1.609,1.1877 -1.1879,-1.609 1.6091,-1.1878 z m -2.3756,-3.2182 1.1878,1.6091 -1.6091,1.1878 -1.1878,-1.6091 1.6091,-1.1878 z m -2.3756,-3.2181 1.1878,1.609 -1.6091,1.1879 -1.1878,-1.6091 1.6091,-1.1878 z m -2.3756,-3.2182 1.1878,1.6091 -1.6091,1.1878 -1.1878,-1.6091 1.6091,-1.1878 z m -2.3756,-3.2181 1.1878,1.609 -1.6091,1.1878 -1.1878,-1.609 1.6091,-1.1878 z m -2.3757,-3.2182 1.1878,1.6091 -1.609,1.1878 -1.1878,-1.6091 1.609,-1.1878 z m -2.3756,-3.2181 1.1878,1.6091 -1.609,1.1877 -1.1879,-1.609 1.6091,-1.1878 z m -2.3756,-3.2182 1.1878,1.6091 -1.6091,1.1878 -1.1878,-1.6091 1.6091,-1.1878 z m -2.3756,-3.2181 1.1878,1.609 -1.6091,1.1879 -1.1878,-1.6091 1.6091,-1.1878 z m -2.3756,-3.2182 1.1878,1.6091 -1.6091,1.1878 -1.1878,-1.6091 1.6091,-1.1878 z m -2.3757,-3.2181 1.1879,1.6091 -1.6091,1.1878 -1.1879,-1.6091 1.6091,-1.1878 z m -2.3756,-3.2181 1.1878,1.609 -1.6091,1.1878 -1.1878,-1.609 1.6091,-1.1878 z m -2.3756,-3.2182 1.1878,1.6091 -1.6091,1.1878 -1.1878,-1.6091 1.6091,-1.1878 z m -2.3756,-3.2182 1.1878,1.6091 -1.6091,1.1879 -1.1878,-1.6091 1.6091,-1.1879 z m -2.3757,-3.2181 1.1879,1.6091 -1.6091,1.1878 -1.1878,-1.6091 1.609,-1.1878 z m -2.3756,-3.2181 1.1878,1.6091 -1.6091,1.1878 -1.1878,-1.6091 1.6091,-1.1878 z m -2.3756,-3.2182 1.1878,1.6091 -1.6091,1.1878 -1.1878,-1.609 1.6091,-1.1879 z m -2.3756,-3.2181 1.1878,1.6091 -1.6091,1.1878 -1.1878,-1.6091 1.6091,-1.1878 z m -2.3757,-3.2181 1.1878,1.6091 -1.6091,1.1878 -1.1878,-1.6091 1.6091,-1.1878 z m -2.3756,-3.2182 1.1878,1.6091 -1.6091,1.1878 -1.1878,-1.6091 1.6091,-1.1878 z m -2.3756,-3.2181 1.1878,1.6091 -1.6091,1.1878 -1.1878,-1.6091 1.6091,-1.1878 z m -2.3757,-3.2182 1.1878,1.6091 -1.609,1.1878 -1.1878,-1.609 1.609,-1.1879 z m -2.3756,-3.2181 1.1878,1.6091 -1.6091,1.1878 -1.1878,-1.6091 1.6091,-1.1878 z m -2.3756,-3.2181 1.1878,1.6091 -1.6091,1.1878 -1.1878,-1.6091 1.6091,-1.1878 z m -2.3757,-3.2182 1.1879,1.6091 -1.6091,1.1878 -1.1878,-1.6091 1.609,-1.1878 z m -2.3756,-3.2181 1.1878,1.6091 -1.609,1.1878 -1.1879,-1.6091 1.6091,-1.1878 z m -2.3756,-3.2182 1.1878,1.6091 -1.6091,1.1878 -1.1878,-1.609 1.6091,-1.1879 z m -2.3756,-3.2181 1.1878,1.6091 -1.6091,1.1878 -1.1878,-1.6091 1.6091,-1.1878 z m -2.3756,-3.2181 1.1878,1.609 -1.6091,1.1879 -1.1878,-1.6091 1.6091,-1.1878 z m -2.3757,-3.2182 1.1878,1.6091 -1.609,1.1878 -1.1879,-1.6091 1.6091,-1.1878 z m -2.3756,-3.2181 1.1878,1.6091 -1.6091,1.1878 -1.1878,-1.6091 1.6091,-1.1878 z m -2.3756,-3.2181 1.1878,1.609 -1.6091,1.1878 -1.1878,-1.609 1.6091,-1.1878 z m -2.3756,-3.2182 1.1878,1.6091 -1.6091,1.1878 -1.1878,-1.6091 1.6091,-1.1878 z m -2.3757,-3.2181 1.1878,1.6091 -1.609,1.1878 -1.1878,-1.6091 1.609,-1.1878 z m -2.3756,-3.2182 1.1878,1.6091 -1.609,1.1878 -1.1878,-1.609 1.609,-1.1879 z m -2.3756,-3.2181 1.1878,1.6091 -1.609,1.1878 -1.1878,-1.6091 1.609,-1.1878 z m -2.3756,-3.2181 1.1878,1.6091 -1.6091,1.1878 -1.1878,-1.6091 1.6091,-1.1878 z m -2.3756,-3.2182 1.1878,1.6091 -1.6091,1.1878 -1.1878,-1.6091 1.6091,-1.1878 z m -2.3757,-3.2181 1.1879,1.6091 -1.6091,1.1878 -1.1878,-1.6091 1.609,-1.1878 z m -2.3756,-3.2181 1.1878,1.609 -1.609,1.1878 -1.1878,-1.609 1.609,-1.1878 z m -2.3756,-3.2182 1.1878,1.6091 -1.6091,1.1878 -1.1878,-1.6091 1.6091,-1.1878 z m -2.3756,-3.2181 1.1878,1.6091 -1.6091,1.1878 -1.1878,-1.6091 1.6091,-1.1878 z m -2.3756,-3.2182 1.1878,1.6091 -1.6091,1.1878 -1.1878,-1.6091 1.6091,-1.1878 z m -2.3757,-3.2181 1.1879,1.6091 -1.6091,1.1878 -1.1878,-1.6091 1.609,-1.1878 z m -2.3756,-3.2181 1.1878,1.609 -1.609,1.1878 -1.1878,-1.609 1.609,-1.1878 z m -2.3756,-3.2182 1.1878,1.6091 -1.6091,1.1878 -1.1878,-1.6091 1.6091,-1.1878 z m -2.3756,-3.2181 1.1878,1.609 -1.6091,1.1879 -1.1878,-1.6091 1.6091,-1.1878 z m -2.3756,-3.2182 1.1878,1.6091 -1.6091,1.1878 -1.1878,-1.609 1.6091,-1.1879 z m -2.3757,-3.2181 1.1878,1.6091 -1.609,1.1878 -1.1878,-1.6091 1.609,-1.1878 z m -2.3756,-3.2181 1.1878,1.609 -1.609,1.1878 -1.1878,-1.609 1.609,-1.1878 z m -2.3756,-3.2182 1.1878,1.6091 -1.609,1.1878 -1.1879,-1.6091 1.6091,-1.1878 z m -2.3756,-3.2181 1.1878,1.6091 -1.6091,1.1878 -1.1878,-1.6091 1.6091,-1.1878 z m -2.3756,-3.2182 1.1878,1.6091 -1.6091,1.1878 -1.1878,-1.609 1.6091,-1.1879 z m -2.3756,-3.2181 1.1878,1.6091 -1.6091,1.1878 -1.1878,-1.6091 1.6091,-1.1878 z m -2.3757,-3.2181 1.1878,1.609 -1.6091,1.1878 -1.1878,-1.609 1.6091,-1.1878 z m -2.3756,-3.2182 1.1878,1.6091 -1.6091,1.1878 -1.1878,-1.6091 1.6091,-1.1878 z m -2.3756,-3.2181 1.1878,1.6091 -1.6091,1.1878 -1.1878,-1.6091 1.6091,-1.1878 z m -2.3756,-3.2182 1.1878,1.6091 -1.6091,1.1878 -1.1878,-1.609 1.6091,-1.1879 z m -2.3757,-3.2181 1.1878,1.6091 -1.609,1.1878 -1.1878,-1.6091 1.609,-1.1878 z M 317,111 l 5.9771,3.0455 -1.6091,1.1878 0.594,0.8047 -1.6091,1.1878 -0.594,-0.8047 -1.6091,1.1878 L 317,111 Z"
           style="fill:#ff0000;fill-opacity:1;fill-rule:nonzero;stroke:none"
           id="path3959"
           inkscape:connector-curvature="0" /><path
           d="m 5,242 612,0 0,-43 -612,0 0,43 z"
           style="fill:#ffffff;fill-opacity:1;fill-rule:nonzero;stroke:none"
           id="path3961"
           inkscape:connector-curvature="0" /><g
           id="g3963"
           transform="matrix(7.874016e-5,0,0,-7.874016e-5,5,242)"><path
             d="m 0,0 7772400,0 0,546100 L 0,546100 0,0 Z"
             style="fill:none;stroke:#000000;stroke-width:25400;stroke-linecap:butt;stroke-linejoin:miter;stroke-miterlimit:8;stroke-dasharray:none;stroke-opacity:1"
             id="path3965"
             inkscape:connector-curvature="0" /></g><g
           id="g3967"
           transform="translate(184.2859,204.1244)"><text
             transform="scale(1,-1)"
             style="font-variant:normal;font-size:36px;font-family:'Hiragino Sans';-inkscape-font-specification:HiraginoSans-W2;writing-mode:lr-tb;fill:#000000;fill-opacity:1;fill-rule:nonzero;stroke:#000000;stroke-width:1;stroke-linecap:butt;stroke-linejoin:miter;stroke-miterlimit:10;stroke-dasharray:none;stroke-opacity:1"
             id="text3969"><tspan
               x="0 36 72 108"
               y="0"
               sodipodi:role="line"
               id="tspan3971">モデル（</tspan></text>
</g><g
           id="g3973"
           transform="translate(328.2859,204.1244)"><text
             transform="scale(1,-1)"
             style="font-variant:normal;font-size:36px;font-family:'Hiragino Sans';-inkscape-font-specification:HiraginoSans-W2;writing-mode:lr-tb;fill:#000000;fill-opacity:1;fill-rule:nonzero;stroke:#000000;stroke-width:1;stroke-linecap:butt;stroke-linejoin:miter;stroke-miterlimit:10;stroke-dasharray:none;stroke-opacity:1"
             id="text3975"><tspan
               x="0 25.999201 53.006401"
               y="0"
               sodipodi:role="line"
               id="tspan3977">RDF</tspan></text>
</g><g
           id="g3979"
           transform="translate(402.2859,204.1244)"><text
             transform="scale(1,-1)"
             style="font-variant:normal;font-size:36px;font-family:'Hiragino Sans';-inkscape-font-specification:HiraginoSans-W2;writing-mode:lr-tb;fill:#000000;fill-opacity:1;fill-rule:nonzero;stroke:#000000;stroke-width:1;stroke-linecap:butt;stroke-linejoin:miter;stroke-miterlimit:10;stroke-dasharray:none;stroke-opacity:1"
             id="text3981"><tspan
               x="0"
               y="0"
               id="tspan3983">）</tspan></text>
</g></g></g></g></svg>