<?xml version="1.0" encoding="UTF-8" standalone="no"?>
<!-- Created with Inkscape (http://www.inkscape.org/) -->

<svg
   xmlns:dc="http://purl.org/dc/elements/1.1/"
   xmlns:cc="http://creativecommons.org/ns#"
   xmlns:rdf="http://www.w3.org/1999/02/22-rdf-syntax-ns#"
   xmlns:svg="http://www.w3.org/2000/svg"
   xmlns="http://www.w3.org/2000/svg"
   xmlns:sodipodi="http://sodipodi.sourceforge.net/DTD/sodipodi-0.dtd"
   xmlns:inkscape="http://www.inkscape.org/namespaces/inkscape"
   id="svg6826"
   version="1.1"
   inkscape:version="0.91 r13725"
   xml:space="preserve"
   width="932.5"
   height="685"
   viewBox="0 0 932.5 685"
   sodipodi:docname="import_rdf.svg"><metadata
     id="metadata6832"><rdf:RDF><cc:Work
         rdf:about=""><dc:format>image/svg+xml</dc:format><dc:type
           rdf:resource="http://purl.org/dc/dcmitype/StillImage" /><dc:title></dc:title></cc:Work></rdf:RDF></metadata><defs
     id="defs6830"><clipPath
       clipPathUnits="userSpaceOnUse"
       id="clipPath6842"><path
         d="M 4,4 742,4 742,544 4,544 4,4 Z"
         id="path6844"
         inkscape:connector-curvature="0" /></clipPath></defs><sodipodi:namedview
     pagecolor="#ffffff"
     bordercolor="#666666"
     borderopacity="1"
     objecttolerance="10"
     gridtolerance="10"
     guidetolerance="10"
     inkscape:pageopacity="0"
     inkscape:pageshadow="2"
     inkscape:window-width="640"
     inkscape:window-height="480"
     id="namedview6828"
     showgrid="false"
     inkscape:zoom="0.29383378"
     inkscape:cx="466.25"
     inkscape:cy="342.5"
     inkscape:window-x="422"
     inkscape:window-y="163"
     inkscape:window-maximized="0"
     inkscape:current-layer="g6834" /><g
     id="g6834"
     inkscape:groupmode="layer"
     inkscape:label="test"
     transform="matrix(1.25,0,0,-1.25,0,685)"><g
       id="g6836" /><g
       id="g6838"><g
         id="g6840"
         clip-path="url(#clipPath6842)"><path
           d="M 4,544 742,544 742,4 4,4 4,544 Z"
           style="fill:#ffffff;fill-opacity:0;fill-rule:nonzero;stroke:none"
           id="path6846"
           inkscape:connector-curvature="0" /><path
           d="m 74.5,543.5 326,0 0,-269 -326,0 0,269 z"
           style="fill:#ffffff;fill-opacity:1;fill-rule:nonzero;stroke:none"
           id="path6848"
           inkscape:connector-curvature="0" /><g
           id="g6850"
           transform="matrix(7.874016e-5,0,0,-7.874016e-5,74.5,543.5)"><path
             d="m 0,0 4140200,0 0,3416300 L 0,3416300 0,0 Z"
             style="fill:none;stroke:#000000;stroke-width:12700;stroke-linecap:butt;stroke-linejoin:miter;stroke-miterlimit:8;stroke-dasharray:none;stroke-opacity:1"
             id="path6852"
             inkscape:connector-curvature="0" /></g><path
           d="m 21.5,543.5 53,0 0,-269 -53,0 0,269 z"
           style="fill:#ffffff;fill-opacity:1;fill-rule:nonzero;stroke:none"
           id="path6854"
           inkscape:connector-curvature="0" /><g
           id="g6856"
           transform="matrix(7.874016e-5,0,0,-7.874016e-5,21.5,543.5)"><path
             d="m 0,0 673100,0 0,3416300 L 0,3416300 0,0 Z"
             style="fill:none;stroke:#000000;stroke-width:12700;stroke-linecap:butt;stroke-linejoin:miter;stroke-miterlimit:8;stroke-dasharray:none;stroke-opacity:1"
             id="path6858"
             inkscape:connector-curvature="0" /></g><g
           id="g6860"
           transform="matrix(0,-1,1,0,32.88866,458.3543)"><text
             transform="scale(1,-1)"
             style="font-variant:normal;font-size:36px;font-family:'Hiragino Sans';-inkscape-font-specification:HiraginoSans-W2;writing-mode:lr-tb;fill:#000000;fill-opacity:1;fill-rule:nonzero;stroke:#000000;stroke-width:1;stroke-linecap:butt;stroke-linejoin:miter;stroke-miterlimit:10;stroke-dasharray:none;stroke-opacity:1"
             id="text6862"><tspan
               x="0 25.999201 53.006401 74.001602"
               y="0"
               sodipodi:role="line"
               id="tspan6864">RDFS</tspan></text>
</g><path
           d="m 21.5,274.5 53,0 0,-270.000004 -53,0 0,270.000004 z"
           style="fill:#ffffff;fill-opacity:1;fill-rule:nonzero;stroke:none"
           id="path6866"
           inkscape:connector-curvature="0" /><g
           id="g6868"
           transform="matrix(7.874016e-5,0,0,-7.874016e-5,21.5,274.5)"><path
             d="m 0,0 673100,0 0,3429000 L 0,3429000 0,0 Z"
             style="fill:none;stroke:#000000;stroke-width:12700;stroke-linecap:butt;stroke-linejoin:miter;stroke-miterlimit:8;stroke-dasharray:none;stroke-opacity:1"
             id="path6870"
             inkscape:connector-curvature="0" /></g><g
           id="g6872"
           transform="matrix(0,-1,1,0,32.88866,177.0605)"><text
             transform="scale(1,-1)"
             style="font-variant:normal;font-size:36px;font-family:'Hiragino Sans';-inkscape-font-specification:HiraginoSans-W2;writing-mode:lr-tb;fill:#000000;fill-opacity:1;fill-rule:nonzero;stroke:#000000;stroke-width:1;stroke-linecap:butt;stroke-linejoin:miter;stroke-miterlimit:10;stroke-dasharray:none;stroke-opacity:1"
             id="text6874"><tspan
               x="0 25.999201 53.006401"
               y="0"
               sodipodi:role="line"
               id="tspan6876">RDF</tspan></text>
</g><path
           d="m 415.5,543.5 326,0 0,-269 -326,0 0,269 z"
           style="fill:#ffffff;fill-opacity:1;fill-rule:nonzero;stroke:none"
           id="path6878"
           inkscape:connector-curvature="0" /><g
           id="g6880"
           transform="matrix(7.874016e-5,0,0,-7.874016e-5,415.5,543.5)"><path
             d="m 0,0 4140200,0 0,3416300 L 0,3416300 0,0 Z"
             style="fill:none;stroke:#000000;stroke-width:12700;stroke-linecap:butt;stroke-linejoin:miter;stroke-miterlimit:8;stroke-dasharray:none;stroke-opacity:1"
             id="path6882"
             inkscape:connector-curvature="0" /></g><path
           d="m 415.5,274.5 326,0 0,-270.000004 -326,0 0,270.000004 z"
           style="fill:#ffffff;fill-opacity:1;fill-rule:nonzero;stroke:none"
           id="path6884"
           inkscape:connector-curvature="0" /><g
           id="g6886"
           transform="matrix(7.874016e-5,0,0,-7.874016e-5,415.5,274.5)"><path
             d="m 0,0 4140200,0 0,3429000 L 0,3429000 0,0 Z"
             style="fill:none;stroke:#000000;stroke-width:12700;stroke-linecap:butt;stroke-linejoin:miter;stroke-miterlimit:8;stroke-dasharray:none;stroke-opacity:1"
             id="path6888"
             inkscape:connector-curvature="0" /></g><path
           d="m 381.5,423.25 28.5,0 0,14.25 28.5,-28.5 -28.5,-28.5 0,14.25 -28.5,0 0,28.5 z"
           style="fill:#000000;fill-opacity:1;fill-rule:nonzero;stroke:none"
           id="path6890"
           inkscape:connector-curvature="0" /><g
           id="g6892"
           transform="matrix(7.874016e-5,0,0,-7.874016e-5,381.5,437.5)"><path
             d="m 0,180975 361950,0 0,-180975 361950,361950 -361950,361950 0,-180975 -361950,0 0,-361950 z"
             style="fill:none;stroke:#000000;stroke-width:12700;stroke-linecap:butt;stroke-linejoin:miter;stroke-miterlimit:8;stroke-dasharray:none;stroke-opacity:1"
             id="path6894"
             inkscape:connector-curvature="0" /></g><path
           d="m 81,500 118,0 0,-59 -118,0 0,59 z"
           style="fill:#d5fc79;fill-opacity:1;fill-rule:nonzero;stroke:none"
           id="path6896"
           inkscape:connector-curvature="0" /><g
           id="g6898"
           transform="matrix(7.874016e-5,0,0,-7.874016e-5,81,500)"><path
             d="m 0,0 1498600,0 0,749300 L 0,749300 0,0 Z"
             style="fill:none;stroke:#000000;stroke-width:25400;stroke-linecap:butt;stroke-linejoin:miter;stroke-miterlimit:8;stroke-dasharray:none;stroke-opacity:1"
             id="path6900"
             inkscape:connector-curvature="0" /></g><g
           id="g6902"
           transform="translate(81.35945,465.6683)"><text
             transform="scale(1,-1)"
             style="font-variant:normal;font-size:17px;font-family:'Hiragino Sans';-inkscape-font-specification:HiraginoSans-W2;writing-mode:lr-tb;fill:#000000;fill-opacity:1;fill-rule:nonzero;stroke:none"
             id="text6904"><tspan
               x="0 7.0005999 17.996201 24.996799 34.003399 38.012001 50.010601 60.003201 69.009804 79.002403 88.995003 95.995598 105.9882"
               y="0"
               sodipodi:role="line"
               id="tspan6906">rdfs:Resource</tspan></text>
</g><path
           d="m 205.5,473.3477 0,-2.5 41.4943,0 0,-1 -41.4943,0 0,-2.5 -6,3 6,3 z"
           style="fill:#000000;fill-opacity:1;fill-rule:nonzero;stroke:none"
           id="path6908"
           inkscape:connector-curvature="0" /><path
           d="m 247,500 118,0 0,-59 -118,0 0,59 z"
           style="fill:#d5fc79;fill-opacity:1;fill-rule:nonzero;stroke:none"
           id="path6910"
           inkscape:connector-curvature="0" /><g
           id="g6912"
           transform="matrix(7.874016e-5,0,0,-7.874016e-5,247,500)"><path
             d="m 0,0 1498600,0 0,749300 L 0,749300 0,0 Z"
             style="fill:none;stroke:#000000;stroke-width:25400;stroke-linecap:butt;stroke-linejoin:miter;stroke-miterlimit:8;stroke-dasharray:none;stroke-opacity:1"
             id="path6914"
             inkscape:connector-curvature="0" /></g><g
           id="g6916"
           transform="translate(277.5898,465.6683)"><text
             transform="scale(1,-1)"
             style="font-variant:normal;font-size:17px;font-family:'Hiragino Sans';-inkscape-font-specification:HiraginoSans-W2;writing-mode:lr-tb;fill:#000000;fill-opacity:1;fill-rule:nonzero;stroke:none"
             id="text6918"><tspan
               x="0 9.9994001 18.9958"
               y="0"
               sodipodi:role="line"
               id="tspan6920">ex:</tspan></text>
</g><g
           id="g6922"
           transform="translate(300.5898,465.6683)"><text
             transform="scale(1,-1)"
             style="font-variant:normal;font-size:17px;font-family:'Hiragino Sans';-inkscape-font-specification:HiraginoSans-W2;writing-mode:lr-tb;fill:#000000;fill-opacity:1;fill-rule:nonzero;stroke:none"
             id="text6924"><tspan
               x="0 17"
               y="0"
               sodipodi:role="line"
               id="tspan6926">人間</tspan></text>
</g><path
           d="m 442,500 119,0 0,-59 -119,0 0,59 z"
           style="fill:#d5fc79;fill-opacity:1;fill-rule:nonzero;stroke:none"
           id="path6928"
           inkscape:connector-curvature="0" /><g
           id="g6930"
           transform="matrix(7.874016e-5,0,0,-7.874016e-5,442,500)"><path
             d="m 0,0 1511300,0 0,749300 L 0,749300 0,0 Z"
             style="fill:none;stroke:#000000;stroke-width:25400;stroke-linecap:butt;stroke-linejoin:miter;stroke-miterlimit:8;stroke-dasharray:none;stroke-opacity:1"
             id="path6932"
             inkscape:connector-curvature="0" /></g><g
           id="g6934"
           transform="translate(443.1843,465.6683)"><text
             transform="scale(1,-1)"
             style="font-variant:normal;font-size:17px;font-family:'Hiragino Sans';-inkscape-font-specification:HiraginoSans-W2;writing-mode:lr-tb;fill:#000000;fill-opacity:1;fill-rule:nonzero;stroke:none"
             id="text6936"><tspan
               x="0 7.0005999 17.996201 24.996799 34.003399 38.012001 50.010601 60.003201 69.009804 79.002403 88.995003 95.995598 105.9882"
               y="0"
               sodipodi:role="line"
               id="tspan6938">rdfs:Resource</tspan></text>
</g><path
           d="m 564.1885,476.6612 1.459,-2.0301 42.6223,30.6348 0.5836,-0.812 -42.6222,-30.6348 1.459,-2.03 -6.6229,-1.0658 3.1212,5.9379 z"
           style="fill:#000000;fill-opacity:1;fill-rule:nonzero;stroke:none"
           id="path6940"
           inkscape:connector-curvature="0" /><path
           d="m 609,535 118,0 0,-60 -118,0 0,60 z"
           style="fill:#d5fc79;fill-opacity:1;fill-rule:nonzero;stroke:none"
           id="path6942"
           inkscape:connector-curvature="0" /><g
           id="g6944"
           transform="matrix(7.874016e-5,0,0,-7.874016e-5,609,535)"><path
             d="m 0,0 1498600,0 0,762000 L 0,762000 0,0 Z"
             style="fill:none;stroke:#ff0000;stroke-width:25400;stroke-linecap:butt;stroke-linejoin:miter;stroke-miterlimit:8;stroke-dasharray:101600, 76200;stroke-dashoffset:0;stroke-opacity:1"
             id="path6946"
             inkscape:connector-curvature="0" /></g><g
           id="g6948"
           transform="translate(639.4146,499.8049)"><text
             transform="scale(1,-1)"
             style="font-variant:normal;font-size:17px;font-family:'Hiragino Sans';-inkscape-font-specification:HiraginoSans-W2;writing-mode:lr-tb;fill:#000000;fill-opacity:1;fill-rule:nonzero;stroke:none"
             id="text6950"><tspan
               x="0 9.9994001 18.9958"
               y="0"
               sodipodi:role="line"
               id="tspan6952">ex:</tspan></text>
</g><g
           id="g6954"
           transform="translate(662.4146,499.8049)"><text
             transform="scale(1,-1)"
             style="font-variant:normal;font-size:17px;font-family:'Hiragino Sans';-inkscape-font-specification:HiraginoSans-W2;writing-mode:lr-tb;fill:#000000;fill-opacity:1;fill-rule:nonzero;stroke:none"
             id="text6956"><tspan
               x="0 17"
               y="0"
               sodipodi:role="line"
               id="tspan6958">書籍</tspan></text>
</g><path
           d="m 567.6902,469.6576 -1.4591,-2.0301 42.6223,-30.6347 -0.5836,-0.812 -42.6223,30.6347 -1.4591,-2.03 -3.1211,5.9378 6.6229,-1.0657 z"
           style="fill:#000000;fill-opacity:1;fill-rule:nonzero;stroke:none"
           id="path6960"
           inkscape:connector-curvature="0" /><path
           d="m 609,466 118,0 0,-59 -118,0 0,59 z"
           style="fill:#d5fc79;fill-opacity:1;fill-rule:nonzero;stroke:none"
           id="path6962"
           inkscape:connector-curvature="0" /><g
           id="g6964"
           transform="matrix(7.874016e-5,0,0,-7.874016e-5,609,466)"><path
             d="m 0,0 1498600,0 0,749300 L 0,749300 0,0 Z"
             style="fill:none;stroke:#000000;stroke-width:25400;stroke-linecap:butt;stroke-linejoin:miter;stroke-miterlimit:8;stroke-dasharray:none;stroke-opacity:1"
             id="path6966"
             inkscape:connector-curvature="0" /></g><g
           id="g6968"
           transform="translate(639.4146,431.5317)"><text
             transform="scale(1,-1)"
             style="font-variant:normal;font-size:17px;font-family:'Hiragino Sans';-inkscape-font-specification:HiraginoSans-W2;writing-mode:lr-tb;fill:#000000;fill-opacity:1;fill-rule:nonzero;stroke:none"
             id="text6970"><tspan
               x="0 9.9994001 18.9958"
               y="0"
               sodipodi:role="line"
               id="tspan6972">ex:</tspan></text>
</g><g
           id="g6974"
           transform="translate(662.4146,431.5317)"><text
             transform="scale(1,-1)"
             style="font-variant:normal;font-size:17px;font-family:'Hiragino Sans';-inkscape-font-specification:HiraginoSans-W2;writing-mode:lr-tb;fill:#000000;fill-opacity:1;fill-rule:nonzero;stroke:none"
             id="text6976"><tspan
               x="0 17"
               y="0"
               sodipodi:role="line"
               id="tspan6978">人間</tspan></text>
</g><path
           d="m 528,348 c 0,15.464 25.5198,28 57,28 31.4802,0 57,-12.536 57,-28 0,-15.464 -25.5198,-28 -57,-28 -31.4802,0 -57,12.536 -57,28 z"
           style="fill:#ffcc66;fill-opacity:1;fill-rule:nonzero;stroke:none"
           id="path6980"
           inkscape:connector-curvature="0" /><g
           id="g6982"
           transform="matrix(7.874016e-5,0,0,-7.874016e-5,528,376)"><path
             d="M 0,355600 C 0,159207.7 324101.2,0 723900,0 c 399799,0 723900,159207.7 723900,355600 0,196392.2 -324101,355600 -723900,355600 C 324101.2,711200 0,551992.2 0,355600 Z"
             style="fill:none;stroke:#ff0000;stroke-width:25400;stroke-linecap:butt;stroke-linejoin:miter;stroke-miterlimit:8;stroke-dasharray:101600, 76200;stroke-dashoffset:0;stroke-opacity:1"
             id="path6984"
             inkscape:connector-curvature="0" /></g><g
           id="g6986"
           transform="translate(546.9559,340.4611)"><text
             transform="scale(1,-1)"
             style="font-variant:normal;font-size:23px;font-family:'Hiragino Sans';-inkscape-font-specification:HiraginoSans-W2;writing-mode:lr-tb;fill:#000000;fill-opacity:1;fill-rule:nonzero;stroke:none"
             id="text6988"><tspan
               x="0 12.9996 25.010201"
               y="0"
               sodipodi:role="line"
               id="tspan6990">ex:</tspan></text>
</g><g
           id="g6992"
           transform="translate(576.9559,340.4611)"><text
             transform="scale(1,-1)"
             style="font-variant:normal;font-size:23px;font-family:'Hiragino Sans';-inkscape-font-specification:HiraginoSans-W2;writing-mode:lr-tb;fill:#000000;fill-opacity:1;fill-rule:nonzero;stroke:none"
             id="text6994"><tspan
               x="0 23"
               y="0"
               sodipodi:role="line"
               id="tspan6996">著者</tspan></text>
</g><path
           d="m 609,136 c 0,16.5685 26.4152,30 59,30 32.5848,0 59,-13.4315 59,-30 0,-16.5685 -26.4152,-30 -59,-30 -32.5848,0 -59,13.4315 -59,30 z"
           style="fill:#ffc8c8;fill-opacity:1;fill-rule:nonzero;stroke:none"
           id="path6998"
           inkscape:connector-curvature="0" /><g
           id="g7000"
           transform="matrix(7.874016e-5,0,0,-7.874016e-5,609,166)"><path
             d="M 0,381000 C 0,170579.5 335473.3,0 749300,0 c 413827,0 749300,170579.5 749300,381000 0,210420.5 -335473,381000 -749300,381000 C 335473.3,762000 0,591420.5 0,381000 Z"
             style="fill:none;stroke:#000000;stroke-width:25400;stroke-linecap:butt;stroke-linejoin:miter;stroke-miterlimit:8;stroke-dasharray:none;stroke-opacity:1"
             id="path7002"
             inkscape:connector-curvature="0" /></g><g
           id="g7004"
           transform="translate(630.662,131.3198)"><text
             transform="scale(1,-1)"
             style="font-variant:normal;font-size:14px;font-family:'Hiragino Sans';-inkscape-font-specification:HiraginoSans-W2;writing-mode:lr-tb;fill:#000000;fill-opacity:1;fill-rule:nonzero;stroke:none"
             id="text7006"><tspan
               x="0 7.9995999 15.0052"
               y="0"
               sodipodi:role="line"
               id="tspan7008">ex:</tspan></text>
</g><g
           id="g7010"
           transform="translate(648.662,131.3198)"><text
             transform="scale(1,-1)"
             style="font-variant:normal;font-size:14px;font-family:'Hiragino Sans';-inkscape-font-specification:HiraginoSans-W2;writing-mode:lr-tb;fill:#000000;fill-opacity:1;fill-rule:nonzero;stroke:none"
             id="text7012"><tspan
               x="0 14 28 42"
               y="0"
               sodipodi:role="line"
               id="tspan7014">福澤諭吉</tspan></text>
</g><path
           d="m 602.2313,138.3312 1.7899,1.7454 -43.4359,44.5457 0.7159,0.6981 43.436,-44.5457 1.7899,1.7453 2.0409,-6.3902 -6.3367,2.2014 z"
           style="fill:#000000;fill-opacity:1;fill-rule:nonzero;stroke:none"
           id="path7016"
           inkscape:connector-curvature="0" /><path
           d="m 442,185 c 0,16.5685 26.6391,30 59.5,30 32.861,0 59.5,-13.4315 59.5,-30 0,-16.5685 -26.639,-30 -59.5,-30 -32.8609,0 -59.5,13.4315 -59.5,30 z"
           style="fill:#ffc8c8;fill-opacity:1;fill-rule:nonzero;stroke:none"
           id="path7018"
           inkscape:connector-curvature="0" /><g
           id="g7020"
           transform="matrix(7.874016e-5,0,0,-7.874016e-5,442,215)"><path
             d="M 0,381000 C 0,170579.5 338316.2,0 755650,0 c 417334,0 755650,170579.5 755650,381000 0,210420.5 -338316,381000 -755650,381000 C 338316.2,762000 0,591420.5 0,381000 Z"
             style="fill:none;stroke:#000000;stroke-width:25400;stroke-linecap:butt;stroke-linejoin:miter;stroke-miterlimit:8;stroke-dasharray:none;stroke-opacity:1"
             id="path7022"
             inkscape:connector-curvature="0" /></g><g
           id="g7024"
           transform="translate(461.1217,181.4063)"><text
             transform="scale(1,-1)"
             style="font-variant:normal;font-size:11px;font-family:'Hiragino Sans';-inkscape-font-specification:HiraginoSans-W2;writing-mode:lr-tb;fill:#000000;fill-opacity:1;fill-rule:nonzero;stroke:none"
             id="text7026"><tspan
               x="0 6.0005002 12.001"
               y="0"
               sodipodi:role="line"
               id="tspan7028">ex:</tspan></text>
</g><g
           id="g7030"
           transform="translate(476.1217,181.4063)"><text
             transform="scale(1,-1)"
             style="font-variant:normal;font-size:11px;font-family:'Hiragino Sans';-inkscape-font-specification:HiraginoSans-W2;writing-mode:lr-tb;fill:#000000;fill-opacity:1;fill-rule:nonzero;stroke:none"
             id="text7032"><tspan
               x="0 11 22 33 44 55"
               y="0"
               sodipodi:role="line"
               id="tspan7034">学門のすゝめ</tspan></text>
</g><path
           d="m 605.9763,129.9424 -1.6305,1.8951 -43.0765,-37.06169 -0.6522,0.75804 43.0766,37.06175 -1.6306,1.8951 6.5049,1.6391 -2.5917,-6.1874 z"
           style="fill:#000000;fill-opacity:1;fill-rule:nonzero;stroke:none"
           id="path7036"
           inkscape:connector-curvature="0" /><path
           d="m 442,95 c 0,16.5685 26.6391,30 59.5,30 C 534.361,125 561,111.5685 561,95 561,78.43146 534.361,65 501.5,65 468.6391,65 442,78.43146 442,95 Z"
           style="fill:#ffc8c8;fill-opacity:1;fill-rule:nonzero;stroke:none"
           id="path7038"
           inkscape:connector-curvature="0" /><g
           id="g7040"
           transform="matrix(7.874016e-5,0,0,-7.874016e-5,442,125)"><path
             d="M 0,381000 C 0,170579.5 338316.2,0 755650,0 c 417334,0 755650,170579.5 755650,381000 0,210420.5 -338316,381000 -755650,381000 C 338316.2,762000 0,591420.5 0,381000 Z"
             style="fill:none;stroke:#000000;stroke-width:25400;stroke-linecap:butt;stroke-linejoin:miter;stroke-miterlimit:8;stroke-dasharray:none;stroke-opacity:1"
             id="path7042"
             inkscape:connector-curvature="0" /></g><g
           id="g7044"
           transform="translate(464.2693,90.34482)"><text
             transform="scale(1,-1)"
             style="font-variant:normal;font-size:14px;font-family:'Hiragino Sans';-inkscape-font-specification:HiraginoSans-W2;writing-mode:lr-tb;fill:#000000;fill-opacity:1;fill-rule:nonzero;stroke:none"
             id="text7046"><tspan
               x="0 7.9995999 15.0052"
               y="0"
               sodipodi:role="line"
               id="tspan7048">ex:</tspan></text>
</g><g
           id="g7050"
           transform="translate(482.2693,90.34482)"><text
             transform="scale(1,-1)"
             style="font-variant:normal;font-size:14px;font-family:'Hiragino Sans';-inkscape-font-specification:HiraginoSans-W2;writing-mode:lr-tb;fill:#000000;fill-opacity:1;fill-rule:nonzero;stroke:none"
             id="text7052"><tspan
               x="0 14 28 42"
               y="0"
               sodipodi:role="line"
               id="tspan7054">民情一新</tspan></text>
</g><g
           id="g7056"
           transform="translate(528.9981,221.2918)"><text
             transform="scale(1,-1)"
             style="font-variant:normal;font-size:14px;font-family:'Hiragino Sans';-inkscape-font-specification:HiraginoSans-W2;writing-mode:lr-tb;fill:#000000;fill-opacity:1;fill-rule:nonzero;stroke:none"
             id="text7058"><tspan
               x="0 7.9995999 15.0052"
               y="0"
               sodipodi:role="line"
               id="tspan7060">ex:</tspan></text>
</g><g
           id="g7062"
           transform="translate(546.9981,221.2918)"><text
             transform="scale(1,-1)"
             style="font-variant:normal;font-size:14px;font-family:'Hiragino Sans';-inkscape-font-specification:HiraginoSans-W2;writing-mode:lr-tb;fill:#000000;fill-opacity:1;fill-rule:nonzero;stroke:none"
             id="text7064"><tspan
               x="0 14"
               y="0"
               sodipodi:role="line"
               id="tspan7066">書籍</tspan></text>
</g><g
           id="g7068"
           transform="translate(528.998,131.2991)"><text
             transform="scale(1,-1)"
             style="font-variant:normal;font-size:14px;font-family:'Hiragino Sans';-inkscape-font-specification:HiraginoSans-W2;writing-mode:lr-tb;fill:#000000;fill-opacity:1;fill-rule:nonzero;stroke:none"
             id="text7070"><tspan
               x="0 7.9995999 15.0052"
               y="0"
               sodipodi:role="line"
               id="tspan7072">ex:</tspan></text>
</g><g
           id="g7074"
           transform="translate(546.998,131.2991)"><text
             transform="scale(1,-1)"
             style="font-variant:normal;font-size:14px;font-family:'Hiragino Sans';-inkscape-font-specification:HiraginoSans-W2;writing-mode:lr-tb;fill:#000000;fill-opacity:1;fill-rule:nonzero;stroke:none"
             id="text7076"><tspan
               x="0 14"
               y="0"
               sodipodi:role="line"
               id="tspan7078">書籍</tspan></text>
</g><g
           id="g7080"
           transform="translate(577.6118,171.8418)"><text
             transform="scale(1,-1)"
             style="font-variant:normal;font-size:14px;font-family:'Hiragino Sans';-inkscape-font-specification:HiraginoSans-W2;writing-mode:lr-tb;fill:#000000;fill-opacity:1;fill-rule:nonzero;stroke:none"
             id="text7082"><tspan
               x="0 7.9995999 15.0052"
               y="0"
               sodipodi:role="line"
               id="tspan7084">ex:</tspan></text>
</g><g
           id="g7086"
           transform="translate(595.6118,171.8418)"><text
             transform="scale(1,-1)"
             style="font-variant:normal;font-size:14px;font-family:'Hiragino Sans';-inkscape-font-specification:HiraginoSans-W2;writing-mode:lr-tb;fill:#000000;fill-opacity:1;fill-rule:nonzero;stroke:none"
             id="text7088"><tspan
               x="0 14"
               y="0"
               sodipodi:role="line"
               id="tspan7090">著者</tspan></text>
</g><g
           id="g7092"
           transform="translate(574.9829,95.36993)"><text
             transform="scale(1,-1)"
             style="font-variant:normal;font-size:14px;font-family:'Hiragino Sans';-inkscape-font-specification:HiraginoSans-W2;writing-mode:lr-tb;fill:#000000;fill-opacity:1;fill-rule:nonzero;stroke:none"
             id="text7094"><tspan
               x="0 7.9995999 15.0052"
               y="0"
               sodipodi:role="line"
               id="tspan7096">ex:</tspan></text>
</g><g
           id="g7098"
           transform="translate(592.9829,95.36993)"><text
             transform="scale(1,-1)"
             style="font-variant:normal;font-size:14px;font-family:'Hiragino Sans';-inkscape-font-specification:HiraginoSans-W2;writing-mode:lr-tb;fill:#000000;fill-opacity:1;fill-rule:nonzero;stroke:none"
             id="text7100"><tspan
               x="0 14"
               y="0"
               sodipodi:role="line"
               id="tspan7102">著者</tspan></text>
</g><g
           id="g7104"
           transform="translate(687.3201,171.8418)"><text
             transform="scale(1,-1)"
             style="font-variant:normal;font-size:14px;font-family:'Hiragino Sans';-inkscape-font-specification:HiraginoSans-W2;writing-mode:lr-tb;fill:#000000;fill-opacity:1;fill-rule:nonzero;stroke:none"
             id="text7106"><tspan
               x="0 7.9995999 15.0052"
               y="0"
               sodipodi:role="line"
               id="tspan7108">ex:</tspan></text>
</g><g
           id="g7110"
           transform="translate(705.3201,171.8418)"><text
             transform="scale(1,-1)"
             style="font-variant:normal;font-size:14px;font-family:'Hiragino Sans';-inkscape-font-specification:HiraginoSans-W2;writing-mode:lr-tb;fill:#000000;fill-opacity:1;fill-rule:nonzero;stroke:none"
             id="text7112"><tspan
               x="0 14"
               y="0"
               sodipodi:role="line"
               id="tspan7114">人間</tspan></text>
</g><path
           d="m 74.5,274.5 326,0 0,-270.000004 -326,0 0,270.000004 z"
           style="fill:#ffffff;fill-opacity:1;fill-rule:nonzero;stroke:none"
           id="path7116"
           inkscape:connector-curvature="0" /><g
           id="g7118"
           transform="matrix(7.874016e-5,0,0,-7.874016e-5,74.5,274.5)"><path
             d="m 0,0 4140200,0 0,3429000 L 0,3429000 0,0 Z"
             style="fill:none;stroke:#ff0000;stroke-width:12700;stroke-linecap:butt;stroke-linejoin:miter;stroke-miterlimit:8;stroke-dasharray:50800, 38100;stroke-dashoffset:0;stroke-opacity:1"
             id="path7120"
             inkscape:connector-curvature="0" /></g><path
           d="m 381.5,153.5 29.0001,0 0,14 27.9999,-28 -27.9999,-28 0,14 -29.0001,0 0,28 z"
           style="fill:#000000;fill-opacity:1;fill-rule:nonzero;stroke:none"
           id="path7122"
           inkscape:connector-curvature="0" /><g
           id="g7124"
           transform="matrix(7.874016e-5,0,0,-7.874016e-5,381.5,167.5)"><path
             d="m 0,177799.8 368300.8,0 L 368300.8,0 723900,355600.4 368300.8,711200 l 0,-177799.8 -368300.8,0 0,-355600.4 z"
             style="fill:none;stroke:#000000;stroke-width:12700;stroke-linecap:butt;stroke-linejoin:miter;stroke-miterlimit:8;stroke-dasharray:none;stroke-opacity:1"
             id="path7126"
             inkscape:connector-curvature="0" /></g></g></g></g></svg>