<?xml version="1.0" encoding="UTF-8" standalone="no"?>
<!-- Created with Inkscape (http://www.inkscape.org/) -->

<svg
   xmlns:dc="http://purl.org/dc/elements/1.1/"
   xmlns:cc="http://creativecommons.org/ns#"
   xmlns:rdf="http://www.w3.org/1999/02/22-rdf-syntax-ns#"
   xmlns:svg="http://www.w3.org/2000/svg"
   xmlns="http://www.w3.org/2000/svg"
   xmlns:sodipodi="http://sodipodi.sourceforge.net/DTD/sodipodi-0.dtd"
   xmlns:inkscape="http://www.inkscape.org/namespaces/inkscape"
   id="svg4793"
   version="1.1"
   inkscape:version="0.91 r13725"
   xml:space="preserve"
   width="932.5"
   height="685"
   viewBox="0 0 932.5 685"
   sodipodi:docname="make_rdfs_class.svg"><metadata
     id="metadata4799"><rdf:RDF><cc:Work
         rdf:about=""><dc:format>image/svg+xml</dc:format><dc:type
           rdf:resource="http://purl.org/dc/dcmitype/StillImage" /><dc:title></dc:title></cc:Work></rdf:RDF></metadata><defs
     id="defs4797"><clipPath
       clipPathUnits="userSpaceOnUse"
       id="clipPath4809"><path
         d="M 4,4 742,4 742,544 4,544 4,4 Z"
         id="path4811"
         inkscape:connector-curvature="0" /></clipPath></defs><sodipodi:namedview
     pagecolor="#ffffff"
     bordercolor="#666666"
     borderopacity="1"
     objecttolerance="10"
     gridtolerance="10"
     guidetolerance="10"
     inkscape:pageopacity="0"
     inkscape:pageshadow="2"
     inkscape:window-width="640"
     inkscape:window-height="480"
     id="namedview4795"
     showgrid="false"
     inkscape:zoom="0.29383378"
     inkscape:cx="466.25"
     inkscape:cy="342.5"
     inkscape:window-x="422"
     inkscape:window-y="163"
     inkscape:window-maximized="0"
     inkscape:current-layer="g4801" /><g
     id="g4801"
     inkscape:groupmode="layer"
     inkscape:label="test"
     transform="matrix(1.25,0,0,-1.25,0,685)"><g
       id="g4803" /><g
       id="g4805"><g
         id="g4807"
         clip-path="url(#clipPath4809)"><path
           d="M 4,544 742,544 742,4 4,4 4,544 Z"
           style="fill:#ffffff;fill-opacity:0;fill-rule:nonzero;stroke:none"
           id="path4813"
           inkscape:connector-curvature="0" /><path
           d="m 74.5,543.5 326,0 0,-269 -326,0 0,269 z"
           style="fill:#ffffff;fill-opacity:1;fill-rule:nonzero;stroke:none"
           id="path4815"
           inkscape:connector-curvature="0" /><g
           id="g4817"
           transform="matrix(7.874016e-5,0,0,-7.874016e-5,74.5,543.5)"><path
             d="m 0,0 4140200,0 0,3416300 L 0,3416300 0,0 Z"
             style="fill:none;stroke:#000000;stroke-width:12700;stroke-linecap:butt;stroke-linejoin:miter;stroke-miterlimit:8;stroke-dasharray:none;stroke-opacity:1"
             id="path4819"
             inkscape:connector-curvature="0" /></g><path
           d="m 74.5,274.5 326,0 0,-270.000004 -326,0 0,270.000004 z"
           style="fill:#ffffff;fill-opacity:1;fill-rule:nonzero;stroke:none"
           id="path4821"
           inkscape:connector-curvature="0" /><g
           id="g4823"
           transform="matrix(7.874016e-5,0,0,-7.874016e-5,74.5,274.5)"><path
             d="m 0,0 4140200,0 0,3429000 L 0,3429000 0,0 Z"
             style="fill:none;stroke:#000000;stroke-width:12700;stroke-linecap:butt;stroke-linejoin:miter;stroke-miterlimit:8;stroke-dasharray:none;stroke-opacity:1"
             id="path4825"
             inkscape:connector-curvature="0" /></g><path
           d="m 21.5,543.5 53,0 0,-269 -53,0 0,269 z"
           style="fill:#ffffff;fill-opacity:1;fill-rule:nonzero;stroke:none"
           id="path4827"
           inkscape:connector-curvature="0" /><g
           id="g4829"
           transform="matrix(7.874016e-5,0,0,-7.874016e-5,21.5,543.5)"><path
             d="m 0,0 673100,0 0,3416300 L 0,3416300 0,0 Z"
             style="fill:none;stroke:#000000;stroke-width:12700;stroke-linecap:butt;stroke-linejoin:miter;stroke-miterlimit:8;stroke-dasharray:none;stroke-opacity:1"
             id="path4831"
             inkscape:connector-curvature="0" /></g><g
           id="g4833"
           transform="matrix(0,-1,1,0,32.88866,458.3543)"><text
             transform="scale(1,-1)"
             style="font-variant:normal;font-size:36px;font-family:'Hiragino Sans';-inkscape-font-specification:HiraginoSans-W2;writing-mode:lr-tb;fill:#000000;fill-opacity:1;fill-rule:nonzero;stroke:#000000;stroke-width:1;stroke-linecap:butt;stroke-linejoin:miter;stroke-miterlimit:10;stroke-dasharray:none;stroke-opacity:1"
             id="text4835"><tspan
               x="0 25.999201 53.006401 74.001602"
               y="0"
               sodipodi:role="line"
               id="tspan4837">RDFS</tspan></text>
</g><path
           d="m 21.5,274.5 53,0 0,-270.000004 -53,0 0,270.000004 z"
           style="fill:#ffffff;fill-opacity:1;fill-rule:nonzero;stroke:none"
           id="path4839"
           inkscape:connector-curvature="0" /><g
           id="g4841"
           transform="matrix(7.874016e-5,0,0,-7.874016e-5,21.5,274.5)"><path
             d="m 0,0 673100,0 0,3429000 L 0,3429000 0,0 Z"
             style="fill:none;stroke:#000000;stroke-width:12700;stroke-linecap:butt;stroke-linejoin:miter;stroke-miterlimit:8;stroke-dasharray:none;stroke-opacity:1"
             id="path4843"
             inkscape:connector-curvature="0" /></g><g
           id="g4845"
           transform="matrix(0,-1,1,0,32.88866,177.0605)"><text
             transform="scale(1,-1)"
             style="font-variant:normal;font-size:36px;font-family:'Hiragino Sans';-inkscape-font-specification:HiraginoSans-W2;writing-mode:lr-tb;fill:#000000;fill-opacity:1;fill-rule:nonzero;stroke:#000000;stroke-width:1;stroke-linecap:butt;stroke-linejoin:miter;stroke-miterlimit:10;stroke-dasharray:none;stroke-opacity:1"
             id="text4847"><tspan
               x="0 25.999201 53.006401"
               y="0"
               sodipodi:role="line"
               id="tspan4849">RDF</tspan></text>
</g><path
           d="m 415.5,543.5 326,0 0,-269 -326,0 0,269 z"
           style="fill:#ffffff;fill-opacity:1;fill-rule:nonzero;stroke:none"
           id="path4851"
           inkscape:connector-curvature="0" /><g
           id="g4853"
           transform="matrix(7.874016e-5,0,0,-7.874016e-5,415.5,543.5)"><path
             d="m 0,0 4140200,0 0,3416300 L 0,3416300 0,0 Z"
             style="fill:none;stroke:#000000;stroke-width:12700;stroke-linecap:butt;stroke-linejoin:miter;stroke-miterlimit:8;stroke-dasharray:none;stroke-opacity:1"
             id="path4855"
             inkscape:connector-curvature="0" /></g><path
           d="m 415.5,274.5 326,0 0,-270.000004 -326,0 0,270.000004 z"
           style="fill:#ffffff;fill-opacity:1;fill-rule:nonzero;stroke:none"
           id="path4857"
           inkscape:connector-curvature="0" /><g
           id="g4859"
           transform="matrix(7.874016e-5,0,0,-7.874016e-5,415.5,274.5)"><path
             d="m 0,0 4140200,0 0,3429000 L 0,3429000 0,0 Z"
             style="fill:none;stroke:#000000;stroke-width:12700;stroke-linecap:butt;stroke-linejoin:miter;stroke-miterlimit:8;stroke-dasharray:none;stroke-opacity:1"
             id="path4861"
             inkscape:connector-curvature="0" /></g><path
           d="m 381.5,423.25 28.5,0 0,14.25 28.5,-28.5 -28.5,-28.5 0,14.25 -28.5,0 0,28.5 z"
           style="fill:#000000;fill-opacity:1;fill-rule:nonzero;stroke:none"
           id="path4863"
           inkscape:connector-curvature="0" /><g
           id="g4865"
           transform="matrix(7.874016e-5,0,0,-7.874016e-5,381.5,437.5)"><path
             d="m 0,180975 361950,0 0,-180975 361950,361950 -361950,361950 0,-180975 -361950,0 0,-361950 z"
             style="fill:none;stroke:#000000;stroke-width:12700;stroke-linecap:butt;stroke-linejoin:miter;stroke-miterlimit:8;stroke-dasharray:none;stroke-opacity:1"
             id="path4867"
             inkscape:connector-curvature="0" /></g><path
           d="m 81,500 118,0 0,-59 -118,0 0,59 z"
           style="fill:#d5fc79;fill-opacity:1;fill-rule:nonzero;stroke:none"
           id="path4869"
           inkscape:connector-curvature="0" /><g
           id="g4871"
           transform="matrix(7.874016e-5,0,0,-7.874016e-5,81,500)"><path
             d="m 0,0 1498600,0 0,749300 L 0,749300 0,0 Z"
             style="fill:none;stroke:#000000;stroke-width:25400;stroke-linecap:butt;stroke-linejoin:miter;stroke-miterlimit:8;stroke-dasharray:none;stroke-opacity:1"
             id="path4873"
             inkscape:connector-curvature="0" /></g><g
           id="g4875"
           transform="translate(81.35945,465.6683)"><text
             transform="scale(1,-1)"
             style="font-variant:normal;font-size:17px;font-family:'Hiragino Sans';-inkscape-font-specification:HiraginoSans-W2;writing-mode:lr-tb;fill:#000000;fill-opacity:1;fill-rule:nonzero;stroke:none"
             id="text4877"><tspan
               x="0 7.0005999 17.996201 24.996799 34.003399 38.012001 50.010601 60.003201 69.009804 79.002403 88.995003 95.995598 105.9882"
               y="0"
               sodipodi:role="line"
               id="tspan4879">rdfs:Resource</tspan></text>
</g><path
           d="m 202.3636,476.6612 1.4591,-2.0301 42.6223,30.6348 0.5836,-0.812 -42.6223,-30.6348 1.4591,-2.03 -6.623,-1.0658 3.1212,5.9379 z"
           style="fill:#000000;fill-opacity:1;fill-rule:nonzero;stroke:none"
           id="path4881"
           inkscape:connector-curvature="0" /><path
           d="m 247,535 118,0 0,-60 -118,0 0,60 z"
           style="fill:#d5fc79;fill-opacity:1;fill-rule:nonzero;stroke:none"
           id="path4883"
           inkscape:connector-curvature="0" /><g
           id="g4885"
           transform="matrix(7.874016e-5,0,0,-7.874016e-5,247,535)"><path
             d="m 0,0 1498600,0 0,762000 L 0,762000 0,0 Z"
             style="fill:none;stroke:#000000;stroke-width:25400;stroke-linecap:butt;stroke-linejoin:miter;stroke-miterlimit:8;stroke-dasharray:none;stroke-opacity:1"
             id="path4887"
             inkscape:connector-curvature="0" /></g><g
           id="g4889"
           transform="translate(277.5898,499.8049)"><text
             transform="scale(1,-1)"
             style="font-variant:normal;font-size:17px;font-family:'Hiragino Sans';-inkscape-font-specification:HiraginoSans-W2;writing-mode:lr-tb;fill:#000000;fill-opacity:1;fill-rule:nonzero;stroke:none"
             id="text4891"><tspan
               x="0 9.9994001 18.9958"
               y="0"
               sodipodi:role="line"
               id="tspan4893">ex:</tspan></text>
</g><g
           id="g4895"
           transform="translate(300.5898,499.8049)"><text
             transform="scale(1,-1)"
             style="font-variant:normal;font-size:17px;font-family:'Hiragino Sans';-inkscape-font-specification:HiraginoSans-W2;writing-mode:lr-tb;fill:#000000;fill-opacity:1;fill-rule:nonzero;stroke:none"
             id="text4897"><tspan
               x="0 17"
               y="0"
               sodipodi:role="line"
               id="tspan4899">書籍</tspan></text>
</g><path
           d="m 205.8654,469.6576 -1.459,-2.0301 42.6222,-30.6347 -0.5836,-0.812 -42.6223,30.6347 -1.4591,-2.03 -3.1212,5.9378 6.623,-1.0657 z"
           style="fill:#000000;fill-opacity:1;fill-rule:nonzero;stroke:none"
           id="path4901"
           inkscape:connector-curvature="0" /><path
           d="m 247,466 118,0 0,-59 -118,0 0,59 z"
           style="fill:#d5fc79;fill-opacity:1;fill-rule:nonzero;stroke:none"
           id="path4903"
           inkscape:connector-curvature="0" /><g
           id="g4905"
           transform="matrix(7.874016e-5,0,0,-7.874016e-5,247,466)"><path
             d="m 0,0 1498600,0 0,749300 L 0,749300 0,0 Z"
             style="fill:none;stroke:#000000;stroke-width:25400;stroke-linecap:butt;stroke-linejoin:miter;stroke-miterlimit:8;stroke-dasharray:none;stroke-opacity:1"
             id="path4907"
             inkscape:connector-curvature="0" /></g><g
           id="g4909"
           transform="translate(277.5898,431.5317)"><text
             transform="scale(1,-1)"
             style="font-variant:normal;font-size:17px;font-family:'Hiragino Sans';-inkscape-font-specification:HiraginoSans-W2;writing-mode:lr-tb;fill:#000000;fill-opacity:1;fill-rule:nonzero;stroke:none"
             id="text4911"><tspan
               x="0 9.9994001 18.9958"
               y="0"
               sodipodi:role="line"
               id="tspan4913">ex:</tspan></text>
</g><g
           id="g4915"
           transform="translate(300.5898,431.5317)"><text
             transform="scale(1,-1)"
             style="font-variant:normal;font-size:17px;font-family:'Hiragino Sans';-inkscape-font-specification:HiraginoSans-W2;writing-mode:lr-tb;fill:#000000;fill-opacity:1;fill-rule:nonzero;stroke:none"
             id="text4917"><tspan
               x="0 17"
               y="0"
               sodipodi:role="line"
               id="tspan4919">人間</tspan></text>
</g><path
           d="m 166,348 c 0,15.464 25.5198,28 57,28 31.4802,0 57,-12.536 57,-28 0,-15.464 -25.5198,-28 -57,-28 -31.4802,0 -57,12.536 -57,28 z"
           style="fill:#ffcc66;fill-opacity:1;fill-rule:nonzero;stroke:none"
           id="path4921"
           inkscape:connector-curvature="0" /><g
           id="g4923"
           transform="matrix(7.874016e-5,0,0,-7.874016e-5,166,376)"><path
             d="M 0,355600 C 0,159207.7 324101.2,0 723900,0 c 399799,0 723900,159207.7 723900,355600 0,196392.2 -324101,355600 -723900,355600 C 324101.2,711200 0,551992.2 0,355600 Z"
             style="fill:none;stroke:#000000;stroke-width:25400;stroke-linecap:butt;stroke-linejoin:miter;stroke-miterlimit:8;stroke-dasharray:none;stroke-opacity:1"
             id="path4925"
             inkscape:connector-curvature="0" /></g><g
           id="g4927"
           transform="translate(185.1311,340.4611)"><text
             transform="scale(1,-1)"
             style="font-variant:normal;font-size:23px;font-family:'Hiragino Sans';-inkscape-font-specification:HiraginoSans-W2;writing-mode:lr-tb;fill:#000000;fill-opacity:1;fill-rule:nonzero;stroke:none"
             id="text4929"><tspan
               x="0 12.9996 25.010201"
               y="0"
               sodipodi:role="line"
               id="tspan4931">ex:</tspan></text>
</g><g
           id="g4933"
           transform="translate(215.1311,340.4611)"><text
             transform="scale(1,-1)"
             style="font-variant:normal;font-size:23px;font-family:'Hiragino Sans';-inkscape-font-specification:HiraginoSans-W2;writing-mode:lr-tb;fill:#000000;fill-opacity:1;fill-rule:nonzero;stroke:none"
             id="text4935"><tspan
               x="0 23"
               y="0"
               sodipodi:role="line"
               id="tspan4937">著者</tspan></text>
</g><path
           d="m 488,491 81,0 0,-40 -81,0 0,40 z"
           style="fill:#d5fc79;fill-opacity:1;fill-rule:nonzero;stroke:none"
           id="path4939"
           inkscape:connector-curvature="0" /><g
           id="g4941"
           transform="matrix(7.874016e-5,0,0,-7.874016e-5,488,491)"><path
             d="m 0,0 1028700,0 0,508000 L 0,508000 0,0 Z"
             style="fill:none;stroke:#000000;stroke-width:25400;stroke-linecap:butt;stroke-linejoin:miter;stroke-miterlimit:8;stroke-dasharray:none;stroke-opacity:1"
             id="path4943"
             inkscape:connector-curvature="0" /></g><g
           id="g4945"
           transform="translate(490.3962,467.1583)"><text
             transform="scale(1,-1)"
             style="font-variant:normal;font-size:11px;font-family:'Hiragino Sans';-inkscape-font-specification:HiraginoSans-W2;writing-mode:lr-tb;fill:#000000;fill-opacity:1;fill-rule:nonzero;stroke:none"
             id="text4947"><tspan
               x="0 4.9994998 12.001 15.9995 22 24.997499 33 39.0005 45.000999 52.002499 59.004002 64.003502 70.003998"
               y="0"
               sodipodi:role="line"
               id="tspan4949">rdfs:Resource</tspan></text>
</g><path
           d="m 569.6165,477.362 2.0522,-1.4277 28.8969,41.5393 0.8209,-0.5711 -28.8969,-41.5392 2.0523,-1.4277 -5.8891,-3.2122 0.9637,6.6386 z"
           style="fill:#000000;fill-opacity:1;fill-rule:nonzero;stroke:none"
           id="path4951"
           inkscape:connector-curvature="0" /><path
           d="m 601,537 81,0 0,-40 -81,0 0,40 z"
           style="fill:#d5fc79;fill-opacity:1;fill-rule:nonzero;stroke:none"
           id="path4953"
           inkscape:connector-curvature="0" /><g
           id="g4955"
           transform="matrix(7.874016e-5,0,0,-7.874016e-5,601,537)"><path
             d="m 0,0 1028700,0 0,508000 L 0,508000 0,0 Z"
             style="fill:none;stroke:#ff0000;stroke-width:25400;stroke-linecap:butt;stroke-linejoin:miter;stroke-miterlimit:8;stroke-dasharray:101600, 76200;stroke-dashoffset:0;stroke-opacity:1"
             id="path4957"
             inkscape:connector-curvature="0" /></g><g
           id="g4959"
           transform="translate(617.5276,513.623)"><text
             transform="scale(1,-1)"
             style="font-variant:normal;font-size:11px;font-family:'Hiragino Sans';-inkscape-font-specification:HiraginoSans-W2;writing-mode:lr-tb;fill:#000000;fill-opacity:1;fill-rule:nonzero;stroke:none"
             id="text4961"><tspan
               x="0 6.0005002 12.001"
               y="0"
               sodipodi:role="line"
               id="tspan4963">ex:</tspan></text>
</g><g
           id="g4965"
           transform="translate(632.5276,513.623)"><text
             transform="scale(1,-1)"
             style="font-variant:normal;font-size:11px;font-family:'Hiragino Sans';-inkscape-font-specification:HiraginoSans-W2;writing-mode:lr-tb;fill:#000000;fill-opacity:1;fill-rule:nonzero;stroke:none"
             id="text4967"><tspan
               x="0 11 22"
               y="0"
               sodipodi:role="line"
               id="tspan4969">啓蒙書</tspan></text>
</g><g
           id="g4971"
           transform="matrix(7.874016e-5,0,0,-7.874016e-5,569.5,472.5)"><path
             d="m 0,27246.01 410505.2,0"
             style="fill:none;stroke:#000000;stroke-width:12700;stroke-linecap:butt;stroke-linejoin:miter;stroke-miterlimit:8;stroke-dasharray:none;stroke-opacity:1"
             id="path4973"
             inkscape:connector-curvature="0" /></g><path
           d="m 601,487 c 0,2.2091 1.7909,4 4.0001,4 l 73,0 c 2.2091,0 4,-1.7909 4,-4 L 682,454.9999 c 0,-2.2091 -1.7909,-4 -4.0001,-4 L 605.0001,451 C 602.7909,451 601,452.7909 601,455 l 0,32 z"
           style="fill:#d5fc79;fill-opacity:1;fill-rule:nonzero;stroke:none"
           id="path4975"
           inkscape:connector-curvature="0" /><g
           id="g4977"
           transform="matrix(7.874016e-5,0,0,-7.874016e-5,601,491)"><path
             d="M 0,50800.39 C 0,22744.35 22744.35,0 50800.77,0 L 977900.8,0 c 28056.2,0 50800.2,22744.35 50800.2,50800.39 l -1,406400.41 c 0,28056 -22744,50800.4 -50800.8,50800.4 L 50800.77,508000 C 22744.35,508000 0,485256 0,457199.6 L 0,50800.39 Z"
             style="fill:none;stroke:#000000;stroke-width:25400;stroke-linecap:butt;stroke-linejoin:miter;stroke-miterlimit:8;stroke-dasharray:none;stroke-opacity:1"
             id="path4979"
             inkscape:connector-curvature="0" /></g><g
           id="g4981"
           transform="translate(622.7126,467.1583)"><text
             transform="scale(1,-1)"
             style="font-variant:normal;font-size:11px;font-family:'Hiragino Sans';-inkscape-font-specification:HiraginoSans-W2;writing-mode:lr-tb;fill:#000000;fill-opacity:1;fill-rule:nonzero;stroke:none"
             id="text4983"><tspan
               x="0 6.0005002 12.001"
               y="0"
               sodipodi:role="line"
               id="tspan4985">ex:</tspan></text>
</g><g
           id="g4987"
           transform="translate(637.7126,467.1583)"><text
             transform="scale(1,-1)"
             style="font-variant:normal;font-size:11px;font-family:'Hiragino Sans';-inkscape-font-specification:HiraginoSans-W2;writing-mode:lr-tb;fill:#000000;fill-opacity:1;fill-rule:nonzero;stroke:none"
             id="text4989"><tspan
               x="0 11"
               y="0"
               sodipodi:role="line"
               id="tspan4991">書籍</tspan></text>
</g><path
           d="m 574.5419,467.511 -2.0523,-1.4276 28.8969,-41.5392 -0.8209,-0.5711 -28.8968,41.5392 -2.0523,-1.4276 -0.9637,6.6386 5.8891,-3.2123 z"
           style="fill:#000000;fill-opacity:1;fill-rule:nonzero;stroke:none"
           id="path4993"
           inkscape:connector-curvature="0" /><path
           d="m 601,444 81,0 0,-40 -81,0 0,40 z"
           style="fill:#d5fc79;fill-opacity:1;fill-rule:nonzero;stroke:none"
           id="path4995"
           inkscape:connector-curvature="0" /><g
           id="g4997"
           transform="matrix(7.874016e-5,0,0,-7.874016e-5,601,444)"><path
             d="m 0,0 1028700,0 0,508000 L 0,508000 0,0 Z"
             style="fill:none;stroke:#000000;stroke-width:25400;stroke-linecap:butt;stroke-linejoin:miter;stroke-miterlimit:8;stroke-dasharray:none;stroke-opacity:1"
             id="path4999"
             inkscape:connector-curvature="0" /></g><g
           id="g5001"
           transform="translate(622.5276,420.6936)"><text
             transform="scale(1,-1)"
             style="font-variant:normal;font-size:11px;font-family:'Hiragino Sans';-inkscape-font-specification:HiraginoSans-W2;writing-mode:lr-tb;fill:#000000;fill-opacity:1;fill-rule:nonzero;stroke:none"
             id="text5003"><tspan
               x="0 6.0005002 12.001"
               y="0"
               sodipodi:role="line"
               id="tspan5005">ex:</tspan></text>
</g><g
           id="g5007"
           transform="translate(637.5276,420.6936)"><text
             transform="scale(1,-1)"
             style="font-variant:normal;font-size:11px;font-family:'Hiragino Sans';-inkscape-font-specification:HiraginoSans-W2;writing-mode:lr-tb;fill:#000000;fill-opacity:1;fill-rule:nonzero;stroke:none"
             id="text5009"><tspan
               x="0 11"
               y="0"
               sodipodi:role="line"
               id="tspan5011">人間</tspan></text>
</g><path
           d="m 528,348 c 0,15.464 25.5198,28 57,28 31.4802,0 57,-12.536 57,-28 0,-15.464 -25.5198,-28 -57,-28 -31.4802,0 -57,12.536 -57,28 z"
           style="fill:#ffcc66;fill-opacity:1;fill-rule:nonzero;stroke:none"
           id="path5013"
           inkscape:connector-curvature="0" /><g
           id="g5015"
           transform="matrix(7.874016e-5,0,0,-7.874016e-5,528,376)"><path
             d="M 0,355600 C 0,159207.7 324101.2,0 723900,0 c 399799,0 723900,159207.7 723900,355600 0,196392.2 -324101,355600 -723900,355600 C 324101.2,711200 0,551992.2 0,355600 Z"
             style="fill:none;stroke:#000000;stroke-width:25400;stroke-linecap:butt;stroke-linejoin:miter;stroke-miterlimit:8;stroke-dasharray:none;stroke-opacity:1"
             id="path5017"
             inkscape:connector-curvature="0" /></g><g
           id="g5019"
           transform="translate(546.9559,340.4611)"><text
             transform="scale(1,-1)"
             style="font-variant:normal;font-size:23px;font-family:'Hiragino Sans';-inkscape-font-specification:HiraginoSans-W2;writing-mode:lr-tb;fill:#000000;fill-opacity:1;fill-rule:nonzero;stroke:none"
             id="text5021"><tspan
               x="0 12.9996 25.010201"
               y="0"
               sodipodi:role="line"
               id="tspan5023">ex:</tspan></text>
</g><g
           id="g5025"
           transform="translate(576.9559,340.4611)"><text
             transform="scale(1,-1)"
             style="font-variant:normal;font-size:23px;font-family:'Hiragino Sans';-inkscape-font-specification:HiraginoSans-W2;writing-mode:lr-tb;fill:#000000;fill-opacity:1;fill-rule:nonzero;stroke:none"
             id="text5027"><tspan
               x="0 23"
               y="0"
               sodipodi:role="line"
               id="tspan5029">著者</tspan></text>
</g><path
           d="m 248,136 c 0,16.5685 26.6391,30 59.5,30 32.8609,0 59.5,-13.4315 59.5,-30 0,-16.5685 -26.6391,-30 -59.5,-30 -32.8609,0 -59.5,13.4315 -59.5,30 z"
           style="fill:#ffc8c8;fill-opacity:1;fill-rule:nonzero;stroke:none"
           id="path5031"
           inkscape:connector-curvature="0" /><g
           id="g5033"
           transform="matrix(7.874016e-5,0,0,-7.874016e-5,248,166)"><path
             d="M 0,381000 C 0,170579.5 338316.2,0 755650,0 c 417334,0 755650,170579.5 755650,381000 0,210420.5 -338316,381000 -755650,381000 C 338316.2,762000 0,591420.5 0,381000 Z"
             style="fill:none;stroke:#000000;stroke-width:25400;stroke-linecap:butt;stroke-linejoin:miter;stroke-miterlimit:8;stroke-dasharray:none;stroke-opacity:1"
             id="path5035"
             inkscape:connector-curvature="0" /></g><g
           id="g5037"
           transform="translate(270.4455,131.3198)"><text
             transform="scale(1,-1)"
             style="font-variant:normal;font-size:14px;font-family:'Hiragino Sans';-inkscape-font-specification:HiraginoSans-W2;writing-mode:lr-tb;fill:#000000;fill-opacity:1;fill-rule:nonzero;stroke:none"
             id="text5039"><tspan
               x="0 7.9995999 15.0052"
               y="0"
               sodipodi:role="line"
               id="tspan5041">ex:</tspan></text>
</g><g
           id="g5043"
           transform="translate(288.4455,131.3198)"><text
             transform="scale(1,-1)"
             style="font-variant:normal;font-size:14px;font-family:'Hiragino Sans';-inkscape-font-specification:HiraginoSans-W2;writing-mode:lr-tb;fill:#000000;fill-opacity:1;fill-rule:nonzero;stroke:none"
             id="text5045"><tspan
               x="0 14 28 42"
               y="0"
               sodipodi:role="line"
               id="tspan5047">福澤諭吉</tspan></text>
</g><path
           d="m 242.0148,138.3312 1.7899,1.7454 -43.436,44.5457 0.716,0.6981 43.4359,-44.5457 1.79,1.7453 2.0409,-6.3902 -6.3367,2.2014 z"
           style="fill:#000000;fill-opacity:1;fill-rule:nonzero;stroke:none"
           id="path5049"
           inkscape:connector-curvature="0" /><path
           d="m 82,185 c 0,16.5685 26.6391,30 59.5,30 32.8609,0 59.5,-13.4315 59.5,-30 0,-16.5685 -26.6391,-30 -59.5,-30 -32.8609,0 -59.5,13.4315 -59.5,30 z"
           style="fill:#ffc8c8;fill-opacity:1;fill-rule:nonzero;stroke:none"
           id="path5051"
           inkscape:connector-curvature="0" /><g
           id="g5053"
           transform="matrix(7.874016e-5,0,0,-7.874016e-5,82,215)"><path
             d="M 0,381000 C 0,170579.5 338316.1,0 755650,0 c 417334,0 755650,170579.5 755650,381000 0,210420.5 -338316,381000 -755650,381000 C 338316.1,762000 0,591420.5 0,381000 Z"
             style="fill:none;stroke:#000000;stroke-width:25400;stroke-linecap:butt;stroke-linejoin:miter;stroke-miterlimit:8;stroke-dasharray:none;stroke-opacity:1"
             id="path5055"
             inkscape:connector-curvature="0" /></g><g
           id="g5057"
           transform="translate(100.9052,181.4063)"><text
             transform="scale(1,-1)"
             style="font-variant:normal;font-size:11px;font-family:'Hiragino Sans';-inkscape-font-specification:HiraginoSans-W2;writing-mode:lr-tb;fill:#000000;fill-opacity:1;fill-rule:nonzero;stroke:none"
             id="text5059"><tspan
               x="0 6.0005002 12.001"
               y="0"
               sodipodi:role="line"
               id="tspan5061">ex:</tspan></text>
</g><g
           id="g5063"
           transform="translate(115.9052,181.4063)"><text
             transform="scale(1,-1)"
             style="font-variant:normal;font-size:11px;font-family:'Hiragino Sans';-inkscape-font-specification:HiraginoSans-W2;writing-mode:lr-tb;fill:#000000;fill-opacity:1;fill-rule:nonzero;stroke:none"
             id="text5065"><tspan
               x="0 11 22 33 44 55"
               y="0"
               sodipodi:role="line"
               id="tspan5067">学門のすゝめ</tspan></text>
</g><path
           d="m 245.7598,129.9424 -1.6305,1.8951 -43.0765,-37.06169 -0.6522,0.75804 43.0765,37.06175 -1.6305,1.8951 6.5049,1.6391 -2.5917,-6.1874 z"
           style="fill:#000000;fill-opacity:1;fill-rule:nonzero;stroke:none"
           id="path5069"
           inkscape:connector-curvature="0" /><path
           d="m 82,95 c 0,16.5685 26.6391,30 59.5,30 C 174.3609,125 201,111.5685 201,95 201,78.43146 174.3609,65 141.5,65 108.6391,65 82,78.43146 82,95 Z"
           style="fill:#ffc8c8;fill-opacity:1;fill-rule:nonzero;stroke:none"
           id="path5071"
           inkscape:connector-curvature="0" /><g
           id="g5073"
           transform="matrix(7.874016e-5,0,0,-7.874016e-5,82,125)"><path
             d="M 0,381000 C 0,170579.5 338316.1,0 755650,0 c 417334,0 755650,170579.5 755650,381000 0,210420.5 -338316,381000 -755650,381000 C 338316.1,762000 0,591420.5 0,381000 Z"
             style="fill:none;stroke:#000000;stroke-width:25400;stroke-linecap:butt;stroke-linejoin:miter;stroke-miterlimit:8;stroke-dasharray:none;stroke-opacity:1"
             id="path5075"
             inkscape:connector-curvature="0" /></g><g
           id="g5077"
           transform="translate(104.0527,90.34482)"><text
             transform="scale(1,-1)"
             style="font-variant:normal;font-size:14px;font-family:'Hiragino Sans';-inkscape-font-specification:HiraginoSans-W2;writing-mode:lr-tb;fill:#000000;fill-opacity:1;fill-rule:nonzero;stroke:none"
             id="text5079"><tspan
               x="0 7.9995999 15.0052"
               y="0"
               sodipodi:role="line"
               id="tspan5081">ex:</tspan></text>
</g><g
           id="g5083"
           transform="translate(122.0527,90.34482)"><text
             transform="scale(1,-1)"
             style="font-variant:normal;font-size:14px;font-family:'Hiragino Sans';-inkscape-font-specification:HiraginoSans-W2;writing-mode:lr-tb;fill:#000000;fill-opacity:1;fill-rule:nonzero;stroke:none"
             id="text5085"><tspan
               x="0 14 28 42"
               y="0"
               sodipodi:role="line"
               id="tspan5087">民情一新</tspan></text>
</g><g
           id="g5089"
           transform="matrix(7.874016e-5,0,0,-7.874016e-5,162.5,238.5)"><path
             d="m 0,0 749300,0 0,304800 L 0,304800 0,0 Z"
             style="fill:none;stroke:#ff0000;stroke-width:12700;stroke-linecap:butt;stroke-linejoin:round;stroke-miterlimit:10;stroke-dasharray:50800, 38100;stroke-dashoffset:0;stroke-opacity:1"
             id="path5091"
             inkscape:connector-curvature="0" /></g><g
           id="g5093"
           transform="translate(168.7816,221.2918)"><text
             transform="scale(1,-1)"
             style="font-variant:normal;font-size:14px;font-family:'Hiragino Sans';-inkscape-font-specification:HiraginoSans-W2;writing-mode:lr-tb;fill:#000000;fill-opacity:1;fill-rule:nonzero;stroke:none"
             id="text5095"><tspan
               x="0 7.9995999 15.0052"
               y="0"
               sodipodi:role="line"
               id="tspan5097">ex:</tspan></text>
</g><g
           id="g5099"
           transform="translate(186.7816,221.2918)"><text
             transform="scale(1,-1)"
             style="font-variant:normal;font-size:14px;font-family:'Hiragino Sans';-inkscape-font-specification:HiraginoSans-W2;writing-mode:lr-tb;fill:#000000;fill-opacity:1;fill-rule:nonzero;stroke:none"
             id="text5101"><tspan
               x="0 14"
               y="0"
               sodipodi:role="line"
               id="tspan5103">書籍</tspan></text>
</g><g
           id="g5105"
           transform="translate(168.7815,131.2991)"><text
             transform="scale(1,-1)"
             style="font-variant:normal;font-size:14px;font-family:'Hiragino Sans';-inkscape-font-specification:HiraginoSans-W2;writing-mode:lr-tb;fill:#000000;fill-opacity:1;fill-rule:nonzero;stroke:none"
             id="text5107"><tspan
               x="0 7.9995999 15.0052"
               y="0"
               sodipodi:role="line"
               id="tspan5109">ex:</tspan></text>
</g><g
           id="g5111"
           transform="translate(186.7815,131.2991)"><text
             transform="scale(1,-1)"
             style="font-variant:normal;font-size:14px;font-family:'Hiragino Sans';-inkscape-font-specification:HiraginoSans-W2;writing-mode:lr-tb;fill:#000000;fill-opacity:1;fill-rule:nonzero;stroke:none"
             id="text5113"><tspan
               x="0 14"
               y="0"
               sodipodi:role="line"
               id="tspan5115">書籍</tspan></text>
</g><g
           id="g5117"
           transform="translate(217.3953,171.8418)"><text
             transform="scale(1,-1)"
             style="font-variant:normal;font-size:14px;font-family:'Hiragino Sans';-inkscape-font-specification:HiraginoSans-W2;writing-mode:lr-tb;fill:#000000;fill-opacity:1;fill-rule:nonzero;stroke:none"
             id="text5119"><tspan
               x="0 7.9995999 15.0052"
               y="0"
               sodipodi:role="line"
               id="tspan5121">ex:</tspan></text>
</g><g
           id="g5123"
           transform="translate(235.3953,171.8418)"><text
             transform="scale(1,-1)"
             style="font-variant:normal;font-size:14px;font-family:'Hiragino Sans';-inkscape-font-specification:HiraginoSans-W2;writing-mode:lr-tb;fill:#000000;fill-opacity:1;fill-rule:nonzero;stroke:none"
             id="text5125"><tspan
               x="0 14"
               y="0"
               sodipodi:role="line"
               id="tspan5127">著者</tspan></text>
</g><g
           id="g5129"
           transform="translate(214.7664,95.36993)"><text
             transform="scale(1,-1)"
             style="font-variant:normal;font-size:14px;font-family:'Hiragino Sans';-inkscape-font-specification:HiraginoSans-W2;writing-mode:lr-tb;fill:#000000;fill-opacity:1;fill-rule:nonzero;stroke:none"
             id="text5131"><tspan
               x="0 7.9995999 15.0052"
               y="0"
               sodipodi:role="line"
               id="tspan5133">ex:</tspan></text>
</g><g
           id="g5135"
           transform="translate(232.7664,95.36993)"><text
             transform="scale(1,-1)"
             style="font-variant:normal;font-size:14px;font-family:'Hiragino Sans';-inkscape-font-specification:HiraginoSans-W2;writing-mode:lr-tb;fill:#000000;fill-opacity:1;fill-rule:nonzero;stroke:none"
             id="text5137"><tspan
               x="0 14"
               y="0"
               sodipodi:role="line"
               id="tspan5139">著者</tspan></text>
</g><g
           id="g5141"
           transform="translate(327.1036,171.8418)"><text
             transform="scale(1,-1)"
             style="font-variant:normal;font-size:14px;font-family:'Hiragino Sans';-inkscape-font-specification:HiraginoSans-W2;writing-mode:lr-tb;fill:#000000;fill-opacity:1;fill-rule:nonzero;stroke:none"
             id="text5143"><tspan
               x="0 7.9995999 15.0052"
               y="0"
               sodipodi:role="line"
               id="tspan5145">ex:</tspan></text>
</g><g
           id="g5147"
           transform="translate(345.1036,171.8418)"><text
             transform="scale(1,-1)"
             style="font-variant:normal;font-size:14px;font-family:'Hiragino Sans';-inkscape-font-specification:HiraginoSans-W2;writing-mode:lr-tb;fill:#000000;fill-opacity:1;fill-rule:nonzero;stroke:none"
             id="text5149"><tspan
               x="0 14"
               y="0"
               sodipodi:role="line"
               id="tspan5151">人間</tspan></text>
</g><path
           d="m 609,136 c 0,16.5685 26.4152,30 59,30 32.5848,0 59,-13.4315 59,-30 0,-16.5685 -26.4152,-30 -59,-30 -32.5848,0 -59,13.4315 -59,30 z"
           style="fill:#ffc8c8;fill-opacity:1;fill-rule:nonzero;stroke:none"
           id="path5153"
           inkscape:connector-curvature="0" /><g
           id="g5155"
           transform="matrix(7.874016e-5,0,0,-7.874016e-5,609,166)"><path
             d="M 0,381000 C 0,170579.5 335473.3,0 749300,0 c 413827,0 749300,170579.5 749300,381000 0,210420.5 -335473,381000 -749300,381000 C 335473.3,762000 0,591420.5 0,381000 Z"
             style="fill:none;stroke:#000000;stroke-width:25400;stroke-linecap:butt;stroke-linejoin:miter;stroke-miterlimit:8;stroke-dasharray:none;stroke-opacity:1"
             id="path5157"
             inkscape:connector-curvature="0" /></g><g
           id="g5159"
           transform="translate(630.662,131.3198)"><text
             transform="scale(1,-1)"
             style="font-variant:normal;font-size:14px;font-family:'Hiragino Sans';-inkscape-font-specification:HiraginoSans-W2;writing-mode:lr-tb;fill:#000000;fill-opacity:1;fill-rule:nonzero;stroke:none"
             id="text5161"><tspan
               x="0 7.9995999 15.0052"
               y="0"
               sodipodi:role="line"
               id="tspan5163">ex:</tspan></text>
</g><g
           id="g5165"
           transform="translate(648.662,131.3198)"><text
             transform="scale(1,-1)"
             style="font-variant:normal;font-size:14px;font-family:'Hiragino Sans';-inkscape-font-specification:HiraginoSans-W2;writing-mode:lr-tb;fill:#000000;fill-opacity:1;fill-rule:nonzero;stroke:none"
             id="text5167"><tspan
               x="0 14 28 42"
               y="0"
               sodipodi:role="line"
               id="tspan5169">福澤諭吉</tspan></text>
</g><path
           d="m 602.2313,138.3312 1.7899,1.7454 -43.4359,44.5457 0.7159,0.6981 43.436,-44.5457 1.7899,1.7453 2.0409,-6.3902 -6.3367,2.2014 z"
           style="fill:#000000;fill-opacity:1;fill-rule:nonzero;stroke:none"
           id="path5171"
           inkscape:connector-curvature="0" /><path
           d="m 442,185 c 0,16.5685 26.6391,30 59.5,30 32.861,0 59.5,-13.4315 59.5,-30 0,-16.5685 -26.639,-30 -59.5,-30 -32.8609,0 -59.5,13.4315 -59.5,30 z"
           style="fill:#ffc8c8;fill-opacity:1;fill-rule:nonzero;stroke:none"
           id="path5173"
           inkscape:connector-curvature="0" /><g
           id="g5175"
           transform="matrix(7.874016e-5,0,0,-7.874016e-5,442,215)"><path
             d="M 0,381000 C 0,170579.5 338316.2,0 755650,0 c 417334,0 755650,170579.5 755650,381000 0,210420.5 -338316,381000 -755650,381000 C 338316.2,762000 0,591420.5 0,381000 Z"
             style="fill:none;stroke:#000000;stroke-width:25400;stroke-linecap:butt;stroke-linejoin:miter;stroke-miterlimit:8;stroke-dasharray:none;stroke-opacity:1"
             id="path5177"
             inkscape:connector-curvature="0" /></g><g
           id="g5179"
           transform="translate(461.1217,181.4063)"><text
             transform="scale(1,-1)"
             style="font-variant:normal;font-size:11px;font-family:'Hiragino Sans';-inkscape-font-specification:HiraginoSans-W2;writing-mode:lr-tb;fill:#000000;fill-opacity:1;fill-rule:nonzero;stroke:none"
             id="text5181"><tspan
               x="0 6.0005002 12.001"
               y="0"
               sodipodi:role="line"
               id="tspan5183">ex:</tspan></text>
</g><g
           id="g5185"
           transform="translate(476.1217,181.4063)"><text
             transform="scale(1,-1)"
             style="font-variant:normal;font-size:11px;font-family:'Hiragino Sans';-inkscape-font-specification:HiraginoSans-W2;writing-mode:lr-tb;fill:#000000;fill-opacity:1;fill-rule:nonzero;stroke:none"
             id="text5187"><tspan
               x="0 11 22 33 44 55"
               y="0"
               sodipodi:role="line"
               id="tspan5189">学門のすゝめ</tspan></text>
</g><path
           d="m 605.9763,129.9424 -1.6305,1.8951 -43.0765,-37.06169 -0.6522,0.75804 43.0766,37.06175 -1.6306,1.8951 6.5049,1.6391 -2.5917,-6.1874 z"
           style="fill:#000000;fill-opacity:1;fill-rule:nonzero;stroke:none"
           id="path5191"
           inkscape:connector-curvature="0" /><path
           d="m 442,95 c 0,16.5685 26.6391,30 59.5,30 C 534.361,125 561,111.5685 561,95 561,78.43146 534.361,65 501.5,65 468.6391,65 442,78.43146 442,95 Z"
           style="fill:#ffc8c8;fill-opacity:1;fill-rule:nonzero;stroke:none"
           id="path5193"
           inkscape:connector-curvature="0" /><g
           id="g5195"
           transform="matrix(7.874016e-5,0,0,-7.874016e-5,442,125)"><path
             d="M 0,381000 C 0,170579.5 338316.2,0 755650,0 c 417334,0 755650,170579.5 755650,381000 0,210420.5 -338316,381000 -755650,381000 C 338316.2,762000 0,591420.5 0,381000 Z"
             style="fill:none;stroke:#000000;stroke-width:25400;stroke-linecap:butt;stroke-linejoin:miter;stroke-miterlimit:8;stroke-dasharray:none;stroke-opacity:1"
             id="path5197"
             inkscape:connector-curvature="0" /></g><g
           id="g5199"
           transform="translate(464.2693,90.34482)"><text
             transform="scale(1,-1)"
             style="font-variant:normal;font-size:14px;font-family:'Hiragino Sans';-inkscape-font-specification:HiraginoSans-W2;writing-mode:lr-tb;fill:#000000;fill-opacity:1;fill-rule:nonzero;stroke:none"
             id="text5201"><tspan
               x="0 7.9995999 15.0052"
               y="0"
               sodipodi:role="line"
               id="tspan5203">ex:</tspan></text>
</g><g
           id="g5205"
           transform="translate(482.2693,90.34482)"><text
             transform="scale(1,-1)"
             style="font-variant:normal;font-size:14px;font-family:'Hiragino Sans';-inkscape-font-specification:HiraginoSans-W2;writing-mode:lr-tb;fill:#000000;fill-opacity:1;fill-rule:nonzero;stroke:none"
             id="text5207"><tspan
               x="0 14 28 42"
               y="0"
               sodipodi:role="line"
               id="tspan5209">民情一新</tspan></text>
</g><g
           id="g5211"
           transform="matrix(7.874016e-5,0,0,-7.874016e-5,522.5,238.5)"><path
             d="m 0,0 927100,0 0,304800 L 0,304800 0,0 Z"
             style="fill:none;stroke:#ff0000;stroke-width:12700;stroke-linecap:butt;stroke-linejoin:round;stroke-miterlimit:10;stroke-dasharray:50800, 38100;stroke-dashoffset:0;stroke-opacity:1"
             id="path5213"
             inkscape:connector-curvature="0" /></g><g
           id="g5215"
           transform="translate(528.9981,221.2918)"><text
             transform="scale(1,-1)"
             style="font-variant:normal;font-size:14px;font-family:'Hiragino Sans';-inkscape-font-specification:HiraginoSans-W2;writing-mode:lr-tb;fill:#000000;fill-opacity:1;fill-rule:nonzero;stroke:none"
             id="text5217"><tspan
               x="0 7.9995999 15.0052"
               y="0"
               sodipodi:role="line"
               id="tspan5219">ex:</tspan></text>
</g><g
           id="g5221"
           transform="translate(546.9981,221.2918)"><text
             transform="scale(1,-1)"
             style="font-variant:normal;font-size:14px;font-family:'Hiragino Sans';-inkscape-font-specification:HiraginoSans-W2;writing-mode:lr-tb;fill:#000000;fill-opacity:1;fill-rule:nonzero;stroke:none"
             id="text5223"><tspan
               x="0 14 28"
               y="0"
               sodipodi:role="line"
               id="tspan5225">啓蒙書</tspan></text>
</g><g
           id="g5227"
           transform="translate(528.998,131.2991)"><text
             transform="scale(1,-1)"
             style="font-variant:normal;font-size:14px;font-family:'Hiragino Sans';-inkscape-font-specification:HiraginoSans-W2;writing-mode:lr-tb;fill:#000000;fill-opacity:1;fill-rule:nonzero;stroke:none"
             id="text5229"><tspan
               x="0 7.9995999 15.0052"
               y="0"
               sodipodi:role="line"
               id="tspan5231">ex:</tspan></text>
</g><g
           id="g5233"
           transform="translate(546.998,131.2991)"><text
             transform="scale(1,-1)"
             style="font-variant:normal;font-size:14px;font-family:'Hiragino Sans';-inkscape-font-specification:HiraginoSans-W2;writing-mode:lr-tb;fill:#000000;fill-opacity:1;fill-rule:nonzero;stroke:none"
             id="text5235"><tspan
               x="0 14"
               y="0"
               sodipodi:role="line"
               id="tspan5237">書籍</tspan></text>
</g><g
           id="g5239"
           transform="translate(577.6118,171.8418)"><text
             transform="scale(1,-1)"
             style="font-variant:normal;font-size:14px;font-family:'Hiragino Sans';-inkscape-font-specification:HiraginoSans-W2;writing-mode:lr-tb;fill:#000000;fill-opacity:1;fill-rule:nonzero;stroke:none"
             id="text5241"><tspan
               x="0 7.9995999 15.0052"
               y="0"
               sodipodi:role="line"
               id="tspan5243">ex:</tspan></text>
</g><g
           id="g5245"
           transform="translate(595.6118,171.8418)"><text
             transform="scale(1,-1)"
             style="font-variant:normal;font-size:14px;font-family:'Hiragino Sans';-inkscape-font-specification:HiraginoSans-W2;writing-mode:lr-tb;fill:#000000;fill-opacity:1;fill-rule:nonzero;stroke:none"
             id="text5247"><tspan
               x="0 14"
               y="0"
               sodipodi:role="line"
               id="tspan5249">著者</tspan></text>
</g><g
           id="g5251"
           transform="translate(574.9829,95.36993)"><text
             transform="scale(1,-1)"
             style="font-variant:normal;font-size:14px;font-family:'Hiragino Sans';-inkscape-font-specification:HiraginoSans-W2;writing-mode:lr-tb;fill:#000000;fill-opacity:1;fill-rule:nonzero;stroke:none"
             id="text5253"><tspan
               x="0 7.9995999 15.0052"
               y="0"
               sodipodi:role="line"
               id="tspan5255">ex:</tspan></text>
</g><g
           id="g5257"
           transform="translate(592.9829,95.36993)"><text
             transform="scale(1,-1)"
             style="font-variant:normal;font-size:14px;font-family:'Hiragino Sans';-inkscape-font-specification:HiraginoSans-W2;writing-mode:lr-tb;fill:#000000;fill-opacity:1;fill-rule:nonzero;stroke:none"
             id="text5259"><tspan
               x="0 14"
               y="0"
               sodipodi:role="line"
               id="tspan5261">著者</tspan></text>
</g><g
           id="g5263"
           transform="translate(687.3201,171.8418)"><text
             transform="scale(1,-1)"
             style="font-variant:normal;font-size:14px;font-family:'Hiragino Sans';-inkscape-font-specification:HiraginoSans-W2;writing-mode:lr-tb;fill:#000000;fill-opacity:1;fill-rule:nonzero;stroke:none"
             id="text5265"><tspan
               x="0 7.9995999 15.0052"
               y="0"
               sodipodi:role="line"
               id="tspan5267">ex:</tspan></text>
</g><g
           id="g5269"
           transform="translate(705.3201,171.8418)"><text
             transform="scale(1,-1)"
             style="font-variant:normal;font-size:14px;font-family:'Hiragino Sans';-inkscape-font-specification:HiraginoSans-W2;writing-mode:lr-tb;fill:#000000;fill-opacity:1;fill-rule:nonzero;stroke:none"
             id="text5271"><tspan
               x="0 14"
               y="0"
               sodipodi:role="line"
               id="tspan5273">人間</tspan></text>
</g><path
           d="m 381.5,153.5 29.0001,0 0,14 27.9999,-28 -27.9999,-28 0,14 -29.0001,0 0,28 z"
           style="fill:#000000;fill-opacity:1;fill-rule:nonzero;stroke:none"
           id="path5275"
           inkscape:connector-curvature="0" /><g
           id="g5277"
           transform="matrix(7.874016e-5,0,0,-7.874016e-5,381.5,167.5)"><path
             d="m 0,177799.8 368300.8,0 L 368300.8,0 723900,355600.4 368300.8,711200 l 0,-177799.8 -368300.8,0 0,-355600.4 z"
             style="fill:none;stroke:#000000;stroke-width:12700;stroke-linecap:butt;stroke-linejoin:miter;stroke-miterlimit:8;stroke-dasharray:none;stroke-opacity:1"
             id="path5279"
             inkscape:connector-curvature="0" /></g></g></g></g></svg>