<?xml version="1.0" encoding="UTF-8" standalone="no"?>
<!-- Created with Inkscape (http://www.inkscape.org/) -->

<svg
   xmlns:dc="http://purl.org/dc/elements/1.1/"
   xmlns:cc="http://creativecommons.org/ns#"
   xmlns:rdf="http://www.w3.org/1999/02/22-rdf-syntax-ns#"
   xmlns:svg="http://www.w3.org/2000/svg"
   xmlns="http://www.w3.org/2000/svg"
   xmlns:sodipodi="http://sodipodi.sourceforge.net/DTD/sodipodi-0.dtd"
   xmlns:inkscape="http://www.inkscape.org/namespaces/inkscape"
   id="svg3889"
   version="1.1"
   inkscape:version="0.91 r13725"
   xml:space="preserve"
   width="932.5"
   height="685"
   viewBox="0 0 932.5 685"
   sodipodi:docname="remove_rdfs_class.svg"><metadata
     id="metadata3895"><rdf:RDF><cc:Work
         rdf:about=""><dc:format>image/svg+xml</dc:format><dc:type
           rdf:resource="http://purl.org/dc/dcmitype/StillImage" /><dc:title></dc:title></cc:Work></rdf:RDF></metadata><defs
     id="defs3893"><clipPath
       clipPathUnits="userSpaceOnUse"
       id="clipPath3905"><path
         d="M 4,4 742,4 742,544 4,544 4,4 Z"
         id="path3907"
         inkscape:connector-curvature="0" /></clipPath></defs><sodipodi:namedview
     pagecolor="#ffffff"
     bordercolor="#666666"
     borderopacity="1"
     objecttolerance="10"
     gridtolerance="10"
     guidetolerance="10"
     inkscape:pageopacity="0"
     inkscape:pageshadow="2"
     inkscape:window-width="1642"
     inkscape:window-height="1162"
     id="namedview3891"
     showgrid="false"
     inkscape:zoom="1.4142136"
     inkscape:cx="427.43743"
     inkscape:cy="357.54832"
     inkscape:window-x="306"
     inkscape:window-y="48"
     inkscape:window-maximized="0"
     inkscape:current-layer="g3897" /><g
     id="g3897"
     inkscape:groupmode="layer"
     inkscape:label="test"
     transform="matrix(1.25,0,0,-1.25,0,685)"><g
       id="g3899" /><g
       id="g3901"><g
         id="g3903"
         clip-path="url(#clipPath3905)"><path
           d="M 4,544 742,544 742,4 4,4 4,544 Z"
           style="fill:#ffffff;fill-opacity:0;fill-rule:nonzero;stroke:none"
           id="path3909"
           inkscape:connector-curvature="0" /><path
           d="m 74.5,543.5 326,0 0,-269 -326,0 0,269 z"
           style="fill:#ffffff;fill-opacity:1;fill-rule:nonzero;stroke:none"
           id="path3911"
           inkscape:connector-curvature="0" /><g
           id="g3913"
           transform="matrix(7.874016e-5,0,0,-7.874016e-5,74.5,543.5)"><path
             d="m 0,0 4140200,0 0,3416300 L 0,3416300 0,0 Z"
             style="fill:none;stroke:#000000;stroke-width:12700;stroke-linecap:butt;stroke-linejoin:miter;stroke-miterlimit:8;stroke-dasharray:none;stroke-opacity:1"
             id="path3915"
             inkscape:connector-curvature="0" /></g><path
           d="m 74.5,274.5 326,0 0,-270.000004 -326,0 0,270.000004 z"
           style="fill:#ffffff;fill-opacity:1;fill-rule:nonzero;stroke:none"
           id="path3917"
           inkscape:connector-curvature="0" /><g
           id="g3919"
           transform="matrix(7.874016e-5,0,0,-7.874016e-5,74.5,274.5)"><path
             d="m 0,0 4140200,0 0,3429000 L 0,3429000 0,0 Z"
             style="fill:none;stroke:#000000;stroke-width:12700;stroke-linecap:butt;stroke-linejoin:miter;stroke-miterlimit:8;stroke-dasharray:none;stroke-opacity:1"
             id="path3921"
             inkscape:connector-curvature="0" /></g><path
           d="m 21.5,543.5 53,0 0,-269 -53,0 0,269 z"
           style="fill:#ffffff;fill-opacity:1;fill-rule:nonzero;stroke:none"
           id="path3923"
           inkscape:connector-curvature="0" /><g
           id="g3925"
           transform="matrix(7.874016e-5,0,0,-7.874016e-5,21.5,543.5)"><path
             d="m 0,0 673100,0 0,3416300 L 0,3416300 0,0 Z"
             style="fill:none;stroke:#000000;stroke-width:12700;stroke-linecap:butt;stroke-linejoin:miter;stroke-miterlimit:8;stroke-dasharray:none;stroke-opacity:1"
             id="path3927"
             inkscape:connector-curvature="0" /></g><g
           id="g3929"
           transform="matrix(0,-1,1,0,32.88866,458.3543)"><text
             transform="scale(1,-1)"
             style="font-variant:normal;font-size:36px;font-family:'Hiragino Sans';-inkscape-font-specification:HiraginoSans-W2;writing-mode:lr-tb;fill:#000000;fill-opacity:1;fill-rule:nonzero;stroke:#000000;stroke-width:1;stroke-linecap:butt;stroke-linejoin:miter;stroke-miterlimit:10;stroke-dasharray:none;stroke-opacity:1"
             id="text3931"><tspan
               x="0 25.999201 53.006401 74.001602"
               y="0"
               sodipodi:role="line"
               id="tspan3933">RDFS</tspan></text>
</g><path
           d="m 21.5,274.5 53,0 0,-270.000004 -53,0 0,270.000004 z"
           style="fill:#ffffff;fill-opacity:1;fill-rule:nonzero;stroke:none"
           id="path3935"
           inkscape:connector-curvature="0" /><g
           id="g3937"
           transform="matrix(7.874016e-5,0,0,-7.874016e-5,21.5,274.5)"><path
             d="m 0,0 673100,0 0,3429000 L 0,3429000 0,0 Z"
             style="fill:none;stroke:#000000;stroke-width:12700;stroke-linecap:butt;stroke-linejoin:miter;stroke-miterlimit:8;stroke-dasharray:none;stroke-opacity:1"
             id="path3939"
             inkscape:connector-curvature="0" /></g><g
           id="g3941"
           transform="matrix(0,-1,1,0,32.88866,177.0605)"><text
             transform="scale(1,-1)"
             style="font-variant:normal;font-size:36px;font-family:'Hiragino Sans';-inkscape-font-specification:HiraginoSans-W2;writing-mode:lr-tb;fill:#000000;fill-opacity:1;fill-rule:nonzero;stroke:#000000;stroke-width:1;stroke-linecap:butt;stroke-linejoin:miter;stroke-miterlimit:10;stroke-dasharray:none;stroke-opacity:1"
             id="text3943"><tspan
               x="0 25.999201 53.006401"
               y="0"
               sodipodi:role="line"
               id="tspan3945">RDF</tspan></text>
</g><path
           d="m 415.5,543.5 326,0 0,-269 -326,0 0,269 z"
           style="fill:#ffffff;fill-opacity:1;fill-rule:nonzero;stroke:none"
           id="path3947"
           inkscape:connector-curvature="0" /><g
           id="g3949"
           transform="matrix(7.874016e-5,0,0,-7.874016e-5,415.5,543.5)"><path
             d="m 0,0 4140200,0 0,3416300 L 0,3416300 0,0 Z"
             style="fill:none;stroke:#000000;stroke-width:12700;stroke-linecap:butt;stroke-linejoin:miter;stroke-miterlimit:8;stroke-dasharray:none;stroke-opacity:1"
             id="path3951"
             inkscape:connector-curvature="0" /></g><path
           d="m 415.5,274.5 326,0 0,-270.000004 -326,0 0,270.000004 z"
           style="fill:#ffffff;fill-opacity:1;fill-rule:nonzero;stroke:none"
           id="path3953"
           inkscape:connector-curvature="0" /><g
           id="g3955"
           transform="matrix(7.874016e-5,0,0,-7.874016e-5,415.5,274.5)"><path
             d="m 0,0 4140200,0 0,3429000 L 0,3429000 0,0 Z"
             style="fill:none;stroke:#000000;stroke-width:12700;stroke-linecap:butt;stroke-linejoin:miter;stroke-miterlimit:8;stroke-dasharray:none;stroke-opacity:1"
             id="path3957"
             inkscape:connector-curvature="0" /></g><path
           d="m 381.5,423.25 28.5,0 0,14.25 28.5,-28.5 -28.5,-28.5 0,14.25 -28.5,0 0,28.5 z"
           style="fill:#000000;fill-opacity:1;fill-rule:nonzero;stroke:none"
           id="path3959"
           inkscape:connector-curvature="0" /><g
           id="g3961"
           transform="matrix(7.874016e-5,0,0,-7.874016e-5,381.5,437.5)"><path
             d="m 0,180975 361950,0 0,-180975 361950,361950 -361950,361950 0,-180975 -361950,0 0,-361950 z"
             style="fill:none;stroke:#000000;stroke-width:12700;stroke-linecap:butt;stroke-linejoin:miter;stroke-miterlimit:8;stroke-dasharray:none;stroke-opacity:1"
             id="path3963"
             inkscape:connector-curvature="0" /></g><path
           d="m 81,500 118,0 0,-59 -118,0 0,59 z"
           style="fill:#d5fc79;fill-opacity:1;fill-rule:nonzero;stroke:none"
           id="path3965"
           inkscape:connector-curvature="0" /><g
           id="g3967"
           transform="matrix(7.874016e-5,0,0,-7.874016e-5,81,500)"><path
             d="m 0,0 1498600,0 0,749300 L 0,749300 0,0 Z"
             style="fill:none;stroke:#000000;stroke-width:25400;stroke-linecap:butt;stroke-linejoin:miter;stroke-miterlimit:8;stroke-dasharray:none;stroke-opacity:1"
             id="path3969"
             inkscape:connector-curvature="0" /></g><g
           id="g3971"
           transform="translate(81.35945,465.6683)"><text
             transform="scale(1,-1)"
             style="font-variant:normal;font-size:17px;font-family:'Hiragino Sans';-inkscape-font-specification:HiraginoSans-W2;writing-mode:lr-tb;fill:#000000;fill-opacity:1;fill-rule:nonzero;stroke:none"
             id="text3973"><tspan
               x="0 7.0005999 17.996201 24.996799 34.003399 38.012001 50.010601 60.003201 69.009804 79.002403 88.995003 95.995598 105.9882"
               y="0"
               sodipodi:role="line"
               id="tspan3975">rdfs:Resource</tspan></text>
</g><path
           d="m 202.3636,476.6612 1.4591,-2.0301 42.6223,30.6348 0.5836,-0.812 -42.6223,-30.6348 1.4591,-2.03 -6.623,-1.0658 3.1212,5.9379 z"
           style="fill:#000000;fill-opacity:1;fill-rule:nonzero;stroke:none"
           id="path3977"
           inkscape:connector-curvature="0" /><path
           d="m 247,535 118,0 0,-60 -118,0 0,60 z"
           style="fill:#d5fc79;fill-opacity:1;fill-rule:nonzero;stroke:none"
           id="path3979"
           inkscape:connector-curvature="0" /><g
           id="g3981"
           transform="matrix(7.874016e-5,0,0,-7.874016e-5,247,535)"><path
             d="m 0,0 1498600,0 0,762000 L 0,762000 0,0 Z"
             style="fill:none;stroke:#ff0000;stroke-width:25400;stroke-linecap:butt;stroke-linejoin:miter;stroke-miterlimit:8;stroke-dasharray:101600, 76200;stroke-dashoffset:0;stroke-opacity:1"
             id="path3983"
             inkscape:connector-curvature="0" /></g><g
           id="g3985"
           transform="translate(277.5898,499.8049)"><text
             transform="scale(1,-1)"
             style="font-variant:normal;font-size:17px;font-family:'Hiragino Sans';-inkscape-font-specification:HiraginoSans-W2;writing-mode:lr-tb;fill:#000000;fill-opacity:1;fill-rule:nonzero;stroke:none"
             id="text3987"><tspan
               x="0 9.9994001 18.9958"
               y="0"
               sodipodi:role="line"
               id="tspan3989">ex:</tspan></text>
</g><g
           id="g3991"
           transform="translate(300.5898,499.8049)"><text
             transform="scale(1,-1)"
             style="font-variant:normal;font-size:17px;font-family:'Hiragino Sans';-inkscape-font-specification:HiraginoSans-W2;writing-mode:lr-tb;fill:#000000;fill-opacity:1;fill-rule:nonzero;stroke:none"
             id="text3993"><tspan
               x="0 17"
               y="0"
               sodipodi:role="line"
               id="tspan3995">書籍</tspan></text>
</g><path
           d="m 205.8654,469.6576 -1.459,-2.0301 42.6222,-30.6347 -0.5836,-0.812 -42.6223,30.6347 -1.4591,-2.03 -3.1212,5.9378 6.623,-1.0657 z"
           style="fill:#000000;fill-opacity:1;fill-rule:nonzero;stroke:none"
           id="path3997"
           inkscape:connector-curvature="0" /><path
           d="m 247,466 118,0 0,-59 -118,0 0,59 z"
           style="fill:#d5fc79;fill-opacity:1;fill-rule:nonzero;stroke:none"
           id="path3999"
           inkscape:connector-curvature="0" /><g
           id="g4001"
           transform="matrix(7.874016e-5,0,0,-7.874016e-5,247,466)"><path
             d="m 0,0 1498600,0 0,749300 L 0,749300 0,0 Z"
             style="fill:none;stroke:#000000;stroke-width:25400;stroke-linecap:butt;stroke-linejoin:miter;stroke-miterlimit:8;stroke-dasharray:none;stroke-opacity:1"
             id="path4003"
             inkscape:connector-curvature="0" /></g><g
           id="g4005"
           transform="translate(277.5898,431.5317)"><text
             transform="scale(1,-1)"
             style="font-variant:normal;font-size:17px;font-family:'Hiragino Sans';-inkscape-font-specification:HiraginoSans-W2;writing-mode:lr-tb;fill:#000000;fill-opacity:1;fill-rule:nonzero;stroke:none"
             id="text4007"><tspan
               x="0 9.9994001 18.9958"
               y="0"
               sodipodi:role="line"
               id="tspan4009">ex:</tspan></text>
</g><g
           id="g4011"
           transform="translate(300.5898,431.5317)"><text
             transform="scale(1,-1)"
             style="font-variant:normal;font-size:17px;font-family:'Hiragino Sans';-inkscape-font-specification:HiraginoSans-W2;writing-mode:lr-tb;fill:#000000;fill-opacity:1;fill-rule:nonzero;stroke:none"
             id="text4013"><tspan
               x="0 17"
               y="0"
               sodipodi:role="line"
               id="tspan4015">人間</tspan></text>
</g><path
           d="m 166,348 c 0,15.464 25.5198,28 57,28 31.4802,0 57,-12.536 57,-28 0,-15.464 -25.5198,-28 -57,-28 -31.4802,0 -57,12.536 -57,28 z"
           style="fill:#ffcc66;fill-opacity:1;fill-rule:nonzero;stroke:none"
           id="path4017"
           inkscape:connector-curvature="0" /><g
           id="g4019"
           transform="matrix(7.874016e-5,0,0,-7.874016e-5,166,376)"><path
             d="M 0,355600 C 0,159207.7 324101.2,0 723900,0 c 399799,0 723900,159207.7 723900,355600 0,196392.2 -324101,355600 -723900,355600 C 324101.2,711200 0,551992.2 0,355600 Z"
             style="fill:none;stroke:#000000;stroke-width:25400;stroke-linecap:butt;stroke-linejoin:miter;stroke-miterlimit:8;stroke-dasharray:none;stroke-opacity:1"
             id="path4021"
             inkscape:connector-curvature="0" /></g><g
           id="g4023"
           transform="translate(185.1311,340.4611)"><text
             transform="scale(1,-1)"
             style="font-variant:normal;font-size:23px;font-family:'Hiragino Sans';-inkscape-font-specification:HiraginoSans-W2;writing-mode:lr-tb;fill:#000000;fill-opacity:1;fill-rule:nonzero;stroke:none"
             id="text4025"><tspan
               x="0 12.9996 25.010201"
               y="0"
               sodipodi:role="line"
               id="tspan4027">ex:</tspan></text>
</g><g
           id="g4029"
           transform="translate(215.1311,340.4611)"><text
             transform="scale(1,-1)"
             style="font-variant:normal;font-size:23px;font-family:'Hiragino Sans';-inkscape-font-specification:HiraginoSans-W2;writing-mode:lr-tb;fill:#000000;fill-opacity:1;fill-rule:nonzero;stroke:none"
             id="text4031"><tspan
               x="0 23"
               y="0"
               sodipodi:role="line"
               id="tspan4033">著者</tspan></text>
</g><path
           d="m 442,500 119,0 0,-59 -119,0 0,59 z"
           style="fill:#d5fc79;fill-opacity:1;fill-rule:nonzero;stroke:none"
           id="path4035"
           inkscape:connector-curvature="0" /><g
           id="g4037"
           transform="matrix(7.874016e-5,0,0,-7.874016e-5,442,500)"><path
             d="m 0,0 1511300,0 0,749300 L 0,749300 0,0 Z"
             style="fill:none;stroke:#000000;stroke-width:25400;stroke-linecap:butt;stroke-linejoin:miter;stroke-miterlimit:8;stroke-dasharray:none;stroke-opacity:1"
             id="path4039"
             inkscape:connector-curvature="0" /></g><g
           id="g4041"
           transform="translate(443.1843,465.6683)"><text
             transform="scale(1,-1)"
             style="font-variant:normal;font-size:17px;font-family:'Hiragino Sans';-inkscape-font-specification:HiraginoSans-W2;writing-mode:lr-tb;fill:#000000;fill-opacity:1;fill-rule:nonzero;stroke:none"
             id="text4043"><tspan
               x="0 7.0005999 17.996201 24.996799 34.003399 38.012001 50.010601 60.003201 69.009804 79.002403 88.995003 95.995598 105.9882"
               y="0"
               sodipodi:role="line"
               id="tspan4045">rdfs:Resource</tspan></text>
</g><path
           d="m 567.5,473.3477 0,-2.5 41.4943,0 0,-1 -41.4943,0 0,-2.5 -6,3 6,3 z"
           style="fill:#000000;fill-opacity:1;fill-rule:nonzero;stroke:none"
           id="path4047"
           inkscape:connector-curvature="0" /><path
           d="m 609,500 118,0 0,-59 -118,0 0,59 z"
           style="fill:#d5fc79;fill-opacity:1;fill-rule:nonzero;stroke:none"
           id="path4049"
           inkscape:connector-curvature="0" /><g
           id="g4051"
           transform="matrix(7.874016e-5,0,0,-7.874016e-5,609,500)"><path
             d="m 0,0 1498600,0 0,749300 L 0,749300 0,0 Z"
             style="fill:none;stroke:#000000;stroke-width:25400;stroke-linecap:butt;stroke-linejoin:miter;stroke-miterlimit:8;stroke-dasharray:none;stroke-opacity:1"
             id="path4053"
             inkscape:connector-curvature="0" /></g><g
           id="g4055"
           transform="translate(639.4146,465.6683)"><text
             transform="scale(1,-1)"
             style="font-variant:normal;font-size:17px;font-family:'Hiragino Sans';-inkscape-font-specification:HiraginoSans-W2;writing-mode:lr-tb;fill:#000000;fill-opacity:1;fill-rule:nonzero;stroke:none"
             id="text4057"><tspan
               x="0 9.9994001 18.9958"
               y="0"
               sodipodi:role="line"
               id="tspan4059">ex:</tspan></text>
</g><g
           id="g4061"
           transform="translate(662.4146,465.6683)"><text
             transform="scale(1,-1)"
             style="font-variant:normal;font-size:17px;font-family:'Hiragino Sans';-inkscape-font-specification:HiraginoSans-W2;writing-mode:lr-tb;fill:#000000;fill-opacity:1;fill-rule:nonzero;stroke:none"
             id="text4063"><tspan
               x="0 17"
               y="0"
               sodipodi:role="line"
               id="tspan4065">人間</tspan></text>
</g><path
           d="m 528,348 c 0,15.464 25.5198,28 57,28 31.4802,0 57,-12.536 57,-28 0,-15.464 -25.5198,-28 -57,-28 -31.4802,0 -57,12.536 -57,28 z"
           style="fill:#ffcc66;fill-opacity:1;fill-rule:nonzero;stroke:none"
           id="path4067"
           inkscape:connector-curvature="0" /><g
           id="g4069"
           transform="matrix(7.874016e-5,0,0,-7.874016e-5,528,376)"><path
             d="M 0,355600 C 0,159207.7 324101.2,0 723900,0 c 399799,0 723900,159207.7 723900,355600 0,196392.2 -324101,355600 -723900,355600 C 324101.2,711200 0,551992.2 0,355600 Z"
             style="fill:none;stroke:#000000;stroke-width:25400;stroke-linecap:butt;stroke-linejoin:miter;stroke-miterlimit:8;stroke-dasharray:none;stroke-opacity:1"
             id="path4071"
             inkscape:connector-curvature="0" /></g><g
           id="g4073"
           transform="translate(546.9559,340.4611)"><text
             transform="scale(1,-1)"
             style="font-variant:normal;font-size:23px;font-family:'Hiragino Sans';-inkscape-font-specification:HiraginoSans-W2;writing-mode:lr-tb;fill:#000000;fill-opacity:1;fill-rule:nonzero;stroke:none"
             id="text4075"><tspan
               x="0 12.9996 25.010201"
               y="0"
               sodipodi:role="line"
               id="tspan4077">ex:</tspan></text>
</g><g
           id="g4079"
           transform="translate(576.9559,340.4611)"><text
             transform="scale(1,-1)"
             style="font-variant:normal;font-size:23px;font-family:'Hiragino Sans';-inkscape-font-specification:HiraginoSans-W2;writing-mode:lr-tb;fill:#000000;fill-opacity:1;fill-rule:nonzero;stroke:none"
             id="text4081"><tspan
               x="0 23"
               y="0"
               sodipodi:role="line"
               id="tspan4083">著者</tspan></text>
</g><path
           d="m 248,136 c 0,16.5685 26.6391,30 59.5,30 32.8609,0 59.5,-13.4315 59.5,-30 0,-16.5685 -26.6391,-30 -59.5,-30 -32.8609,0 -59.5,13.4315 -59.5,30 z"
           style="fill:#ffc8c8;fill-opacity:1;fill-rule:nonzero;stroke:none"
           id="path4085"
           inkscape:connector-curvature="0" /><g
           id="g4087"
           transform="matrix(7.874016e-5,0,0,-7.874016e-5,248,166)"><path
             d="M 0,381000 C 0,170579.5 338316.2,0 755650,0 c 417334,0 755650,170579.5 755650,381000 0,210420.5 -338316,381000 -755650,381000 C 338316.2,762000 0,591420.5 0,381000 Z"
             style="fill:none;stroke:#000000;stroke-width:25400;stroke-linecap:butt;stroke-linejoin:miter;stroke-miterlimit:8;stroke-dasharray:none;stroke-opacity:1"
             id="path4089"
             inkscape:connector-curvature="0" /></g><g
           id="g4091"
           transform="translate(270.4455,131.3198)"><text
             transform="scale(1,-1)"
             style="font-variant:normal;font-size:14px;font-family:'Hiragino Sans';-inkscape-font-specification:HiraginoSans-W2;writing-mode:lr-tb;fill:#000000;fill-opacity:1;fill-rule:nonzero;stroke:none"
             id="text4093"><tspan
               x="0 7.9995999 15.0052"
               y="0"
               sodipodi:role="line"
               id="tspan4095">ex:</tspan></text>
</g><g
           id="g4097"
           transform="translate(288.4455,131.3198)"><text
             transform="scale(1,-1)"
             style="font-variant:normal;font-size:14px;font-family:'Hiragino Sans';-inkscape-font-specification:HiraginoSans-W2;writing-mode:lr-tb;fill:#000000;fill-opacity:1;fill-rule:nonzero;stroke:none"
             id="text4099"><tspan
               x="0 14 28 42"
               y="0"
               sodipodi:role="line"
               id="tspan4101">福澤諭吉</tspan></text>
</g><path
           d="m 242.0148,138.3312 1.7899,1.7454 -43.436,44.5457 0.716,0.6981 43.4359,-44.5457 1.79,1.7453 2.0409,-6.3902 -6.3367,2.2014 z"
           style="fill:#000000;fill-opacity:1;fill-rule:nonzero;stroke:none"
           id="path4103"
           inkscape:connector-curvature="0" /><path
           d="m 82,185 c 0,16.5685 26.6391,30 59.5,30 32.8609,0 59.5,-13.4315 59.5,-30 0,-16.5685 -26.6391,-30 -59.5,-30 -32.8609,0 -59.5,13.4315 -59.5,30 z"
           style="fill:#ffc8c8;fill-opacity:1;fill-rule:nonzero;stroke:none"
           id="path4105"
           inkscape:connector-curvature="0" /><g
           id="g4107"
           transform="matrix(7.874016e-5,0,0,-7.874016e-5,82,215)"><path
             d="M 0,381000 C 0,170579.5 338316.1,0 755650,0 c 417334,0 755650,170579.5 755650,381000 0,210420.5 -338316,381000 -755650,381000 C 338316.1,762000 0,591420.5 0,381000 Z"
             style="fill:none;stroke:#000000;stroke-width:25400;stroke-linecap:butt;stroke-linejoin:miter;stroke-miterlimit:8;stroke-dasharray:none;stroke-opacity:1"
             id="path4109"
             inkscape:connector-curvature="0" /></g><g
           id="g4111"
           transform="translate(100.9052,181.4063)"><text
             transform="scale(1,-1)"
             style="font-variant:normal;font-size:11px;font-family:'Hiragino Sans';-inkscape-font-specification:HiraginoSans-W2;writing-mode:lr-tb;fill:#000000;fill-opacity:1;fill-rule:nonzero;stroke:none"
             id="text4113"><tspan
               x="0 6.0005002 12.001"
               y="0"
               sodipodi:role="line"
               id="tspan4115">ex:</tspan></text>
</g><g
           id="g4117"
           transform="translate(115.9052,181.4063)"><text
             transform="scale(1,-1)"
             style="font-variant:normal;font-size:11px;font-family:'Hiragino Sans';-inkscape-font-specification:HiraginoSans-W2;writing-mode:lr-tb;fill:#000000;fill-opacity:1;fill-rule:nonzero;stroke:none"
             id="text4119"><tspan
               x="0 11 22 33 44 55"
               y="0"
               sodipodi:role="line"
               id="tspan4121">学門のすゝめ</tspan></text>
</g><path
           d="m 245.7598,129.9424 -1.6305,1.8951 -43.0765,-37.06169 -0.6522,0.75804 43.0765,37.06175 -1.6305,1.8951 6.5049,1.6391 -2.5917,-6.1874 z"
           style="fill:#000000;fill-opacity:1;fill-rule:nonzero;stroke:none"
           id="path4123"
           inkscape:connector-curvature="0" /><path
           d="m 82,95 c 0,16.5685 26.6391,30 59.5,30 C 174.3609,125 201,111.5685 201,95 201,78.43146 174.3609,65 141.5,65 108.6391,65 82,78.43146 82,95 Z"
           style="fill:#ffc8c8;fill-opacity:1;fill-rule:nonzero;stroke:none"
           id="path4125"
           inkscape:connector-curvature="0" /><g
           id="g4127"
           transform="matrix(7.874016e-5,0,0,-7.874016e-5,82,125)"><path
             d="M 0,381000 C 0,170579.5 338316.1,0 755650,0 c 417334,0 755650,170579.5 755650,381000 0,210420.5 -338316,381000 -755650,381000 C 338316.1,762000 0,591420.5 0,381000 Z"
             style="fill:none;stroke:#000000;stroke-width:25400;stroke-linecap:butt;stroke-linejoin:miter;stroke-miterlimit:8;stroke-dasharray:none;stroke-opacity:1"
             id="path4129"
             inkscape:connector-curvature="0" /></g><g
           id="g4131"
           transform="translate(104.0527,90.34482)"><text
             transform="scale(1,-1)"
             style="font-variant:normal;font-size:14px;font-family:'Hiragino Sans';-inkscape-font-specification:HiraginoSans-W2;writing-mode:lr-tb;fill:#000000;fill-opacity:1;fill-rule:nonzero;stroke:none"
             id="text4133"><tspan
               x="0 7.9995999 15.0052"
               y="0"
               sodipodi:role="line"
               id="tspan4135">ex:</tspan></text>
</g><g
           id="g4137"
           transform="translate(122.0527,90.34482)"><text
             transform="scale(1,-1)"
             style="font-variant:normal;font-size:14px;font-family:'Hiragino Sans';-inkscape-font-specification:HiraginoSans-W2;writing-mode:lr-tb;fill:#000000;fill-opacity:1;fill-rule:nonzero;stroke:none"
             id="text4139"><tspan
               x="0 14 28 42"
               y="0"
               sodipodi:role="line"
               id="tspan4141">民情一新</tspan></text>
</g><g
           id="g4143"
           transform="translate(168.7816,221.2918)"><text
             transform="scale(1,-1)"
             style="font-variant:normal;font-size:14px;font-family:'Hiragino Sans';-inkscape-font-specification:HiraginoSans-W2;writing-mode:lr-tb;fill:#000000;fill-opacity:1;fill-rule:nonzero;stroke:none"
             id="text4145"><tspan
               x="0 7.9995999 15.0052"
               y="0"
               sodipodi:role="line"
               id="tspan4147">ex:</tspan></text>
</g><g
           id="g4149"
           transform="translate(186.7816,221.2918)"><text
             transform="scale(1,-1)"
             style="font-variant:normal;font-size:14px;font-family:'Hiragino Sans';-inkscape-font-specification:HiraginoSans-W2;writing-mode:lr-tb;fill:#000000;fill-opacity:1;fill-rule:nonzero;stroke:none"
             id="text4151"><tspan
               x="0 14"
               y="0"
               sodipodi:role="line"
               id="tspan4153">書籍</tspan></text>
</g><g
           id="g4155"
           transform="translate(168.7815,131.2991)"><text
             transform="scale(1,-1)"
             style="font-variant:normal;font-size:14px;font-family:'Hiragino Sans';-inkscape-font-specification:HiraginoSans-W2;writing-mode:lr-tb;fill:#000000;fill-opacity:1;fill-rule:nonzero;stroke:none"
             id="text4157"><tspan
               x="0 7.9995999 15.0052"
               y="0"
               sodipodi:role="line"
               id="tspan4159">ex:</tspan></text>
</g><g
           id="g4161"
           transform="translate(186.7815,131.2991)"><text
             transform="scale(1,-1)"
             style="font-variant:normal;font-size:14px;font-family:'Hiragino Sans';-inkscape-font-specification:HiraginoSans-W2;writing-mode:lr-tb;fill:#000000;fill-opacity:1;fill-rule:nonzero;stroke:none"
             id="text4163"><tspan
               x="0 14"
               y="0"
               sodipodi:role="line"
               id="tspan4165">書籍</tspan></text>
</g><g
           id="g4167"
           transform="translate(217.3953,171.8418)"><text
             transform="scale(1,-1)"
             style="font-variant:normal;font-size:14px;font-family:'Hiragino Sans';-inkscape-font-specification:HiraginoSans-W2;writing-mode:lr-tb;fill:#000000;fill-opacity:1;fill-rule:nonzero;stroke:none"
             id="text4169"><tspan
               x="0 7.9995999 15.0052"
               y="0"
               sodipodi:role="line"
               id="tspan4171">ex:</tspan></text>
</g><g
           id="g4173"
           transform="translate(235.3953,171.8418)"><text
             transform="scale(1,-1)"
             style="font-variant:normal;font-size:14px;font-family:'Hiragino Sans';-inkscape-font-specification:HiraginoSans-W2;writing-mode:lr-tb;fill:#000000;fill-opacity:1;fill-rule:nonzero;stroke:none"
             id="text4175"><tspan
               x="0 14"
               y="0"
               sodipodi:role="line"
               id="tspan4177">著者</tspan></text>
</g><g
           id="g4179"
           transform="translate(214.7664,95.36993)"><text
             transform="scale(1,-1)"
             style="font-variant:normal;font-size:14px;font-family:'Hiragino Sans';-inkscape-font-specification:HiraginoSans-W2;writing-mode:lr-tb;fill:#000000;fill-opacity:1;fill-rule:nonzero;stroke:none"
             id="text4181"><tspan
               x="0 7.9995999 15.0052"
               y="0"
               sodipodi:role="line"
               id="tspan4183">ex:</tspan></text>
</g><g
           id="g4185"
           transform="translate(232.7664,95.36993)"><text
             transform="scale(1,-1)"
             style="font-variant:normal;font-size:14px;font-family:'Hiragino Sans';-inkscape-font-specification:HiraginoSans-W2;writing-mode:lr-tb;fill:#000000;fill-opacity:1;fill-rule:nonzero;stroke:none"
             id="text4187"><tspan
               x="0 14"
               y="0"
               sodipodi:role="line"
               id="tspan4189">著者</tspan></text>
</g><g
           id="g4191"
           transform="translate(327.1036,171.8418)"><text
             transform="scale(1,-1)"
             style="font-variant:normal;font-size:14px;font-family:'Hiragino Sans';-inkscape-font-specification:HiraginoSans-W2;writing-mode:lr-tb;fill:#000000;fill-opacity:1;fill-rule:nonzero;stroke:none"
             id="text4193"><tspan
               x="0 7.9995999 15.0052"
               y="0"
               sodipodi:role="line"
               id="tspan4195">ex:</tspan></text>
</g><g
           id="g4197"
           transform="translate(345.1036,171.8418)"><text
             transform="scale(1,-1)"
             style="font-variant:normal;font-size:14px;font-family:'Hiragino Sans';-inkscape-font-specification:HiraginoSans-W2;writing-mode:lr-tb;fill:#000000;fill-opacity:1;fill-rule:nonzero;stroke:none"
             id="text4199"><tspan
               x="0 14"
               y="0"
               sodipodi:role="line"
               id="tspan4201">人間</tspan></text>
</g><path
           d="m 609,136 c 0,16.5685 26.4152,30 59,30 32.5848,0 59,-13.4315 59,-30 0,-16.5685 -26.4152,-30 -59,-30 -32.5848,0 -59,13.4315 -59,30 z"
           style="fill:#ffc8c8;fill-opacity:1;fill-rule:nonzero;stroke:none"
           id="path4203"
           inkscape:connector-curvature="0" /><g
           id="g4205"
           transform="matrix(7.874016e-5,0,0,-7.874016e-5,609,166)"><path
             d="M 0,381000 C 0,170579.5 335473.3,0 749300,0 c 413827,0 749300,170579.5 749300,381000 0,210420.5 -335473,381000 -749300,381000 C 335473.3,762000 0,591420.5 0,381000 Z"
             style="fill:none;stroke:#000000;stroke-width:25400;stroke-linecap:butt;stroke-linejoin:miter;stroke-miterlimit:8;stroke-dasharray:none;stroke-opacity:1"
             id="path4207"
             inkscape:connector-curvature="0" /></g><g
           id="g4209"
           transform="translate(630.662,131.3198)"><text
             transform="scale(1,-1)"
             style="font-variant:normal;font-size:14px;font-family:'Hiragino Sans';-inkscape-font-specification:HiraginoSans-W2;writing-mode:lr-tb;fill:#000000;fill-opacity:1;fill-rule:nonzero;stroke:none"
             id="text4211"><tspan
               x="0 7.9995999 15.0052"
               y="0"
               sodipodi:role="line"
               id="tspan4213">ex:</tspan></text>
</g><g
           id="g4215"
           transform="translate(648.662,131.3198)"><text
             transform="scale(1,-1)"
             style="font-variant:normal;font-size:14px;font-family:'Hiragino Sans';-inkscape-font-specification:HiraginoSans-W2;writing-mode:lr-tb;fill:#000000;fill-opacity:1;fill-rule:nonzero;stroke:none"
             id="text4217"><tspan
               x="0 14 28 42"
               y="0"
               sodipodi:role="line"
               id="tspan4219">福澤諭吉</tspan></text>
</g><path
           d="m 602.2313,138.3312 1.7899,1.7454 -43.4359,44.5457 0.7159,0.6981 43.436,-44.5457 1.7899,1.7453 2.0409,-6.3902 -6.3367,2.2014 z"
           style="fill:#000000;fill-opacity:1;fill-rule:nonzero;stroke:none"
           id="path4221"
           inkscape:connector-curvature="0" /><path
           d="m 442,185 c 0,16.5685 26.6391,30 59.5,30 32.861,0 59.5,-13.4315 59.5,-30 0,-16.5685 -26.639,-30 -59.5,-30 -32.8609,0 -59.5,13.4315 -59.5,30 z"
           style="fill:#ffc8c8;fill-opacity:1;fill-rule:nonzero;stroke:none"
           id="path4223"
           inkscape:connector-curvature="0" /><g
           id="g4225"
           transform="matrix(7.874016e-5,0,0,-7.874016e-5,442,215)"><path
             d="M 0,381000 C 0,170579.5 338316.2,0 755650,0 c 417334,0 755650,170579.5 755650,381000 0,210420.5 -338316,381000 -755650,381000 C 338316.2,762000 0,591420.5 0,381000 Z"
             style="fill:none;stroke:#000000;stroke-width:25400;stroke-linecap:butt;stroke-linejoin:miter;stroke-miterlimit:8;stroke-dasharray:none;stroke-opacity:1"
             id="path4227"
             inkscape:connector-curvature="0" /></g><g
           id="g4229"
           transform="translate(461.1217,181.4063)"><text
             transform="scale(1,-1)"
             style="font-variant:normal;font-size:11px;font-family:'Hiragino Sans';-inkscape-font-specification:HiraginoSans-W2;writing-mode:lr-tb;fill:#000000;fill-opacity:1;fill-rule:nonzero;stroke:none"
             id="text4231"><tspan
               x="0 6.0005002 12.001"
               y="0"
               sodipodi:role="line"
               id="tspan4233">ex:</tspan></text>
</g><g
           id="g4235"
           transform="translate(476.1217,181.4063)"><text
             transform="scale(1,-1)"
             style="font-variant:normal;font-size:11px;font-family:'Hiragino Sans';-inkscape-font-specification:HiraginoSans-W2;writing-mode:lr-tb;fill:#000000;fill-opacity:1;fill-rule:nonzero;stroke:none"
             id="text4237"><tspan
               x="0 11 22 33 44 55"
               y="0"
               sodipodi:role="line"
               id="tspan4239">学門のすゝめ</tspan></text>
</g><path
           d="m 605.9763,129.9424 -1.6305,1.8951 -43.0765,-37.06169 -0.6522,0.75804 43.0766,37.06175 -1.6306,1.8951 6.5049,1.6391 -2.5917,-6.1874 z"
           style="fill:#000000;fill-opacity:1;fill-rule:nonzero;stroke:none"
           id="path4241"
           inkscape:connector-curvature="0" /><path
           d="m 442,95 c 0,16.5685 26.6391,30 59.5,30 C 534.361,125 561,111.5685 561,95 561,78.43146 534.361,65 501.5,65 468.6391,65 442,78.43146 442,95 Z"
           style="fill:#ffc8c8;fill-opacity:1;fill-rule:nonzero;stroke:none"
           id="path4243"
           inkscape:connector-curvature="0" /><g
           id="g4245"
           transform="matrix(7.874016e-5,0,0,-7.874016e-5,442,125)"><path
             d="M 0,381000 C 0,170579.5 338316.2,0 755650,0 c 417334,0 755650,170579.5 755650,381000 0,210420.5 -338316,381000 -755650,381000 C 338316.2,762000 0,591420.5 0,381000 Z"
             style="fill:none;stroke:#000000;stroke-width:25400;stroke-linecap:butt;stroke-linejoin:miter;stroke-miterlimit:8;stroke-dasharray:none;stroke-opacity:1"
             id="path4247"
             inkscape:connector-curvature="0" /></g><g
           id="g4249"
           transform="translate(464.2693,90.34482)"><text
             transform="scale(1,-1)"
             style="font-variant:normal;font-size:14px;font-family:'Hiragino Sans';-inkscape-font-specification:HiraginoSans-W2;writing-mode:lr-tb;fill:#000000;fill-opacity:1;fill-rule:nonzero;stroke:none"
             id="text4251"><tspan
               x="0 7.9995999 15.0052"
               y="0"
               sodipodi:role="line"
               id="tspan4253">ex:</tspan></text>
</g><g
           id="g4255"
           transform="translate(482.2693,90.34482)"><text
             transform="scale(1,-1)"
             style="font-variant:normal;font-size:14px;font-family:'Hiragino Sans';-inkscape-font-specification:HiraginoSans-W2;writing-mode:lr-tb;fill:#000000;fill-opacity:1;fill-rule:nonzero;stroke:none"
             id="text4257"><tspan
               x="0 14 28 42"
               y="0"
               sodipodi:role="line"
               id="tspan4259">民情一新</tspan></text>
</g><g
           id="g4261"
           transform="matrix(7.874016e-5,0,0,-7.874016e-5,522.5,238.5)"><path
             d="m 0,0 762000,0 0,304800 L 0,304800 0,0 Z"
             style="fill:none;stroke:#ff0000;stroke-width:12700;stroke-linecap:butt;stroke-linejoin:round;stroke-miterlimit:10;stroke-dasharray:50800, 38100;stroke-dashoffset:0;stroke-opacity:1"
             id="path4263"
             inkscape:connector-curvature="0" /></g><g
           id="g4265"
           transform="translate(528.9981,221.2918)"><text
             transform="scale(1,-1)"
             style="font-variant:normal;font-size:14px;font-family:'Hiragino Sans';-inkscape-font-specification:HiraginoSans-W2;writing-mode:lr-tb;fill:#ffffff;fill-opacity:1;fill-rule:nonzero;stroke:none"
             id="text4267"><tspan
               x="0 7.9995999 15.0052"
               y="0"
               sodipodi:role="line"
               id="tspan4269">ex:</tspan></text>
</g><g
           id="g4271"
           transform="translate(546.9981,221.2918)"><text
             transform="scale(1,-1)"
             style="font-variant:normal;font-size:14px;font-family:'Hiragino Sans';-inkscape-font-specification:HiraginoSans-W2;writing-mode:lr-tb;fill:#ffffff;fill-opacity:1;fill-rule:nonzero;stroke:none"
             id="text4273"><tspan
               x="0 14"
               y="0"
               sodipodi:role="line"
               id="tspan4275">書物</tspan></text>
</g><g
           id="g4277"
           transform="matrix(7.874016e-5,0,0,-7.874016e-5,522.5,148.5)"><path
             d="m 0,0 762000,0 0,304800 L 0,304800 0,0 Z"
             style="fill:none;stroke:#ff0000;stroke-width:12700;stroke-linecap:butt;stroke-linejoin:round;stroke-miterlimit:10;stroke-dasharray:50800, 38100;stroke-dashoffset:0;stroke-opacity:1"
             id="path4279"
             inkscape:connector-curvature="0" /></g><g
           id="g4281"
           transform="translate(528.998,131.2991)"><text
             transform="scale(1,-1)"
             style="font-variant:normal;font-size:14px;font-family:'Hiragino Sans';-inkscape-font-specification:HiraginoSans-W2;writing-mode:lr-tb;fill:#ffffff;fill-opacity:1;fill-rule:nonzero;stroke:none"
             id="text4283"><tspan
               x="0 7.9995999 15.0052"
               y="0"
               sodipodi:role="line"
               id="tspan4285">ex:</tspan></text>
</g><g
           id="g4287"
           transform="translate(546.998,131.2991)"><text
             transform="scale(1,-1)"
             style="font-variant:normal;font-size:14px;font-family:'Hiragino Sans';-inkscape-font-specification:HiraginoSans-W2;writing-mode:lr-tb;fill:#ffffff;fill-opacity:1;fill-rule:nonzero;stroke:none"
             id="text4289"><tspan
               x="0 14"
               y="0"
               sodipodi:role="line"
               id="tspan4291">書物</tspan></text>
</g><g
           id="g4293"
           transform="translate(577.6118,171.8418)"><text
             transform="scale(1,-1)"
             style="font-variant:normal;font-size:14px;font-family:'Hiragino Sans';-inkscape-font-specification:HiraginoSans-W2;writing-mode:lr-tb;fill:#000000;fill-opacity:1;fill-rule:nonzero;stroke:none"
             id="text4295"><tspan
               x="0 7.9995999 15.0052"
               y="0"
               sodipodi:role="line"
               id="tspan4297">ex:</tspan></text>
</g><g
           id="g4299"
           transform="translate(595.6118,171.8418)"><text
             transform="scale(1,-1)"
             style="font-variant:normal;font-size:14px;font-family:'Hiragino Sans';-inkscape-font-specification:HiraginoSans-W2;writing-mode:lr-tb;fill:#000000;fill-opacity:1;fill-rule:nonzero;stroke:none"
             id="text4301"><tspan
               x="0 14"
               y="0"
               sodipodi:role="line"
               id="tspan4303">著者</tspan></text>
</g><g
           id="g4305"
           transform="translate(574.9829,95.36993)"><text
             transform="scale(1,-1)"
             style="font-variant:normal;font-size:14px;font-family:'Hiragino Sans';-inkscape-font-specification:HiraginoSans-W2;writing-mode:lr-tb;fill:#000000;fill-opacity:1;fill-rule:nonzero;stroke:none"
             id="text4307"><tspan
               x="0 7.9995999 15.0052"
               y="0"
               sodipodi:role="line"
               id="tspan4309">ex:</tspan></text>
</g><g
           id="g4311"
           transform="translate(592.9829,95.36993)"><text
             transform="scale(1,-1)"
             style="font-variant:normal;font-size:14px;font-family:'Hiragino Sans';-inkscape-font-specification:HiraginoSans-W2;writing-mode:lr-tb;fill:#000000;fill-opacity:1;fill-rule:nonzero;stroke:none"
             id="text4313"><tspan
               x="0 14"
               y="0"
               sodipodi:role="line"
               id="tspan4315">著者</tspan></text>
</g><g
           id="g4317"
           transform="translate(687.3201,171.8418)"><text
             transform="scale(1,-1)"
             style="font-variant:normal;font-size:14px;font-family:'Hiragino Sans';-inkscape-font-specification:HiraginoSans-W2;writing-mode:lr-tb;fill:#000000;fill-opacity:1;fill-rule:nonzero;stroke:none"
             id="text4319"><tspan
               x="0 7.9995999 15.0052"
               y="0"
               sodipodi:role="line"
               id="tspan4321">ex:</tspan></text>
</g><g
           id="g4323"
           transform="translate(705.3201,171.8418)"><text
             transform="scale(1,-1)"
             style="font-variant:normal;font-size:14px;font-family:'Hiragino Sans';-inkscape-font-specification:HiraginoSans-W2;writing-mode:lr-tb;fill:#000000;fill-opacity:1;fill-rule:nonzero;stroke:none"
             id="text4325"><tspan
               x="0 14"
               y="0"
               sodipodi:role="line"
               id="tspan4327">人間</tspan></text>
</g><path
           d="m 381.5,153.5 29.0001,0 0,14 27.9999,-28 -27.9999,-28 0,14 -29.0001,0 0,28 z"
           style="fill:#000000;fill-opacity:1;fill-rule:nonzero;stroke:none"
           id="path4329"
           inkscape:connector-curvature="0" /><g
           id="g4331"
           transform="matrix(7.874016e-5,0,0,-7.874016e-5,381.5,167.5)"><path
             d="m 0,177799.8 368300.8,0 L 368300.8,0 723900,355600.4 368300.8,711200 l 0,-177799.8 -368300.8,0 0,-355600.4 z"
             style="fill:none;stroke:#000000;stroke-width:12700;stroke-linecap:butt;stroke-linejoin:miter;stroke-miterlimit:8;stroke-dasharray:none;stroke-opacity:1"
             id="path4333"
             inkscape:connector-curvature="0" /></g></g></g></g></svg>