<?xml version="1.0" encoding="UTF-8" standalone="no"?>
<!-- Created with Inkscape (http://www.inkscape.org/) -->

<svg
   xmlns:dc="http://purl.org/dc/elements/1.1/"
   xmlns:cc="http://creativecommons.org/ns#"
   xmlns:rdf="http://www.w3.org/1999/02/22-rdf-syntax-ns#"
   xmlns:svg="http://www.w3.org/2000/svg"
   xmlns="http://www.w3.org/2000/svg"
   xmlns:sodipodi="http://sodipodi.sourceforge.net/DTD/sodipodi-0.dtd"
   xmlns:inkscape="http://www.inkscape.org/namespaces/inkscape"
   id="svg4052"
   version="1.1"
   inkscape:version="0.91 r13725"
   xml:space="preserve"
   width="932.5"
   height="685"
   viewBox="0 0 932.5 685"
   sodipodi:docname="rename_rdf_resource_type.svg"><metadata
     id="metadata4058"><rdf:RDF><cc:Work
         rdf:about=""><dc:format>image/svg+xml</dc:format><dc:type
           rdf:resource="http://purl.org/dc/dcmitype/StillImage" /><dc:title></dc:title></cc:Work></rdf:RDF></metadata><defs
     id="defs4056"><clipPath
       clipPathUnits="userSpaceOnUse"
       id="clipPath4068"><path
         d="M 4,4 742,4 742,544 4,544 4,4 Z"
         id="path4070"
         inkscape:connector-curvature="0" /></clipPath></defs><sodipodi:namedview
     pagecolor="#ffffff"
     bordercolor="#666666"
     borderopacity="1"
     objecttolerance="10"
     gridtolerance="10"
     guidetolerance="10"
     inkscape:pageopacity="0"
     inkscape:pageshadow="2"
     inkscape:window-width="640"
     inkscape:window-height="480"
     id="namedview4054"
     showgrid="false"
     inkscape:zoom="0.29383378"
     inkscape:cx="466.25"
     inkscape:cy="342.5"
     inkscape:window-x="422"
     inkscape:window-y="163"
     inkscape:window-maximized="0"
     inkscape:current-layer="g4060" /><g
     id="g4060"
     inkscape:groupmode="layer"
     inkscape:label="test"
     transform="matrix(1.25,0,0,-1.25,0,685)"><g
       id="g4062" /><g
       id="g4064"><g
         id="g4066"
         clip-path="url(#clipPath4068)"><path
           d="M 4,544 742,544 742,4 4,4 4,544 Z"
           style="fill:#ffffff;fill-opacity:0;fill-rule:nonzero;stroke:none"
           id="path4072"
           inkscape:connector-curvature="0" /><path
           d="m 74.5,543.5 326,0 0,-269 -326,0 0,269 z"
           style="fill:#ffffff;fill-opacity:1;fill-rule:nonzero;stroke:none"
           id="path4074"
           inkscape:connector-curvature="0" /><g
           id="g4076"
           transform="matrix(7.874016e-5,0,0,-7.874016e-5,74.5,543.5)"><path
             d="m 0,0 4140200,0 0,3416300 L 0,3416300 0,0 Z"
             style="fill:none;stroke:#000000;stroke-width:12700;stroke-linecap:butt;stroke-linejoin:miter;stroke-miterlimit:8;stroke-dasharray:none;stroke-opacity:1"
             id="path4078"
             inkscape:connector-curvature="0" /></g><path
           d="m 74.5,274.5 326,0 0,-270.000004 -326,0 0,270.000004 z"
           style="fill:#ffffff;fill-opacity:1;fill-rule:nonzero;stroke:none"
           id="path4080"
           inkscape:connector-curvature="0" /><g
           id="g4082"
           transform="matrix(7.874016e-5,0,0,-7.874016e-5,74.5,274.5)"><path
             d="m 0,0 4140200,0 0,3429000 L 0,3429000 0,0 Z"
             style="fill:none;stroke:#000000;stroke-width:12700;stroke-linecap:butt;stroke-linejoin:miter;stroke-miterlimit:8;stroke-dasharray:none;stroke-opacity:1"
             id="path4084"
             inkscape:connector-curvature="0" /></g><path
           d="m 21.5,543.5 53,0 0,-269 -53,0 0,269 z"
           style="fill:#ffffff;fill-opacity:1;fill-rule:nonzero;stroke:none"
           id="path4086"
           inkscape:connector-curvature="0" /><g
           id="g4088"
           transform="matrix(7.874016e-5,0,0,-7.874016e-5,21.5,543.5)"><path
             d="m 0,0 673100,0 0,3416300 L 0,3416300 0,0 Z"
             style="fill:none;stroke:#000000;stroke-width:12700;stroke-linecap:butt;stroke-linejoin:miter;stroke-miterlimit:8;stroke-dasharray:none;stroke-opacity:1"
             id="path4090"
             inkscape:connector-curvature="0" /></g><g
           id="g4092"
           transform="matrix(0,-1,1,0,32.88866,458.3543)"><text
             transform="scale(1,-1)"
             style="font-variant:normal;font-size:36px;font-family:'Hiragino Sans';-inkscape-font-specification:HiraginoSans-W2;writing-mode:lr-tb;fill:#000000;fill-opacity:1;fill-rule:nonzero;stroke:#000000;stroke-width:1;stroke-linecap:butt;stroke-linejoin:miter;stroke-miterlimit:10;stroke-dasharray:none;stroke-opacity:1"
             id="text4094"><tspan
               x="0 25.999201 53.006401 74.001602"
               y="0"
               sodipodi:role="line"
               id="tspan4096">RDFS</tspan></text>
</g><path
           d="m 21.5,274.5 53,0 0,-270.000004 -53,0 0,270.000004 z"
           style="fill:#ffffff;fill-opacity:1;fill-rule:nonzero;stroke:none"
           id="path4098"
           inkscape:connector-curvature="0" /><g
           id="g4100"
           transform="matrix(7.874016e-5,0,0,-7.874016e-5,21.5,274.5)"><path
             d="m 0,0 673100,0 0,3429000 L 0,3429000 0,0 Z"
             style="fill:none;stroke:#000000;stroke-width:12700;stroke-linecap:butt;stroke-linejoin:miter;stroke-miterlimit:8;stroke-dasharray:none;stroke-opacity:1"
             id="path4102"
             inkscape:connector-curvature="0" /></g><g
           id="g4104"
           transform="matrix(0,-1,1,0,32.88866,177.0605)"><text
             transform="scale(1,-1)"
             style="font-variant:normal;font-size:36px;font-family:'Hiragino Sans';-inkscape-font-specification:HiraginoSans-W2;writing-mode:lr-tb;fill:#000000;fill-opacity:1;fill-rule:nonzero;stroke:#000000;stroke-width:1;stroke-linecap:butt;stroke-linejoin:miter;stroke-miterlimit:10;stroke-dasharray:none;stroke-opacity:1"
             id="text4106"><tspan
               x="0 25.999201 53.006401"
               y="0"
               sodipodi:role="line"
               id="tspan4108">RDF</tspan></text>
</g><path
           d="m 415.5,543.5 326,0 0,-269 -326,0 0,269 z"
           style="fill:#ffffff;fill-opacity:1;fill-rule:nonzero;stroke:none"
           id="path4110"
           inkscape:connector-curvature="0" /><g
           id="g4112"
           transform="matrix(7.874016e-5,0,0,-7.874016e-5,415.5,543.5)"><path
             d="m 0,0 4140200,0 0,3416300 L 0,3416300 0,0 Z"
             style="fill:none;stroke:#000000;stroke-width:12700;stroke-linecap:butt;stroke-linejoin:miter;stroke-miterlimit:8;stroke-dasharray:none;stroke-opacity:1"
             id="path4114"
             inkscape:connector-curvature="0" /></g><path
           d="m 415.5,274.5 326,0 0,-270.000004 -326,0 0,270.000004 z"
           style="fill:#ffffff;fill-opacity:1;fill-rule:nonzero;stroke:none"
           id="path4116"
           inkscape:connector-curvature="0" /><g
           id="g4118"
           transform="matrix(7.874016e-5,0,0,-7.874016e-5,415.5,274.5)"><path
             d="m 0,0 4140200,0 0,3429000 L 0,3429000 0,0 Z"
             style="fill:none;stroke:#000000;stroke-width:12700;stroke-linecap:butt;stroke-linejoin:miter;stroke-miterlimit:8;stroke-dasharray:none;stroke-opacity:1"
             id="path4120"
             inkscape:connector-curvature="0" /></g><path
           d="m 381.5,423.25 28.5,0 0,14.25 28.5,-28.5 -28.5,-28.5 0,14.25 -28.5,0 0,28.5 z"
           style="fill:#000000;fill-opacity:1;fill-rule:nonzero;stroke:none"
           id="path4122"
           inkscape:connector-curvature="0" /><g
           id="g4124"
           transform="matrix(7.874016e-5,0,0,-7.874016e-5,381.5,437.5)"><path
             d="m 0,180975 361950,0 0,-180975 361950,361950 -361950,361950 0,-180975 -361950,0 0,-361950 z"
             style="fill:none;stroke:#000000;stroke-width:12700;stroke-linecap:butt;stroke-linejoin:miter;stroke-miterlimit:8;stroke-dasharray:none;stroke-opacity:1"
             id="path4126"
             inkscape:connector-curvature="0" /></g><path
           d="m 81,500 118,0 0,-59 -118,0 0,59 z"
           style="fill:#d5fc79;fill-opacity:1;fill-rule:nonzero;stroke:none"
           id="path4128"
           inkscape:connector-curvature="0" /><g
           id="g4130"
           transform="matrix(7.874016e-5,0,0,-7.874016e-5,81,500)"><path
             d="m 0,0 1498600,0 0,749300 L 0,749300 0,0 Z"
             style="fill:none;stroke:#000000;stroke-width:25400;stroke-linecap:butt;stroke-linejoin:miter;stroke-miterlimit:8;stroke-dasharray:none;stroke-opacity:1"
             id="path4132"
             inkscape:connector-curvature="0" /></g><g
           id="g4134"
           transform="translate(81.35945,465.6683)"><text
             transform="scale(1,-1)"
             style="font-variant:normal;font-size:17px;font-family:'Hiragino Sans';-inkscape-font-specification:HiraginoSans-W2;writing-mode:lr-tb;fill:#000000;fill-opacity:1;fill-rule:nonzero;stroke:none"
             id="text4136"><tspan
               x="0 7.0005999 17.996201 24.996799 34.003399 38.012001 50.010601 60.003201 69.009804 79.002403 88.995003 95.995598 105.9882"
               y="0"
               sodipodi:role="line"
               id="tspan4138">rdfs:Resource</tspan></text>
</g><path
           d="m 202.3636,476.6612 1.4591,-2.0301 42.6223,30.6348 0.5836,-0.812 -42.6223,-30.6348 1.4591,-2.03 -6.623,-1.0658 3.1212,5.9379 z"
           style="fill:#000000;fill-opacity:1;fill-rule:nonzero;stroke:none"
           id="path4140"
           inkscape:connector-curvature="0" /><path
           d="m 247,535 118,0 0,-60 -118,0 0,60 z"
           style="fill:#d5fc79;fill-opacity:1;fill-rule:nonzero;stroke:none"
           id="path4142"
           inkscape:connector-curvature="0" /><g
           id="g4144"
           transform="matrix(7.874016e-5,0,0,-7.874016e-5,247,535)"><path
             d="m 0,0 1498600,0 0,762000 L 0,762000 0,0 Z"
             style="fill:none;stroke:#000000;stroke-width:25400;stroke-linecap:butt;stroke-linejoin:miter;stroke-miterlimit:8;stroke-dasharray:none;stroke-opacity:1"
             id="path4146"
             inkscape:connector-curvature="0" /></g><g
           id="g4148"
           transform="translate(277.5898,499.8049)"><text
             transform="scale(1,-1)"
             style="font-variant:normal;font-size:17px;font-family:'Hiragino Sans';-inkscape-font-specification:HiraginoSans-W2;writing-mode:lr-tb;fill:#000000;fill-opacity:1;fill-rule:nonzero;stroke:none"
             id="text4150"><tspan
               x="0 9.9994001 18.9958"
               y="0"
               sodipodi:role="line"
               id="tspan4152">ex:</tspan></text>
</g><g
           id="g4154"
           transform="translate(300.5898,499.8049)"><text
             transform="scale(1,-1)"
             style="font-variant:normal;font-size:17px;font-family:'Hiragino Sans';-inkscape-font-specification:HiraginoSans-W2;writing-mode:lr-tb;fill:#000000;fill-opacity:1;fill-rule:nonzero;stroke:none"
             id="text4156"><tspan
               x="0 17"
               y="0"
               sodipodi:role="line"
               id="tspan4158">書籍</tspan></text>
</g><path
           d="m 205.8654,469.6576 -1.459,-2.0301 42.6222,-30.6347 -0.5836,-0.812 -42.6223,30.6347 -1.4591,-2.03 -3.1212,5.9378 6.623,-1.0657 z"
           style="fill:#000000;fill-opacity:1;fill-rule:nonzero;stroke:none"
           id="path4160"
           inkscape:connector-curvature="0" /><path
           d="m 247,466 118,0 0,-59 -118,0 0,59 z"
           style="fill:#d5fc79;fill-opacity:1;fill-rule:nonzero;stroke:none"
           id="path4162"
           inkscape:connector-curvature="0" /><g
           id="g4164"
           transform="matrix(7.874016e-5,0,0,-7.874016e-5,247,466)"><path
             d="m 0,0 1498600,0 0,749300 L 0,749300 0,0 Z"
             style="fill:none;stroke:#000000;stroke-width:25400;stroke-linecap:butt;stroke-linejoin:miter;stroke-miterlimit:8;stroke-dasharray:none;stroke-opacity:1"
             id="path4166"
             inkscape:connector-curvature="0" /></g><g
           id="g4168"
           transform="translate(277.5898,431.5317)"><text
             transform="scale(1,-1)"
             style="font-variant:normal;font-size:17px;font-family:'Hiragino Sans';-inkscape-font-specification:HiraginoSans-W2;writing-mode:lr-tb;fill:#000000;fill-opacity:1;fill-rule:nonzero;stroke:none"
             id="text4170"><tspan
               x="0 9.9994001 18.9958"
               y="0"
               sodipodi:role="line"
               id="tspan4172">ex:</tspan></text>
</g><g
           id="g4174"
           transform="translate(300.5898,431.5317)"><text
             transform="scale(1,-1)"
             style="font-variant:normal;font-size:17px;font-family:'Hiragino Sans';-inkscape-font-specification:HiraginoSans-W2;writing-mode:lr-tb;fill:#000000;fill-opacity:1;fill-rule:nonzero;stroke:none"
             id="text4176"><tspan
               x="0 17"
               y="0"
               sodipodi:role="line"
               id="tspan4178">人間</tspan></text>
</g><path
           d="m 166,348 c 0,15.464 25.5198,28 57,28 31.4802,0 57,-12.536 57,-28 0,-15.464 -25.5198,-28 -57,-28 -31.4802,0 -57,12.536 -57,28 z"
           style="fill:#ffcc66;fill-opacity:1;fill-rule:nonzero;stroke:none"
           id="path4180"
           inkscape:connector-curvature="0" /><g
           id="g4182"
           transform="matrix(7.874016e-5,0,0,-7.874016e-5,166,376)"><path
             d="M 0,355600 C 0,159207.7 324101.2,0 723900,0 c 399799,0 723900,159207.7 723900,355600 0,196392.2 -324101,355600 -723900,355600 C 324101.2,711200 0,551992.2 0,355600 Z"
             style="fill:none;stroke:#000000;stroke-width:25400;stroke-linecap:butt;stroke-linejoin:miter;stroke-miterlimit:8;stroke-dasharray:none;stroke-opacity:1"
             id="path4184"
             inkscape:connector-curvature="0" /></g><g
           id="g4186"
           transform="translate(185.1311,340.4611)"><text
             transform="scale(1,-1)"
             style="font-variant:normal;font-size:23px;font-family:'Hiragino Sans';-inkscape-font-specification:HiraginoSans-W2;writing-mode:lr-tb;fill:#000000;fill-opacity:1;fill-rule:nonzero;stroke:none"
             id="text4188"><tspan
               x="0 12.9996 25.010201"
               y="0"
               sodipodi:role="line"
               id="tspan4190">ex:</tspan></text>
</g><g
           id="g4192"
           transform="translate(215.1311,340.4611)"><text
             transform="scale(1,-1)"
             style="font-variant:normal;font-size:23px;font-family:'Hiragino Sans';-inkscape-font-specification:HiraginoSans-W2;writing-mode:lr-tb;fill:#000000;fill-opacity:1;fill-rule:nonzero;stroke:none"
             id="text4194"><tspan
               x="0 23"
               y="0"
               sodipodi:role="line"
               id="tspan4196">著者</tspan></text>
</g><path
           d="m 442,500 119,0 0,-59 -119,0 0,59 z"
           style="fill:#d5fc79;fill-opacity:1;fill-rule:nonzero;stroke:none"
           id="path4198"
           inkscape:connector-curvature="0" /><g
           id="g4200"
           transform="matrix(7.874016e-5,0,0,-7.874016e-5,442,500)"><path
             d="m 0,0 1511300,0 0,749300 L 0,749300 0,0 Z"
             style="fill:none;stroke:#000000;stroke-width:25400;stroke-linecap:butt;stroke-linejoin:miter;stroke-miterlimit:8;stroke-dasharray:none;stroke-opacity:1"
             id="path4202"
             inkscape:connector-curvature="0" /></g><g
           id="g4204"
           transform="translate(443.1843,465.6683)"><text
             transform="scale(1,-1)"
             style="font-variant:normal;font-size:17px;font-family:'Hiragino Sans';-inkscape-font-specification:HiraginoSans-W2;writing-mode:lr-tb;fill:#000000;fill-opacity:1;fill-rule:nonzero;stroke:none"
             id="text4206"><tspan
               x="0 7.0005999 17.996201 24.996799 34.003399 38.012001 50.010601 60.003201 69.009804 79.002403 88.995003 95.995598 105.9882"
               y="0"
               sodipodi:role="line"
               id="tspan4208">rdfs:Resource</tspan></text>
</g><path
           d="m 564.1885,476.6612 1.459,-2.0301 42.6223,30.6348 0.5836,-0.812 -42.6222,-30.6348 1.459,-2.03 -6.6229,-1.0658 3.1212,5.9379 z"
           style="fill:#000000;fill-opacity:1;fill-rule:nonzero;stroke:none"
           id="path4210"
           inkscape:connector-curvature="0" /><path
           d="m 609,535 118,0 0,-60 -118,0 0,60 z"
           style="fill:#d5fc79;fill-opacity:1;fill-rule:nonzero;stroke:none"
           id="path4212"
           inkscape:connector-curvature="0" /><g
           id="g4214"
           transform="matrix(7.874016e-5,0,0,-7.874016e-5,609,535)"><path
             d="m 0,0 1498600,0 0,762000 L 0,762000 0,0 Z"
             style="fill:none;stroke:#ff0000;stroke-width:25400;stroke-linecap:butt;stroke-linejoin:miter;stroke-miterlimit:8;stroke-dasharray:101600, 76200;stroke-dashoffset:0;stroke-opacity:1"
             id="path4216"
             inkscape:connector-curvature="0" /></g><g
           id="g4218"
           transform="translate(639.4146,499.8049)"><text
             transform="scale(1,-1)"
             style="font-variant:normal;font-size:17px;font-family:'Hiragino Sans';-inkscape-font-specification:HiraginoSans-W2;writing-mode:lr-tb;fill:#000000;fill-opacity:1;fill-rule:nonzero;stroke:none"
             id="text4220"><tspan
               x="0 9.9994001 18.9958"
               y="0"
               sodipodi:role="line"
               id="tspan4222">ex:</tspan></text>
</g><g
           id="g4224"
           transform="translate(662.4146,499.8049)"><text
             transform="scale(1,-1)"
             style="font-variant:normal;font-size:17px;font-family:'Hiragino Sans';-inkscape-font-specification:HiraginoSans-W2;writing-mode:lr-tb;fill:#000000;fill-opacity:1;fill-rule:nonzero;stroke:none"
             id="text4226"><tspan
               x="0 17"
               y="0"
               sodipodi:role="line"
               id="tspan4228">書物</tspan></text>
</g><path
           d="m 567.6902,469.6576 -1.4591,-2.0301 42.6223,-30.6347 -0.5836,-0.812 -42.6223,30.6347 -1.4591,-2.03 -3.1211,5.9378 6.6229,-1.0657 z"
           style="fill:#000000;fill-opacity:1;fill-rule:nonzero;stroke:none"
           id="path4230"
           inkscape:connector-curvature="0" /><path
           d="m 609,466 118,0 0,-59 -118,0 0,59 z"
           style="fill:#d5fc79;fill-opacity:1;fill-rule:nonzero;stroke:none"
           id="path4232"
           inkscape:connector-curvature="0" /><g
           id="g4234"
           transform="matrix(7.874016e-5,0,0,-7.874016e-5,609,466)"><path
             d="m 0,0 1498600,0 0,749300 L 0,749300 0,0 Z"
             style="fill:none;stroke:#000000;stroke-width:25400;stroke-linecap:butt;stroke-linejoin:miter;stroke-miterlimit:8;stroke-dasharray:none;stroke-opacity:1"
             id="path4236"
             inkscape:connector-curvature="0" /></g><g
           id="g4238"
           transform="translate(639.4146,431.5317)"><text
             transform="scale(1,-1)"
             style="font-variant:normal;font-size:17px;font-family:'Hiragino Sans';-inkscape-font-specification:HiraginoSans-W2;writing-mode:lr-tb;fill:#000000;fill-opacity:1;fill-rule:nonzero;stroke:none"
             id="text4240"><tspan
               x="0 9.9994001 18.9958"
               y="0"
               sodipodi:role="line"
               id="tspan4242">ex:</tspan></text>
</g><g
           id="g4244"
           transform="translate(662.4146,431.5317)"><text
             transform="scale(1,-1)"
             style="font-variant:normal;font-size:17px;font-family:'Hiragino Sans';-inkscape-font-specification:HiraginoSans-W2;writing-mode:lr-tb;fill:#000000;fill-opacity:1;fill-rule:nonzero;stroke:none"
             id="text4246"><tspan
               x="0 17"
               y="0"
               sodipodi:role="line"
               id="tspan4248">人間</tspan></text>
</g><path
           d="m 528,348 c 0,15.464 25.5198,28 57,28 31.4802,0 57,-12.536 57,-28 0,-15.464 -25.5198,-28 -57,-28 -31.4802,0 -57,12.536 -57,28 z"
           style="fill:#ffcc66;fill-opacity:1;fill-rule:nonzero;stroke:none"
           id="path4250"
           inkscape:connector-curvature="0" /><g
           id="g4252"
           transform="matrix(7.874016e-5,0,0,-7.874016e-5,528,376)"><path
             d="M 0,355600 C 0,159207.7 324101.2,0 723900,0 c 399799,0 723900,159207.7 723900,355600 0,196392.2 -324101,355600 -723900,355600 C 324101.2,711200 0,551992.2 0,355600 Z"
             style="fill:none;stroke:#000000;stroke-width:25400;stroke-linecap:butt;stroke-linejoin:miter;stroke-miterlimit:8;stroke-dasharray:none;stroke-opacity:1"
             id="path4254"
             inkscape:connector-curvature="0" /></g><g
           id="g4256"
           transform="translate(546.9559,340.4611)"><text
             transform="scale(1,-1)"
             style="font-variant:normal;font-size:23px;font-family:'Hiragino Sans';-inkscape-font-specification:HiraginoSans-W2;writing-mode:lr-tb;fill:#000000;fill-opacity:1;fill-rule:nonzero;stroke:none"
             id="text4258"><tspan
               x="0 12.9996 25.010201"
               y="0"
               sodipodi:role="line"
               id="tspan4260">ex:</tspan></text>
</g><g
           id="g4262"
           transform="translate(576.9559,340.4611)"><text
             transform="scale(1,-1)"
             style="font-variant:normal;font-size:23px;font-family:'Hiragino Sans';-inkscape-font-specification:HiraginoSans-W2;writing-mode:lr-tb;fill:#000000;fill-opacity:1;fill-rule:nonzero;stroke:none"
             id="text4264"><tspan
               x="0 23"
               y="0"
               sodipodi:role="line"
               id="tspan4266">著者</tspan></text>
</g><path
           d="m 248,136 c 0,16.5685 26.6391,30 59.5,30 32.8609,0 59.5,-13.4315 59.5,-30 0,-16.5685 -26.6391,-30 -59.5,-30 -32.8609,0 -59.5,13.4315 -59.5,30 z"
           style="fill:#ffc8c8;fill-opacity:1;fill-rule:nonzero;stroke:none"
           id="path4268"
           inkscape:connector-curvature="0" /><g
           id="g4270"
           transform="matrix(7.874016e-5,0,0,-7.874016e-5,248,166)"><path
             d="M 0,381000 C 0,170579.5 338316.2,0 755650,0 c 417334,0 755650,170579.5 755650,381000 0,210420.5 -338316,381000 -755650,381000 C 338316.2,762000 0,591420.5 0,381000 Z"
             style="fill:none;stroke:#000000;stroke-width:25400;stroke-linecap:butt;stroke-linejoin:miter;stroke-miterlimit:8;stroke-dasharray:none;stroke-opacity:1"
             id="path4272"
             inkscape:connector-curvature="0" /></g><g
           id="g4274"
           transform="translate(270.4455,131.3198)"><text
             transform="scale(1,-1)"
             style="font-variant:normal;font-size:14px;font-family:'Hiragino Sans';-inkscape-font-specification:HiraginoSans-W2;writing-mode:lr-tb;fill:#000000;fill-opacity:1;fill-rule:nonzero;stroke:none"
             id="text4276"><tspan
               x="0 7.9995999 15.0052"
               y="0"
               sodipodi:role="line"
               id="tspan4278">ex:</tspan></text>
</g><g
           id="g4280"
           transform="translate(288.4455,131.3198)"><text
             transform="scale(1,-1)"
             style="font-variant:normal;font-size:14px;font-family:'Hiragino Sans';-inkscape-font-specification:HiraginoSans-W2;writing-mode:lr-tb;fill:#000000;fill-opacity:1;fill-rule:nonzero;stroke:none"
             id="text4282"><tspan
               x="0 14 28 42"
               y="0"
               sodipodi:role="line"
               id="tspan4284">福澤諭吉</tspan></text>
</g><path
           d="m 242.0148,138.3312 1.7899,1.7454 -43.436,44.5457 0.716,0.6981 43.4359,-44.5457 1.79,1.7453 2.0409,-6.3902 -6.3367,2.2014 z"
           style="fill:#000000;fill-opacity:1;fill-rule:nonzero;stroke:none"
           id="path4286"
           inkscape:connector-curvature="0" /><path
           d="m 82,185 c 0,16.5685 26.6391,30 59.5,30 32.8609,0 59.5,-13.4315 59.5,-30 0,-16.5685 -26.6391,-30 -59.5,-30 -32.8609,0 -59.5,13.4315 -59.5,30 z"
           style="fill:#ffc8c8;fill-opacity:1;fill-rule:nonzero;stroke:none"
           id="path4288"
           inkscape:connector-curvature="0" /><g
           id="g4290"
           transform="matrix(7.874016e-5,0,0,-7.874016e-5,82,215)"><path
             d="M 0,381000 C 0,170579.5 338316.1,0 755650,0 c 417334,0 755650,170579.5 755650,381000 0,210420.5 -338316,381000 -755650,381000 C 338316.1,762000 0,591420.5 0,381000 Z"
             style="fill:none;stroke:#000000;stroke-width:25400;stroke-linecap:butt;stroke-linejoin:miter;stroke-miterlimit:8;stroke-dasharray:none;stroke-opacity:1"
             id="path4292"
             inkscape:connector-curvature="0" /></g><g
           id="g4294"
           transform="translate(100.9052,181.4063)"><text
             transform="scale(1,-1)"
             style="font-variant:normal;font-size:11px;font-family:'Hiragino Sans';-inkscape-font-specification:HiraginoSans-W2;writing-mode:lr-tb;fill:#000000;fill-opacity:1;fill-rule:nonzero;stroke:none"
             id="text4296"><tspan
               x="0 6.0005002 12.001"
               y="0"
               sodipodi:role="line"
               id="tspan4298">ex:</tspan></text>
</g><g
           id="g4300"
           transform="translate(115.9052,181.4063)"><text
             transform="scale(1,-1)"
             style="font-variant:normal;font-size:11px;font-family:'Hiragino Sans';-inkscape-font-specification:HiraginoSans-W2;writing-mode:lr-tb;fill:#000000;fill-opacity:1;fill-rule:nonzero;stroke:none"
             id="text4302"><tspan
               x="0 11 22 33 44 55"
               y="0"
               sodipodi:role="line"
               id="tspan4304">学門のすゝめ</tspan></text>
</g><path
           d="m 245.7598,129.9424 -1.6305,1.8951 -43.0765,-37.06169 -0.6522,0.75804 43.0765,37.06175 -1.6305,1.8951 6.5049,1.6391 -2.5917,-6.1874 z"
           style="fill:#000000;fill-opacity:1;fill-rule:nonzero;stroke:none"
           id="path4306"
           inkscape:connector-curvature="0" /><path
           d="m 82,95 c 0,16.5685 26.6391,30 59.5,30 C 174.3609,125 201,111.5685 201,95 201,78.43146 174.3609,65 141.5,65 108.6391,65 82,78.43146 82,95 Z"
           style="fill:#ffc8c8;fill-opacity:1;fill-rule:nonzero;stroke:none"
           id="path4308"
           inkscape:connector-curvature="0" /><g
           id="g4310"
           transform="matrix(7.874016e-5,0,0,-7.874016e-5,82,125)"><path
             d="M 0,381000 C 0,170579.5 338316.1,0 755650,0 c 417334,0 755650,170579.5 755650,381000 0,210420.5 -338316,381000 -755650,381000 C 338316.1,762000 0,591420.5 0,381000 Z"
             style="fill:none;stroke:#000000;stroke-width:25400;stroke-linecap:butt;stroke-linejoin:miter;stroke-miterlimit:8;stroke-dasharray:none;stroke-opacity:1"
             id="path4312"
             inkscape:connector-curvature="0" /></g><g
           id="g4314"
           transform="translate(104.0527,90.34482)"><text
             transform="scale(1,-1)"
             style="font-variant:normal;font-size:14px;font-family:'Hiragino Sans';-inkscape-font-specification:HiraginoSans-W2;writing-mode:lr-tb;fill:#000000;fill-opacity:1;fill-rule:nonzero;stroke:none"
             id="text4316"><tspan
               x="0 7.9995999 15.0052"
               y="0"
               sodipodi:role="line"
               id="tspan4318">ex:</tspan></text>
</g><g
           id="g4320"
           transform="translate(122.0527,90.34482)"><text
             transform="scale(1,-1)"
             style="font-variant:normal;font-size:14px;font-family:'Hiragino Sans';-inkscape-font-specification:HiraginoSans-W2;writing-mode:lr-tb;fill:#000000;fill-opacity:1;fill-rule:nonzero;stroke:none"
             id="text4322"><tspan
               x="0 14 28 42"
               y="0"
               sodipodi:role="line"
               id="tspan4324">民情一新</tspan></text>
</g><g
           id="g4326"
           transform="translate(168.7816,221.2918)"><text
             transform="scale(1,-1)"
             style="font-variant:normal;font-size:14px;font-family:'Hiragino Sans';-inkscape-font-specification:HiraginoSans-W2;writing-mode:lr-tb;fill:#000000;fill-opacity:1;fill-rule:nonzero;stroke:none"
             id="text4328"><tspan
               x="0 7.9995999 15.0052"
               y="0"
               sodipodi:role="line"
               id="tspan4330">ex:</tspan></text>
</g><g
           id="g4332"
           transform="translate(186.7816,221.2918)"><text
             transform="scale(1,-1)"
             style="font-variant:normal;font-size:14px;font-family:'Hiragino Sans';-inkscape-font-specification:HiraginoSans-W2;writing-mode:lr-tb;fill:#000000;fill-opacity:1;fill-rule:nonzero;stroke:none"
             id="text4334"><tspan
               x="0 14"
               y="0"
               sodipodi:role="line"
               id="tspan4336">書籍</tspan></text>
</g><g
           id="g4338"
           transform="matrix(7.874016e-5,0,0,-7.874016e-5,162.5,148.5)"><path
             d="m 0,0 749300,0 0,304800 L 0,304800 0,0 Z"
             style="fill:none;stroke:#ff0000;stroke-width:12700;stroke-linecap:butt;stroke-linejoin:round;stroke-miterlimit:10;stroke-dasharray:50800, 38100;stroke-dashoffset:0;stroke-opacity:1"
             id="path4340"
             inkscape:connector-curvature="0" /></g><g
           id="g4342"
           transform="translate(168.7815,131.2991)"><text
             transform="scale(1,-1)"
             style="font-variant:normal;font-size:14px;font-family:'Hiragino Sans';-inkscape-font-specification:HiraginoSans-W2;writing-mode:lr-tb;fill:#000000;fill-opacity:1;fill-rule:nonzero;stroke:none"
             id="text4344"><tspan
               x="0 7.9995999 15.0052"
               y="0"
               sodipodi:role="line"
               id="tspan4346">ex:</tspan></text>
</g><g
           id="g4348"
           transform="translate(186.7815,131.2991)"><text
             transform="scale(1,-1)"
             style="font-variant:normal;font-size:14px;font-family:'Hiragino Sans';-inkscape-font-specification:HiraginoSans-W2;writing-mode:lr-tb;fill:#000000;fill-opacity:1;fill-rule:nonzero;stroke:none"
             id="text4350"><tspan
               x="0 14"
               y="0"
               sodipodi:role="line"
               id="tspan4352">書籍</tspan></text>
</g><g
           id="g4354"
           transform="translate(217.3953,171.8418)"><text
             transform="scale(1,-1)"
             style="font-variant:normal;font-size:14px;font-family:'Hiragino Sans';-inkscape-font-specification:HiraginoSans-W2;writing-mode:lr-tb;fill:#000000;fill-opacity:1;fill-rule:nonzero;stroke:none"
             id="text4356"><tspan
               x="0 7.9995999 15.0052"
               y="0"
               sodipodi:role="line"
               id="tspan4358">ex:</tspan></text>
</g><g
           id="g4360"
           transform="translate(235.3953,171.8418)"><text
             transform="scale(1,-1)"
             style="font-variant:normal;font-size:14px;font-family:'Hiragino Sans';-inkscape-font-specification:HiraginoSans-W2;writing-mode:lr-tb;fill:#000000;fill-opacity:1;fill-rule:nonzero;stroke:none"
             id="text4362"><tspan
               x="0 14"
               y="0"
               sodipodi:role="line"
               id="tspan4364">著者</tspan></text>
</g><g
           id="g4366"
           transform="translate(214.7664,95.36993)"><text
             transform="scale(1,-1)"
             style="font-variant:normal;font-size:14px;font-family:'Hiragino Sans';-inkscape-font-specification:HiraginoSans-W2;writing-mode:lr-tb;fill:#000000;fill-opacity:1;fill-rule:nonzero;stroke:none"
             id="text4368"><tspan
               x="0 7.9995999 15.0052"
               y="0"
               sodipodi:role="line"
               id="tspan4370">ex:</tspan></text>
</g><g
           id="g4372"
           transform="translate(232.7664,95.36993)"><text
             transform="scale(1,-1)"
             style="font-variant:normal;font-size:14px;font-family:'Hiragino Sans';-inkscape-font-specification:HiraginoSans-W2;writing-mode:lr-tb;fill:#000000;fill-opacity:1;fill-rule:nonzero;stroke:none"
             id="text4374"><tspan
               x="0 14"
               y="0"
               sodipodi:role="line"
               id="tspan4376">著者</tspan></text>
</g><g
           id="g4378"
           transform="translate(327.1036,171.8418)"><text
             transform="scale(1,-1)"
             style="font-variant:normal;font-size:14px;font-family:'Hiragino Sans';-inkscape-font-specification:HiraginoSans-W2;writing-mode:lr-tb;fill:#000000;fill-opacity:1;fill-rule:nonzero;stroke:none"
             id="text4380"><tspan
               x="0 7.9995999 15.0052"
               y="0"
               sodipodi:role="line"
               id="tspan4382">ex:</tspan></text>
</g><g
           id="g4384"
           transform="translate(345.1036,171.8418)"><text
             transform="scale(1,-1)"
             style="font-variant:normal;font-size:14px;font-family:'Hiragino Sans';-inkscape-font-specification:HiraginoSans-W2;writing-mode:lr-tb;fill:#000000;fill-opacity:1;fill-rule:nonzero;stroke:none"
             id="text4386"><tspan
               x="0 14"
               y="0"
               sodipodi:role="line"
               id="tspan4388">人間</tspan></text>
</g><path
           d="m 609,136 c 0,16.5685 26.4152,30 59,30 32.5848,0 59,-13.4315 59,-30 0,-16.5685 -26.4152,-30 -59,-30 -32.5848,0 -59,13.4315 -59,30 z"
           style="fill:#ffc8c8;fill-opacity:1;fill-rule:nonzero;stroke:none"
           id="path4390"
           inkscape:connector-curvature="0" /><g
           id="g4392"
           transform="matrix(7.874016e-5,0,0,-7.874016e-5,609,166)"><path
             d="M 0,381000 C 0,170579.5 335473.3,0 749300,0 c 413827,0 749300,170579.5 749300,381000 0,210420.5 -335473,381000 -749300,381000 C 335473.3,762000 0,591420.5 0,381000 Z"
             style="fill:none;stroke:#000000;stroke-width:25400;stroke-linecap:butt;stroke-linejoin:miter;stroke-miterlimit:8;stroke-dasharray:none;stroke-opacity:1"
             id="path4394"
             inkscape:connector-curvature="0" /></g><g
           id="g4396"
           transform="translate(630.662,131.3198)"><text
             transform="scale(1,-1)"
             style="font-variant:normal;font-size:14px;font-family:'Hiragino Sans';-inkscape-font-specification:HiraginoSans-W2;writing-mode:lr-tb;fill:#000000;fill-opacity:1;fill-rule:nonzero;stroke:none"
             id="text4398"><tspan
               x="0 7.9995999 15.0052"
               y="0"
               sodipodi:role="line"
               id="tspan4400">ex:</tspan></text>
</g><g
           id="g4402"
           transform="translate(648.662,131.3198)"><text
             transform="scale(1,-1)"
             style="font-variant:normal;font-size:14px;font-family:'Hiragino Sans';-inkscape-font-specification:HiraginoSans-W2;writing-mode:lr-tb;fill:#000000;fill-opacity:1;fill-rule:nonzero;stroke:none"
             id="text4404"><tspan
               x="0 14 28 42"
               y="0"
               sodipodi:role="line"
               id="tspan4406">福澤諭吉</tspan></text>
</g><path
           d="m 602.2313,138.3312 1.7899,1.7454 -43.4359,44.5457 0.7159,0.6981 43.436,-44.5457 1.7899,1.7453 2.0409,-6.3902 -6.3367,2.2014 z"
           style="fill:#000000;fill-opacity:1;fill-rule:nonzero;stroke:none"
           id="path4408"
           inkscape:connector-curvature="0" /><path
           d="m 442,185 c 0,16.5685 26.6391,30 59.5,30 32.861,0 59.5,-13.4315 59.5,-30 0,-16.5685 -26.639,-30 -59.5,-30 -32.8609,0 -59.5,13.4315 -59.5,30 z"
           style="fill:#ffc8c8;fill-opacity:1;fill-rule:nonzero;stroke:none"
           id="path4410"
           inkscape:connector-curvature="0" /><g
           id="g4412"
           transform="matrix(7.874016e-5,0,0,-7.874016e-5,442,215)"><path
             d="M 0,381000 C 0,170579.5 338316.2,0 755650,0 c 417334,0 755650,170579.5 755650,381000 0,210420.5 -338316,381000 -755650,381000 C 338316.2,762000 0,591420.5 0,381000 Z"
             style="fill:none;stroke:#000000;stroke-width:25400;stroke-linecap:butt;stroke-linejoin:miter;stroke-miterlimit:8;stroke-dasharray:none;stroke-opacity:1"
             id="path4414"
             inkscape:connector-curvature="0" /></g><g
           id="g4416"
           transform="translate(461.1217,181.4063)"><text
             transform="scale(1,-1)"
             style="font-variant:normal;font-size:11px;font-family:'Hiragino Sans';-inkscape-font-specification:HiraginoSans-W2;writing-mode:lr-tb;fill:#000000;fill-opacity:1;fill-rule:nonzero;stroke:none"
             id="text4418"><tspan
               x="0 6.0005002 12.001"
               y="0"
               sodipodi:role="line"
               id="tspan4420">ex:</tspan></text>
</g><g
           id="g4422"
           transform="translate(476.1217,181.4063)"><text
             transform="scale(1,-1)"
             style="font-variant:normal;font-size:11px;font-family:'Hiragino Sans';-inkscape-font-specification:HiraginoSans-W2;writing-mode:lr-tb;fill:#000000;fill-opacity:1;fill-rule:nonzero;stroke:none"
             id="text4424"><tspan
               x="0 11 22 33 44 55"
               y="0"
               sodipodi:role="line"
               id="tspan4426">学門のすゝめ</tspan></text>
</g><path
           d="m 605.9763,129.9424 -1.6305,1.8951 -43.0765,-37.06169 -0.6522,0.75804 43.0766,37.06175 -1.6306,1.8951 6.5049,1.6391 -2.5917,-6.1874 z"
           style="fill:#000000;fill-opacity:1;fill-rule:nonzero;stroke:none"
           id="path4428"
           inkscape:connector-curvature="0" /><path
           d="m 442,95 c 0,16.5685 26.6391,30 59.5,30 C 534.361,125 561,111.5685 561,95 561,78.43146 534.361,65 501.5,65 468.6391,65 442,78.43146 442,95 Z"
           style="fill:#ffc8c8;fill-opacity:1;fill-rule:nonzero;stroke:none"
           id="path4430"
           inkscape:connector-curvature="0" /><g
           id="g4432"
           transform="matrix(7.874016e-5,0,0,-7.874016e-5,442,125)"><path
             d="M 0,381000 C 0,170579.5 338316.2,0 755650,0 c 417334,0 755650,170579.5 755650,381000 0,210420.5 -338316,381000 -755650,381000 C 338316.2,762000 0,591420.5 0,381000 Z"
             style="fill:none;stroke:#000000;stroke-width:25400;stroke-linecap:butt;stroke-linejoin:miter;stroke-miterlimit:8;stroke-dasharray:none;stroke-opacity:1"
             id="path4434"
             inkscape:connector-curvature="0" /></g><g
           id="g4436"
           transform="translate(464.2693,90.34482)"><text
             transform="scale(1,-1)"
             style="font-variant:normal;font-size:14px;font-family:'Hiragino Sans';-inkscape-font-specification:HiraginoSans-W2;writing-mode:lr-tb;fill:#000000;fill-opacity:1;fill-rule:nonzero;stroke:none"
             id="text4438"><tspan
               x="0 7.9995999 15.0052"
               y="0"
               sodipodi:role="line"
               id="tspan4440">ex:</tspan></text>
</g><g
           id="g4442"
           transform="translate(482.2693,90.34482)"><text
             transform="scale(1,-1)"
             style="font-variant:normal;font-size:14px;font-family:'Hiragino Sans';-inkscape-font-specification:HiraginoSans-W2;writing-mode:lr-tb;fill:#000000;fill-opacity:1;fill-rule:nonzero;stroke:none"
             id="text4444"><tspan
               x="0 14 28 42"
               y="0"
               sodipodi:role="line"
               id="tspan4446">民情一新</tspan></text>
</g><g
           id="g4448"
           transform="matrix(7.874016e-5,0,0,-7.874016e-5,522.5,238.5)"><path
             d="m 0,0 762000,0 0,304800 L 0,304800 0,0 Z"
             style="fill:none;stroke:#ff0000;stroke-width:12700;stroke-linecap:butt;stroke-linejoin:round;stroke-miterlimit:10;stroke-dasharray:50800, 38100;stroke-dashoffset:0;stroke-opacity:1"
             id="path4450"
             inkscape:connector-curvature="0" /></g><g
           id="g4452"
           transform="translate(528.9981,221.2918)"><text
             transform="scale(1,-1)"
             style="font-variant:normal;font-size:14px;font-family:'Hiragino Sans';-inkscape-font-specification:HiraginoSans-W2;writing-mode:lr-tb;fill:#000000;fill-opacity:1;fill-rule:nonzero;stroke:none"
             id="text4454"><tspan
               x="0 7.9995999 15.0052"
               y="0"
               sodipodi:role="line"
               id="tspan4456">ex:</tspan></text>
</g><g
           id="g4458"
           transform="translate(546.9981,221.2918)"><text
             transform="scale(1,-1)"
             style="font-variant:normal;font-size:14px;font-family:'Hiragino Sans';-inkscape-font-specification:HiraginoSans-W2;writing-mode:lr-tb;fill:#000000;fill-opacity:1;fill-rule:nonzero;stroke:none"
             id="text4460"><tspan
               x="0 14"
               y="0"
               sodipodi:role="line"
               id="tspan4462">書物</tspan></text>
</g><g
           id="g4464"
           transform="matrix(7.874016e-5,0,0,-7.874016e-5,522.5,148.5)"><path
             d="m 0,0 762000,0 0,304800 L 0,304800 0,0 Z"
             style="fill:none;stroke:#ff0000;stroke-width:12700;stroke-linecap:butt;stroke-linejoin:round;stroke-miterlimit:10;stroke-dasharray:50800, 38100;stroke-dashoffset:0;stroke-opacity:1"
             id="path4466"
             inkscape:connector-curvature="0" /></g><g
           id="g4468"
           transform="translate(528.998,131.2991)"><text
             transform="scale(1,-1)"
             style="font-variant:normal;font-size:14px;font-family:'Hiragino Sans';-inkscape-font-specification:HiraginoSans-W2;writing-mode:lr-tb;fill:#000000;fill-opacity:1;fill-rule:nonzero;stroke:none"
             id="text4470"><tspan
               x="0 7.9995999 15.0052"
               y="0"
               sodipodi:role="line"
               id="tspan4472">ex:</tspan></text>
</g><g
           id="g4474"
           transform="translate(546.998,131.2991)"><text
             transform="scale(1,-1)"
             style="font-variant:normal;font-size:14px;font-family:'Hiragino Sans';-inkscape-font-specification:HiraginoSans-W2;writing-mode:lr-tb;fill:#000000;fill-opacity:1;fill-rule:nonzero;stroke:none"
             id="text4476"><tspan
               x="0 14"
               y="0"
               sodipodi:role="line"
               id="tspan4478">書物</tspan></text>
</g><g
           id="g4480"
           transform="translate(577.6118,171.8418)"><text
             transform="scale(1,-1)"
             style="font-variant:normal;font-size:14px;font-family:'Hiragino Sans';-inkscape-font-specification:HiraginoSans-W2;writing-mode:lr-tb;fill:#000000;fill-opacity:1;fill-rule:nonzero;stroke:none"
             id="text4482"><tspan
               x="0 7.9995999 15.0052"
               y="0"
               sodipodi:role="line"
               id="tspan4484">ex:</tspan></text>
</g><g
           id="g4486"
           transform="translate(595.6118,171.8418)"><text
             transform="scale(1,-1)"
             style="font-variant:normal;font-size:14px;font-family:'Hiragino Sans';-inkscape-font-specification:HiraginoSans-W2;writing-mode:lr-tb;fill:#000000;fill-opacity:1;fill-rule:nonzero;stroke:none"
             id="text4488"><tspan
               x="0 14"
               y="0"
               sodipodi:role="line"
               id="tspan4490">著者</tspan></text>
</g><g
           id="g4492"
           transform="translate(574.9829,95.36993)"><text
             transform="scale(1,-1)"
             style="font-variant:normal;font-size:14px;font-family:'Hiragino Sans';-inkscape-font-specification:HiraginoSans-W2;writing-mode:lr-tb;fill:#000000;fill-opacity:1;fill-rule:nonzero;stroke:none"
             id="text4494"><tspan
               x="0 7.9995999 15.0052"
               y="0"
               sodipodi:role="line"
               id="tspan4496">ex:</tspan></text>
</g><g
           id="g4498"
           transform="translate(592.9829,95.36993)"><text
             transform="scale(1,-1)"
             style="font-variant:normal;font-size:14px;font-family:'Hiragino Sans';-inkscape-font-specification:HiraginoSans-W2;writing-mode:lr-tb;fill:#000000;fill-opacity:1;fill-rule:nonzero;stroke:none"
             id="text4500"><tspan
               x="0 14"
               y="0"
               sodipodi:role="line"
               id="tspan4502">著者</tspan></text>
</g><g
           id="g4504"
           transform="translate(687.3201,171.8418)"><text
             transform="scale(1,-1)"
             style="font-variant:normal;font-size:14px;font-family:'Hiragino Sans';-inkscape-font-specification:HiraginoSans-W2;writing-mode:lr-tb;fill:#000000;fill-opacity:1;fill-rule:nonzero;stroke:none"
             id="text4506"><tspan
               x="0 7.9995999 15.0052"
               y="0"
               sodipodi:role="line"
               id="tspan4508">ex:</tspan></text>
</g><g
           id="g4510"
           transform="translate(705.3201,171.8418)"><text
             transform="scale(1,-1)"
             style="font-variant:normal;font-size:14px;font-family:'Hiragino Sans';-inkscape-font-specification:HiraginoSans-W2;writing-mode:lr-tb;fill:#000000;fill-opacity:1;fill-rule:nonzero;stroke:none"
             id="text4512"><tspan
               x="0 14"
               y="0"
               sodipodi:role="line"
               id="tspan4514">人間</tspan></text>
</g><path
           d="m 381.5,153.5 29.0001,0 0,14 27.9999,-28 -27.9999,-28 0,14 -29.0001,0 0,28 z"
           style="fill:#000000;fill-opacity:1;fill-rule:nonzero;stroke:none"
           id="path4516"
           inkscape:connector-curvature="0" /><g
           id="g4518"
           transform="matrix(7.874016e-5,0,0,-7.874016e-5,381.5,167.5)"><path
             d="m 0,177799.8 368300.8,0 L 368300.8,0 723900,355600.4 368300.8,711200 l 0,-177799.8 -368300.8,0 0,-355600.4 z"
             style="fill:none;stroke:#000000;stroke-width:12700;stroke-linecap:butt;stroke-linejoin:miter;stroke-miterlimit:8;stroke-dasharray:none;stroke-opacity:1"
             id="path4520"
             inkscape:connector-curvature="0" /></g></g></g></g></svg>