<?xml version="1.0" encoding="UTF-8" standalone="no"?>
<!-- Created with Inkscape (http://www.inkscape.org/) -->

<svg
   xmlns:dc="http://purl.org/dc/elements/1.1/"
   xmlns:cc="http://creativecommons.org/ns#"
   xmlns:rdf="http://www.w3.org/1999/02/22-rdf-syntax-ns#"
   xmlns:svg="http://www.w3.org/2000/svg"
   xmlns="http://www.w3.org/2000/svg"
   xmlns:sodipodi="http://sodipodi.sourceforge.net/DTD/sodipodi-0.dtd"
   xmlns:inkscape="http://www.inkscape.org/namespaces/inkscape"
   id="svg5319"
   version="1.1"
   inkscape:version="0.91 r13725"
   xml:space="preserve"
   width="932.5"
   height="685"
   viewBox="0 0 932.5 685"
   sodipodi:docname="rename_rdf_property.svg"><metadata
     id="metadata5325"><rdf:RDF><cc:Work
         rdf:about=""><dc:format>image/svg+xml</dc:format><dc:type
           rdf:resource="http://purl.org/dc/dcmitype/StillImage" /><dc:title></dc:title></cc:Work></rdf:RDF></metadata><defs
     id="defs5323"><clipPath
       clipPathUnits="userSpaceOnUse"
       id="clipPath5335"><path
         d="M 4,4 742,4 742,544 4,544 4,4 Z"
         id="path5337"
         inkscape:connector-curvature="0" /></clipPath></defs><sodipodi:namedview
     pagecolor="#ffffff"
     bordercolor="#666666"
     borderopacity="1"
     objecttolerance="10"
     gridtolerance="10"
     guidetolerance="10"
     inkscape:pageopacity="0"
     inkscape:pageshadow="2"
     inkscape:window-width="640"
     inkscape:window-height="480"
     id="namedview5321"
     showgrid="false"
     inkscape:zoom="0.29383378"
     inkscape:cx="466.25"
     inkscape:cy="342.5"
     inkscape:window-x="422"
     inkscape:window-y="163"
     inkscape:window-maximized="0"
     inkscape:current-layer="g5327" /><g
     id="g5327"
     inkscape:groupmode="layer"
     inkscape:label="test"
     transform="matrix(1.25,0,0,-1.25,0,685)"><g
       id="g5329" /><g
       id="g5331"><g
         id="g5333"
         clip-path="url(#clipPath5335)"><path
           d="M 4,544 742,544 742,4 4,4 4,544 Z"
           style="fill:#ffffff;fill-opacity:0;fill-rule:nonzero;stroke:none"
           id="path5339"
           inkscape:connector-curvature="0" /><path
           d="m 74.5,543.5 326,0 0,-269 -326,0 0,269 z"
           style="fill:#ffffff;fill-opacity:1;fill-rule:nonzero;stroke:none"
           id="path5341"
           inkscape:connector-curvature="0" /><g
           id="g5343"
           transform="matrix(7.874016e-5,0,0,-7.874016e-5,74.5,543.5)"><path
             d="m 0,0 4140200,0 0,3416300 L 0,3416300 0,0 Z"
             style="fill:none;stroke:#000000;stroke-width:12700;stroke-linecap:butt;stroke-linejoin:miter;stroke-miterlimit:8;stroke-dasharray:none;stroke-opacity:1"
             id="path5345"
             inkscape:connector-curvature="0" /></g><path
           d="m 74.5,274.5 326,0 0,-270.000004 -326,0 0,270.000004 z"
           style="fill:#ffffff;fill-opacity:1;fill-rule:nonzero;stroke:none"
           id="path5347"
           inkscape:connector-curvature="0" /><g
           id="g5349"
           transform="matrix(7.874016e-5,0,0,-7.874016e-5,74.5,274.5)"><path
             d="m 0,0 4140200,0 0,3429000 L 0,3429000 0,0 Z"
             style="fill:none;stroke:#000000;stroke-width:12700;stroke-linecap:butt;stroke-linejoin:miter;stroke-miterlimit:8;stroke-dasharray:none;stroke-opacity:1"
             id="path5351"
             inkscape:connector-curvature="0" /></g><path
           d="m 21.5,543.5 53,0 0,-269 -53,0 0,269 z"
           style="fill:#ffffff;fill-opacity:1;fill-rule:nonzero;stroke:none"
           id="path5353"
           inkscape:connector-curvature="0" /><g
           id="g5355"
           transform="matrix(7.874016e-5,0,0,-7.874016e-5,21.5,543.5)"><path
             d="m 0,0 673100,0 0,3416300 L 0,3416300 0,0 Z"
             style="fill:none;stroke:#000000;stroke-width:12700;stroke-linecap:butt;stroke-linejoin:miter;stroke-miterlimit:8;stroke-dasharray:none;stroke-opacity:1"
             id="path5357"
             inkscape:connector-curvature="0" /></g><g
           id="g5359"
           transform="matrix(0,-1,1,0,32.88866,458.3543)"><text
             transform="scale(1,-1)"
             style="font-variant:normal;font-size:36px;font-family:'Hiragino Sans';-inkscape-font-specification:HiraginoSans-W2;writing-mode:lr-tb;fill:#000000;fill-opacity:1;fill-rule:nonzero;stroke:#000000;stroke-width:1;stroke-linecap:butt;stroke-linejoin:miter;stroke-miterlimit:10;stroke-dasharray:none;stroke-opacity:1"
             id="text5361"><tspan
               x="0 25.999201 53.006401 74.001602"
               y="0"
               sodipodi:role="line"
               id="tspan5363">RDFS</tspan></text>
</g><path
           d="m 21.5,274.5 53,0 0,-270.000004 -53,0 0,270.000004 z"
           style="fill:#ffffff;fill-opacity:1;fill-rule:nonzero;stroke:none"
           id="path5365"
           inkscape:connector-curvature="0" /><g
           id="g5367"
           transform="matrix(7.874016e-5,0,0,-7.874016e-5,21.5,274.5)"><path
             d="m 0,0 673100,0 0,3429000 L 0,3429000 0,0 Z"
             style="fill:none;stroke:#000000;stroke-width:12700;stroke-linecap:butt;stroke-linejoin:miter;stroke-miterlimit:8;stroke-dasharray:none;stroke-opacity:1"
             id="path5369"
             inkscape:connector-curvature="0" /></g><g
           id="g5371"
           transform="matrix(0,-1,1,0,32.88866,177.0605)"><text
             transform="scale(1,-1)"
             style="font-variant:normal;font-size:36px;font-family:'Hiragino Sans';-inkscape-font-specification:HiraginoSans-W2;writing-mode:lr-tb;fill:#000000;fill-opacity:1;fill-rule:nonzero;stroke:#000000;stroke-width:1;stroke-linecap:butt;stroke-linejoin:miter;stroke-miterlimit:10;stroke-dasharray:none;stroke-opacity:1"
             id="text5373"><tspan
               x="0 25.999201 53.006401"
               y="0"
               sodipodi:role="line"
               id="tspan5375">RDF</tspan></text>
</g><path
           d="m 415.5,543.5 326,0 0,-269 -326,0 0,269 z"
           style="fill:#ffffff;fill-opacity:1;fill-rule:nonzero;stroke:none"
           id="path5377"
           inkscape:connector-curvature="0" /><g
           id="g5379"
           transform="matrix(7.874016e-5,0,0,-7.874016e-5,415.5,543.5)"><path
             d="m 0,0 4140200,0 0,3416300 L 0,3416300 0,0 Z"
             style="fill:none;stroke:#000000;stroke-width:12700;stroke-linecap:butt;stroke-linejoin:miter;stroke-miterlimit:8;stroke-dasharray:none;stroke-opacity:1"
             id="path5381"
             inkscape:connector-curvature="0" /></g><path
           d="m 415.5,274.5 326,0 0,-270.000004 -326,0 0,270.000004 z"
           style="fill:#ffffff;fill-opacity:1;fill-rule:nonzero;stroke:none"
           id="path5383"
           inkscape:connector-curvature="0" /><g
           id="g5385"
           transform="matrix(7.874016e-5,0,0,-7.874016e-5,415.5,274.5)"><path
             d="m 0,0 4140200,0 0,3429000 L 0,3429000 0,0 Z"
             style="fill:none;stroke:#000000;stroke-width:12700;stroke-linecap:butt;stroke-linejoin:miter;stroke-miterlimit:8;stroke-dasharray:none;stroke-opacity:1"
             id="path5387"
             inkscape:connector-curvature="0" /></g><path
           d="m 381.5,423.25 28.5,0 0,14.25 28.5,-28.5 -28.5,-28.5 0,14.25 -28.5,0 0,28.5 z"
           style="fill:#000000;fill-opacity:1;fill-rule:nonzero;stroke:none"
           id="path5389"
           inkscape:connector-curvature="0" /><g
           id="g5391"
           transform="matrix(7.874016e-5,0,0,-7.874016e-5,381.5,437.5)"><path
             d="m 0,180975 361950,0 0,-180975 361950,361950 -361950,361950 0,-180975 -361950,0 0,-361950 z"
             style="fill:none;stroke:#000000;stroke-width:12700;stroke-linecap:butt;stroke-linejoin:miter;stroke-miterlimit:8;stroke-dasharray:none;stroke-opacity:1"
             id="path5393"
             inkscape:connector-curvature="0" /></g><path
           d="m 81,500 118,0 0,-59 -118,0 0,59 z"
           style="fill:#d5fc79;fill-opacity:1;fill-rule:nonzero;stroke:none"
           id="path5395"
           inkscape:connector-curvature="0" /><g
           id="g5397"
           transform="matrix(7.874016e-5,0,0,-7.874016e-5,81,500)"><path
             d="m 0,0 1498600,0 0,749300 L 0,749300 0,0 Z"
             style="fill:none;stroke:#000000;stroke-width:25400;stroke-linecap:butt;stroke-linejoin:miter;stroke-miterlimit:8;stroke-dasharray:none;stroke-opacity:1"
             id="path5399"
             inkscape:connector-curvature="0" /></g><g
           id="g5401"
           transform="translate(81.35945,465.6683)"><text
             transform="scale(1,-1)"
             style="font-variant:normal;font-size:17px;font-family:'Hiragino Sans';-inkscape-font-specification:HiraginoSans-W2;writing-mode:lr-tb;fill:#000000;fill-opacity:1;fill-rule:nonzero;stroke:none"
             id="text5403"><tspan
               x="0 7.0005999 17.996201 24.996799 34.003399 38.012001 50.010601 60.003201 69.009804 79.002403 88.995003 95.995598 105.9882"
               y="0"
               sodipodi:role="line"
               id="tspan5405">rdfs:Resource</tspan></text>
</g><path
           d="m 202.3636,476.6612 1.4591,-2.0301 42.6223,30.6348 0.5836,-0.812 -42.6223,-30.6348 1.4591,-2.03 -6.623,-1.0658 3.1212,5.9379 z"
           style="fill:#000000;fill-opacity:1;fill-rule:nonzero;stroke:none"
           id="path5407"
           inkscape:connector-curvature="0" /><path
           d="m 247,535 118,0 0,-60 -118,0 0,60 z"
           style="fill:#d5fc79;fill-opacity:1;fill-rule:nonzero;stroke:none"
           id="path5409"
           inkscape:connector-curvature="0" /><g
           id="g5411"
           transform="matrix(7.874016e-5,0,0,-7.874016e-5,247,535)"><path
             d="m 0,0 1498600,0 0,762000 L 0,762000 0,0 Z"
             style="fill:none;stroke:#000000;stroke-width:25400;stroke-linecap:butt;stroke-linejoin:miter;stroke-miterlimit:8;stroke-dasharray:none;stroke-opacity:1"
             id="path5413"
             inkscape:connector-curvature="0" /></g><g
           id="g5415"
           transform="translate(277.5898,499.8049)"><text
             transform="scale(1,-1)"
             style="font-variant:normal;font-size:17px;font-family:'Hiragino Sans';-inkscape-font-specification:HiraginoSans-W2;writing-mode:lr-tb;fill:#000000;fill-opacity:1;fill-rule:nonzero;stroke:none"
             id="text5417"><tspan
               x="0 9.9994001 18.9958"
               y="0"
               sodipodi:role="line"
               id="tspan5419">ex:</tspan></text>
</g><g
           id="g5421"
           transform="translate(300.5898,499.8049)"><text
             transform="scale(1,-1)"
             style="font-variant:normal;font-size:17px;font-family:'Hiragino Sans';-inkscape-font-specification:HiraginoSans-W2;writing-mode:lr-tb;fill:#000000;fill-opacity:1;fill-rule:nonzero;stroke:none"
             id="text5423"><tspan
               x="0 17"
               y="0"
               sodipodi:role="line"
               id="tspan5425">書籍</tspan></text>
</g><path
           d="m 205.8654,469.6576 -1.459,-2.0301 42.6222,-30.6347 -0.5836,-0.812 -42.6223,30.6347 -1.4591,-2.03 -3.1212,5.9378 6.623,-1.0657 z"
           style="fill:#000000;fill-opacity:1;fill-rule:nonzero;stroke:none"
           id="path5427"
           inkscape:connector-curvature="0" /><path
           d="m 247,466 118,0 0,-59 -118,0 0,59 z"
           style="fill:#d5fc79;fill-opacity:1;fill-rule:nonzero;stroke:none"
           id="path5429"
           inkscape:connector-curvature="0" /><g
           id="g5431"
           transform="matrix(7.874016e-5,0,0,-7.874016e-5,247,466)"><path
             d="m 0,0 1498600,0 0,749300 L 0,749300 0,0 Z"
             style="fill:none;stroke:#000000;stroke-width:25400;stroke-linecap:butt;stroke-linejoin:miter;stroke-miterlimit:8;stroke-dasharray:none;stroke-opacity:1"
             id="path5433"
             inkscape:connector-curvature="0" /></g><g
           id="g5435"
           transform="translate(277.5898,431.5317)"><text
             transform="scale(1,-1)"
             style="font-variant:normal;font-size:17px;font-family:'Hiragino Sans';-inkscape-font-specification:HiraginoSans-W2;writing-mode:lr-tb;fill:#000000;fill-opacity:1;fill-rule:nonzero;stroke:none"
             id="text5437"><tspan
               x="0 9.9994001 18.9958"
               y="0"
               sodipodi:role="line"
               id="tspan5439">ex:</tspan></text>
</g><g
           id="g5441"
           transform="translate(300.5898,431.5317)"><text
             transform="scale(1,-1)"
             style="font-variant:normal;font-size:17px;font-family:'Hiragino Sans';-inkscape-font-specification:HiraginoSans-W2;writing-mode:lr-tb;fill:#000000;fill-opacity:1;fill-rule:nonzero;stroke:none"
             id="text5443"><tspan
               x="0 17"
               y="0"
               sodipodi:role="line"
               id="tspan5445">人間</tspan></text>
</g><path
           d="m 166,348 c 0,15.464 25.5198,28 57,28 31.4802,0 57,-12.536 57,-28 0,-15.464 -25.5198,-28 -57,-28 -31.4802,0 -57,12.536 -57,28 z"
           style="fill:#ffcc66;fill-opacity:1;fill-rule:nonzero;stroke:none"
           id="path5447"
           inkscape:connector-curvature="0" /><g
           id="g5449"
           transform="matrix(7.874016e-5,0,0,-7.874016e-5,166,376)"><path
             d="M 0,355600 C 0,159207.7 324101.2,0 723900,0 c 399799,0 723900,159207.7 723900,355600 0,196392.2 -324101,355600 -723900,355600 C 324101.2,711200 0,551992.2 0,355600 Z"
             style="fill:none;stroke:#000000;stroke-width:25400;stroke-linecap:butt;stroke-linejoin:miter;stroke-miterlimit:8;stroke-dasharray:none;stroke-opacity:1"
             id="path5451"
             inkscape:connector-curvature="0" /></g><g
           id="g5453"
           transform="translate(185.1311,340.4611)"><text
             transform="scale(1,-1)"
             style="font-variant:normal;font-size:23px;font-family:'Hiragino Sans';-inkscape-font-specification:HiraginoSans-W2;writing-mode:lr-tb;fill:#000000;fill-opacity:1;fill-rule:nonzero;stroke:none"
             id="text5455"><tspan
               x="0 12.9996 25.010201"
               y="0"
               sodipodi:role="line"
               id="tspan5457">ex:</tspan></text>
</g><g
           id="g5459"
           transform="translate(215.1311,340.4611)"><text
             transform="scale(1,-1)"
             style="font-variant:normal;font-size:23px;font-family:'Hiragino Sans';-inkscape-font-specification:HiraginoSans-W2;writing-mode:lr-tb;fill:#000000;fill-opacity:1;fill-rule:nonzero;stroke:none"
             id="text5461"><tspan
               x="0 23"
               y="0"
               sodipodi:role="line"
               id="tspan5463">著者</tspan></text>
</g><path
           d="m 442,500 119,0 0,-59 -119,0 0,59 z"
           style="fill:#d5fc79;fill-opacity:1;fill-rule:nonzero;stroke:none"
           id="path5465"
           inkscape:connector-curvature="0" /><g
           id="g5467"
           transform="matrix(7.874016e-5,0,0,-7.874016e-5,442,500)"><path
             d="m 0,0 1511300,0 0,749300 L 0,749300 0,0 Z"
             style="fill:none;stroke:#000000;stroke-width:25400;stroke-linecap:butt;stroke-linejoin:miter;stroke-miterlimit:8;stroke-dasharray:none;stroke-opacity:1"
             id="path5469"
             inkscape:connector-curvature="0" /></g><g
           id="g5471"
           transform="translate(443.1843,465.6683)"><text
             transform="scale(1,-1)"
             style="font-variant:normal;font-size:17px;font-family:'Hiragino Sans';-inkscape-font-specification:HiraginoSans-W2;writing-mode:lr-tb;fill:#000000;fill-opacity:1;fill-rule:nonzero;stroke:none"
             id="text5473"><tspan
               x="0 7.0005999 17.996201 24.996799 34.003399 38.012001 50.010601 60.003201 69.009804 79.002403 88.995003 95.995598 105.9882"
               y="0"
               sodipodi:role="line"
               id="tspan5475">rdfs:Resource</tspan></text>
</g><path
           d="m 564.1885,476.6612 1.459,-2.0301 42.6223,30.6348 0.5836,-0.812 -42.6222,-30.6348 1.459,-2.03 -6.6229,-1.0658 3.1212,5.9379 z"
           style="fill:#000000;fill-opacity:1;fill-rule:nonzero;stroke:none"
           id="path5477"
           inkscape:connector-curvature="0" /><path
           d="m 609,535 118,0 0,-60 -118,0 0,60 z"
           style="fill:#d5fc79;fill-opacity:1;fill-rule:nonzero;stroke:none"
           id="path5479"
           inkscape:connector-curvature="0" /><g
           id="g5481"
           transform="matrix(7.874016e-5,0,0,-7.874016e-5,609,535)"><path
             d="m 0,0 1498600,0 0,762000 L 0,762000 0,0 Z"
             style="fill:none;stroke:#000000;stroke-width:25400;stroke-linecap:butt;stroke-linejoin:miter;stroke-miterlimit:8;stroke-dasharray:none;stroke-opacity:1"
             id="path5483"
             inkscape:connector-curvature="0" /></g><g
           id="g5485"
           transform="translate(639.4146,499.8049)"><text
             transform="scale(1,-1)"
             style="font-variant:normal;font-size:17px;font-family:'Hiragino Sans';-inkscape-font-specification:HiraginoSans-W2;writing-mode:lr-tb;fill:#000000;fill-opacity:1;fill-rule:nonzero;stroke:none"
             id="text5487"><tspan
               x="0 9.9994001 18.9958"
               y="0"
               sodipodi:role="line"
               id="tspan5489">ex:</tspan></text>
</g><g
           id="g5491"
           transform="translate(662.4146,499.8049)"><text
             transform="scale(1,-1)"
             style="font-variant:normal;font-size:17px;font-family:'Hiragino Sans';-inkscape-font-specification:HiraginoSans-W2;writing-mode:lr-tb;fill:#000000;fill-opacity:1;fill-rule:nonzero;stroke:none"
             id="text5493"><tspan
               x="0 17"
               y="0"
               sodipodi:role="line"
               id="tspan5495">書物</tspan></text>
</g><path
           d="m 567.6902,469.6576 -1.4591,-2.0301 42.6223,-30.6347 -0.5836,-0.812 -42.6223,30.6347 -1.4591,-2.03 -3.1211,5.9378 6.6229,-1.0657 z"
           style="fill:#000000;fill-opacity:1;fill-rule:nonzero;stroke:none"
           id="path5497"
           inkscape:connector-curvature="0" /><path
           d="m 609,466 118,0 0,-59 -118,0 0,59 z"
           style="fill:#d5fc79;fill-opacity:1;fill-rule:nonzero;stroke:none"
           id="path5499"
           inkscape:connector-curvature="0" /><g
           id="g5501"
           transform="matrix(7.874016e-5,0,0,-7.874016e-5,609,466)"><path
             d="m 0,0 1498600,0 0,749300 L 0,749300 0,0 Z"
             style="fill:none;stroke:#000000;stroke-width:25400;stroke-linecap:butt;stroke-linejoin:miter;stroke-miterlimit:8;stroke-dasharray:none;stroke-opacity:1"
             id="path5503"
             inkscape:connector-curvature="0" /></g><g
           id="g5505"
           transform="translate(639.4146,431.5317)"><text
             transform="scale(1,-1)"
             style="font-variant:normal;font-size:17px;font-family:'Hiragino Sans';-inkscape-font-specification:HiraginoSans-W2;writing-mode:lr-tb;fill:#000000;fill-opacity:1;fill-rule:nonzero;stroke:none"
             id="text5507"><tspan
               x="0 9.9994001 18.9958"
               y="0"
               sodipodi:role="line"
               id="tspan5509">ex:</tspan></text>
</g><g
           id="g5511"
           transform="translate(662.4146,431.5317)"><text
             transform="scale(1,-1)"
             style="font-variant:normal;font-size:17px;font-family:'Hiragino Sans';-inkscape-font-specification:HiraginoSans-W2;writing-mode:lr-tb;fill:#000000;fill-opacity:1;fill-rule:nonzero;stroke:none"
             id="text5513"><tspan
               x="0 17"
               y="0"
               sodipodi:role="line"
               id="tspan5515">人間</tspan></text>
</g><path
           d="m 528,348 c 0,15.464 25.5198,28 57,28 31.4802,0 57,-12.536 57,-28 0,-15.464 -25.5198,-28 -57,-28 -31.4802,0 -57,12.536 -57,28 z"
           style="fill:#ffcc66;fill-opacity:1;fill-rule:nonzero;stroke:none"
           id="path5517"
           inkscape:connector-curvature="0" /><g
           id="g5519"
           transform="matrix(7.874016e-5,0,0,-7.874016e-5,528,376)"><path
             d="M 0,355600 C 0,159207.7 324101.2,0 723900,0 c 399799,0 723900,159207.7 723900,355600 0,196392.2 -324101,355600 -723900,355600 C 324101.2,711200 0,551992.2 0,355600 Z"
             style="fill:none;stroke:#ff0000;stroke-width:25400;stroke-linecap:butt;stroke-linejoin:miter;stroke-miterlimit:8;stroke-dasharray:101600, 76200;stroke-dashoffset:0;stroke-opacity:1"
             id="path5521"
             inkscape:connector-curvature="0" /></g><g
           id="g5523"
           transform="translate(546.9559,340.4611)"><text
             transform="scale(1,-1)"
             style="font-variant:normal;font-size:23px;font-family:'Hiragino Sans';-inkscape-font-specification:HiraginoSans-W2;writing-mode:lr-tb;fill:#000000;fill-opacity:1;fill-rule:nonzero;stroke:none"
             id="text5525"><tspan
               x="0 12.9996 25.010201"
               y="0"
               sodipodi:role="line"
               id="tspan5527">ex:</tspan></text>
</g><g
           id="g5529"
           transform="translate(576.9559,340.4611)"><text
             transform="scale(1,-1)"
             style="font-variant:normal;font-size:23px;font-family:'Hiragino Sans';-inkscape-font-specification:HiraginoSans-W2;writing-mode:lr-tb;fill:#000000;fill-opacity:1;fill-rule:nonzero;stroke:none"
             id="text5531"><tspan
               x="0 23"
               y="0"
               sodipodi:role="line"
               id="tspan5533">作者</tspan></text>
</g><path
           d="m 248,136 c 0,16.5685 26.6391,30 59.5,30 32.8609,0 59.5,-13.4315 59.5,-30 0,-16.5685 -26.6391,-30 -59.5,-30 -32.8609,0 -59.5,13.4315 -59.5,30 z"
           style="fill:#ffc8c8;fill-opacity:1;fill-rule:nonzero;stroke:none"
           id="path5535"
           inkscape:connector-curvature="0" /><g
           id="g5537"
           transform="matrix(7.874016e-5,0,0,-7.874016e-5,248,166)"><path
             d="M 0,381000 C 0,170579.5 338316.2,0 755650,0 c 417334,0 755650,170579.5 755650,381000 0,210420.5 -338316,381000 -755650,381000 C 338316.2,762000 0,591420.5 0,381000 Z"
             style="fill:none;stroke:#000000;stroke-width:25400;stroke-linecap:butt;stroke-linejoin:miter;stroke-miterlimit:8;stroke-dasharray:none;stroke-opacity:1"
             id="path5539"
             inkscape:connector-curvature="0" /></g><g
           id="g5541"
           transform="translate(270.4455,131.3198)"><text
             transform="scale(1,-1)"
             style="font-variant:normal;font-size:14px;font-family:'Hiragino Sans';-inkscape-font-specification:HiraginoSans-W2;writing-mode:lr-tb;fill:#000000;fill-opacity:1;fill-rule:nonzero;stroke:none"
             id="text5543"><tspan
               x="0 7.9995999 15.0052"
               y="0"
               sodipodi:role="line"
               id="tspan5545">ex:</tspan></text>
</g><g
           id="g5547"
           transform="translate(288.4455,131.3198)"><text
             transform="scale(1,-1)"
             style="font-variant:normal;font-size:14px;font-family:'Hiragino Sans';-inkscape-font-specification:HiraginoSans-W2;writing-mode:lr-tb;fill:#000000;fill-opacity:1;fill-rule:nonzero;stroke:none"
             id="text5549"><tspan
               x="0 14 28 42"
               y="0"
               sodipodi:role="line"
               id="tspan5551">福澤諭吉</tspan></text>
</g><path
           d="m 242.0148,138.3312 1.7899,1.7454 -43.436,44.5457 0.716,0.6981 43.4359,-44.5457 1.79,1.7453 2.0409,-6.3902 -6.3367,2.2014 z"
           style="fill:#000000;fill-opacity:1;fill-rule:nonzero;stroke:none"
           id="path5553"
           inkscape:connector-curvature="0" /><path
           d="m 82,185 c 0,16.5685 26.6391,30 59.5,30 32.8609,0 59.5,-13.4315 59.5,-30 0,-16.5685 -26.6391,-30 -59.5,-30 -32.8609,0 -59.5,13.4315 -59.5,30 z"
           style="fill:#ffc8c8;fill-opacity:1;fill-rule:nonzero;stroke:none"
           id="path5555"
           inkscape:connector-curvature="0" /><g
           id="g5557"
           transform="matrix(7.874016e-5,0,0,-7.874016e-5,82,215)"><path
             d="M 0,381000 C 0,170579.5 338316.1,0 755650,0 c 417334,0 755650,170579.5 755650,381000 0,210420.5 -338316,381000 -755650,381000 C 338316.1,762000 0,591420.5 0,381000 Z"
             style="fill:none;stroke:#000000;stroke-width:25400;stroke-linecap:butt;stroke-linejoin:miter;stroke-miterlimit:8;stroke-dasharray:none;stroke-opacity:1"
             id="path5559"
             inkscape:connector-curvature="0" /></g><g
           id="g5561"
           transform="translate(100.9052,181.4063)"><text
             transform="scale(1,-1)"
             style="font-variant:normal;font-size:11px;font-family:'Hiragino Sans';-inkscape-font-specification:HiraginoSans-W2;writing-mode:lr-tb;fill:#000000;fill-opacity:1;fill-rule:nonzero;stroke:none"
             id="text5563"><tspan
               x="0 6.0005002 12.001"
               y="0"
               sodipodi:role="line"
               id="tspan5565">ex:</tspan></text>
</g><g
           id="g5567"
           transform="translate(115.9052,181.4063)"><text
             transform="scale(1,-1)"
             style="font-variant:normal;font-size:11px;font-family:'Hiragino Sans';-inkscape-font-specification:HiraginoSans-W2;writing-mode:lr-tb;fill:#000000;fill-opacity:1;fill-rule:nonzero;stroke:none"
             id="text5569"><tspan
               x="0 11 22 33 44 55"
               y="0"
               sodipodi:role="line"
               id="tspan5571">学門のすゝめ</tspan></text>
</g><path
           d="m 245.7598,129.9424 -1.6305,1.8951 -43.0765,-37.06169 -0.6522,0.75804 43.0765,37.06175 -1.6305,1.8951 6.5049,1.6391 -2.5917,-6.1874 z"
           style="fill:#000000;fill-opacity:1;fill-rule:nonzero;stroke:none"
           id="path5573"
           inkscape:connector-curvature="0" /><path
           d="m 82,95 c 0,16.5685 26.6391,30 59.5,30 C 174.3609,125 201,111.5685 201,95 201,78.43146 174.3609,65 141.5,65 108.6391,65 82,78.43146 82,95 Z"
           style="fill:#ffc8c8;fill-opacity:1;fill-rule:nonzero;stroke:none"
           id="path5575"
           inkscape:connector-curvature="0" /><g
           id="g5577"
           transform="matrix(7.874016e-5,0,0,-7.874016e-5,82,125)"><path
             d="M 0,381000 C 0,170579.5 338316.1,0 755650,0 c 417334,0 755650,170579.5 755650,381000 0,210420.5 -338316,381000 -755650,381000 C 338316.1,762000 0,591420.5 0,381000 Z"
             style="fill:none;stroke:#000000;stroke-width:25400;stroke-linecap:butt;stroke-linejoin:miter;stroke-miterlimit:8;stroke-dasharray:none;stroke-opacity:1"
             id="path5579"
             inkscape:connector-curvature="0" /></g><g
           id="g5581"
           transform="translate(104.0527,90.34482)"><text
             transform="scale(1,-1)"
             style="font-variant:normal;font-size:14px;font-family:'Hiragino Sans';-inkscape-font-specification:HiraginoSans-W2;writing-mode:lr-tb;fill:#000000;fill-opacity:1;fill-rule:nonzero;stroke:none"
             id="text5583"><tspan
               x="0 7.9995999 15.0052"
               y="0"
               sodipodi:role="line"
               id="tspan5585">ex:</tspan></text>
</g><g
           id="g5587"
           transform="translate(122.0527,90.34482)"><text
             transform="scale(1,-1)"
             style="font-variant:normal;font-size:14px;font-family:'Hiragino Sans';-inkscape-font-specification:HiraginoSans-W2;writing-mode:lr-tb;fill:#000000;fill-opacity:1;fill-rule:nonzero;stroke:none"
             id="text5589"><tspan
               x="0 14 28 42"
               y="0"
               sodipodi:role="line"
               id="tspan5591">民情一新</tspan></text>
</g><g
           id="g5593"
           transform="translate(168.7816,221.2918)"><text
             transform="scale(1,-1)"
             style="font-variant:normal;font-size:14px;font-family:'Hiragino Sans';-inkscape-font-specification:HiraginoSans-W2;writing-mode:lr-tb;fill:#000000;fill-opacity:1;fill-rule:nonzero;stroke:none"
             id="text5595"><tspan
               x="0 7.9995999 15.0052"
               y="0"
               sodipodi:role="line"
               id="tspan5597">ex:</tspan></text>
</g><g
           id="g5599"
           transform="translate(186.7816,221.2918)"><text
             transform="scale(1,-1)"
             style="font-variant:normal;font-size:14px;font-family:'Hiragino Sans';-inkscape-font-specification:HiraginoSans-W2;writing-mode:lr-tb;fill:#000000;fill-opacity:1;fill-rule:nonzero;stroke:none"
             id="text5601"><tspan
               x="0 14"
               y="0"
               sodipodi:role="line"
               id="tspan5603">書籍</tspan></text>
</g><g
           id="g5605"
           transform="translate(168.7815,131.2991)"><text
             transform="scale(1,-1)"
             style="font-variant:normal;font-size:14px;font-family:'Hiragino Sans';-inkscape-font-specification:HiraginoSans-W2;writing-mode:lr-tb;fill:#000000;fill-opacity:1;fill-rule:nonzero;stroke:none"
             id="text5607"><tspan
               x="0 7.9995999 15.0052"
               y="0"
               sodipodi:role="line"
               id="tspan5609">ex:</tspan></text>
</g><g
           id="g5611"
           transform="translate(186.7815,131.2991)"><text
             transform="scale(1,-1)"
             style="font-variant:normal;font-size:14px;font-family:'Hiragino Sans';-inkscape-font-specification:HiraginoSans-W2;writing-mode:lr-tb;fill:#000000;fill-opacity:1;fill-rule:nonzero;stroke:none"
             id="text5613"><tspan
               x="0 14"
               y="0"
               sodipodi:role="line"
               id="tspan5615">書籍</tspan></text>
</g><g
           id="g5617"
           transform="translate(217.3953,171.8418)"><text
             transform="scale(1,-1)"
             style="font-variant:normal;font-size:14px;font-family:'Hiragino Sans';-inkscape-font-specification:HiraginoSans-W2;writing-mode:lr-tb;fill:#000000;fill-opacity:1;fill-rule:nonzero;stroke:none"
             id="text5619"><tspan
               x="0 7.9995999 15.0052"
               y="0"
               sodipodi:role="line"
               id="tspan5621">ex:</tspan></text>
</g><g
           id="g5623"
           transform="translate(235.3953,171.8418)"><text
             transform="scale(1,-1)"
             style="font-variant:normal;font-size:14px;font-family:'Hiragino Sans';-inkscape-font-specification:HiraginoSans-W2;writing-mode:lr-tb;fill:#000000;fill-opacity:1;fill-rule:nonzero;stroke:none"
             id="text5625"><tspan
               x="0 14"
               y="0"
               sodipodi:role="line"
               id="tspan5627">著者</tspan></text>
</g><g
           id="g5629"
           transform="matrix(7.874016e-5,0,0,-7.874016e-5,208.5,112.5)"><path
             d="m 0,0 749300,0 0,304800 L 0,304800 0,0 Z"
             style="fill:none;stroke:#ff0000;stroke-width:12700;stroke-linecap:butt;stroke-linejoin:round;stroke-miterlimit:10;stroke-dasharray:50800, 38100;stroke-dashoffset:0;stroke-opacity:1"
             id="path5631"
             inkscape:connector-curvature="0" /></g><g
           id="g5633"
           transform="translate(214.7664,95.36993)"><text
             transform="scale(1,-1)"
             style="font-variant:normal;font-size:14px;font-family:'Hiragino Sans';-inkscape-font-specification:HiraginoSans-W2;writing-mode:lr-tb;fill:#000000;fill-opacity:1;fill-rule:nonzero;stroke:none"
             id="text5635"><tspan
               x="0 7.9995999 15.0052"
               y="0"
               sodipodi:role="line"
               id="tspan5637">ex:</tspan></text>
</g><g
           id="g5639"
           transform="translate(232.7664,95.36993)"><text
             transform="scale(1,-1)"
             style="font-variant:normal;font-size:14px;font-family:'Hiragino Sans';-inkscape-font-specification:HiraginoSans-W2;writing-mode:lr-tb;fill:#000000;fill-opacity:1;fill-rule:nonzero;stroke:none"
             id="text5641"><tspan
               x="0 14"
               y="0"
               sodipodi:role="line"
               id="tspan5643">著者</tspan></text>
</g><g
           id="g5645"
           transform="translate(327.1036,171.8418)"><text
             transform="scale(1,-1)"
             style="font-variant:normal;font-size:14px;font-family:'Hiragino Sans';-inkscape-font-specification:HiraginoSans-W2;writing-mode:lr-tb;fill:#000000;fill-opacity:1;fill-rule:nonzero;stroke:none"
             id="text5647"><tspan
               x="0 7.9995999 15.0052"
               y="0"
               sodipodi:role="line"
               id="tspan5649">ex:</tspan></text>
</g><g
           id="g5651"
           transform="translate(345.1036,171.8418)"><text
             transform="scale(1,-1)"
             style="font-variant:normal;font-size:14px;font-family:'Hiragino Sans';-inkscape-font-specification:HiraginoSans-W2;writing-mode:lr-tb;fill:#000000;fill-opacity:1;fill-rule:nonzero;stroke:none"
             id="text5653"><tspan
               x="0 14"
               y="0"
               sodipodi:role="line"
               id="tspan5655">人間</tspan></text>
</g><path
           d="m 609,136 c 0,16.5685 26.4152,30 59,30 32.5848,0 59,-13.4315 59,-30 0,-16.5685 -26.4152,-30 -59,-30 -32.5848,0 -59,13.4315 -59,30 z"
           style="fill:#ffc8c8;fill-opacity:1;fill-rule:nonzero;stroke:none"
           id="path5657"
           inkscape:connector-curvature="0" /><g
           id="g5659"
           transform="matrix(7.874016e-5,0,0,-7.874016e-5,609,166)"><path
             d="M 0,381000 C 0,170579.5 335473.3,0 749300,0 c 413827,0 749300,170579.5 749300,381000 0,210420.5 -335473,381000 -749300,381000 C 335473.3,762000 0,591420.5 0,381000 Z"
             style="fill:none;stroke:#000000;stroke-width:25400;stroke-linecap:butt;stroke-linejoin:miter;stroke-miterlimit:8;stroke-dasharray:none;stroke-opacity:1"
             id="path5661"
             inkscape:connector-curvature="0" /></g><g
           id="g5663"
           transform="translate(630.662,131.3198)"><text
             transform="scale(1,-1)"
             style="font-variant:normal;font-size:14px;font-family:'Hiragino Sans';-inkscape-font-specification:HiraginoSans-W2;writing-mode:lr-tb;fill:#000000;fill-opacity:1;fill-rule:nonzero;stroke:none"
             id="text5665"><tspan
               x="0 7.9995999 15.0052"
               y="0"
               sodipodi:role="line"
               id="tspan5667">ex:</tspan></text>
</g><g
           id="g5669"
           transform="translate(648.662,131.3198)"><text
             transform="scale(1,-1)"
             style="font-variant:normal;font-size:14px;font-family:'Hiragino Sans';-inkscape-font-specification:HiraginoSans-W2;writing-mode:lr-tb;fill:#000000;fill-opacity:1;fill-rule:nonzero;stroke:none"
             id="text5671"><tspan
               x="0 14 28 42"
               y="0"
               sodipodi:role="line"
               id="tspan5673">福澤諭吉</tspan></text>
</g><path
           d="m 602.2313,138.3312 1.7899,1.7454 -43.4359,44.5457 0.7159,0.6981 43.436,-44.5457 1.7899,1.7453 2.0409,-6.3902 -6.3367,2.2014 z"
           style="fill:#000000;fill-opacity:1;fill-rule:nonzero;stroke:none"
           id="path5675"
           inkscape:connector-curvature="0" /><path
           d="m 442,185 c 0,16.5685 26.6391,30 59.5,30 32.861,0 59.5,-13.4315 59.5,-30 0,-16.5685 -26.639,-30 -59.5,-30 -32.8609,0 -59.5,13.4315 -59.5,30 z"
           style="fill:#ffc8c8;fill-opacity:1;fill-rule:nonzero;stroke:none"
           id="path5677"
           inkscape:connector-curvature="0" /><g
           id="g5679"
           transform="matrix(7.874016e-5,0,0,-7.874016e-5,442,215)"><path
             d="M 0,381000 C 0,170579.5 338316.2,0 755650,0 c 417334,0 755650,170579.5 755650,381000 0,210420.5 -338316,381000 -755650,381000 C 338316.2,762000 0,591420.5 0,381000 Z"
             style="fill:none;stroke:#000000;stroke-width:25400;stroke-linecap:butt;stroke-linejoin:miter;stroke-miterlimit:8;stroke-dasharray:none;stroke-opacity:1"
             id="path5681"
             inkscape:connector-curvature="0" /></g><g
           id="g5683"
           transform="translate(461.1217,181.4063)"><text
             transform="scale(1,-1)"
             style="font-variant:normal;font-size:11px;font-family:'Hiragino Sans';-inkscape-font-specification:HiraginoSans-W2;writing-mode:lr-tb;fill:#000000;fill-opacity:1;fill-rule:nonzero;stroke:none"
             id="text5685"><tspan
               x="0 6.0005002 12.001"
               y="0"
               sodipodi:role="line"
               id="tspan5687">ex:</tspan></text>
</g><g
           id="g5689"
           transform="translate(476.1217,181.4063)"><text
             transform="scale(1,-1)"
             style="font-variant:normal;font-size:11px;font-family:'Hiragino Sans';-inkscape-font-specification:HiraginoSans-W2;writing-mode:lr-tb;fill:#000000;fill-opacity:1;fill-rule:nonzero;stroke:none"
             id="text5691"><tspan
               x="0 11 22 33 44 55"
               y="0"
               sodipodi:role="line"
               id="tspan5693">学門のすゝめ</tspan></text>
</g><path
           d="m 605.9763,129.9424 -1.6305,1.8951 -43.0765,-37.06169 -0.6522,0.75804 43.0766,37.06175 -1.6306,1.8951 6.5049,1.6391 -2.5917,-6.1874 z"
           style="fill:#000000;fill-opacity:1;fill-rule:nonzero;stroke:none"
           id="path5695"
           inkscape:connector-curvature="0" /><path
           d="m 442,95 c 0,16.5685 26.6391,30 59.5,30 C 534.361,125 561,111.5685 561,95 561,78.43146 534.361,65 501.5,65 468.6391,65 442,78.43146 442,95 Z"
           style="fill:#ffc8c8;fill-opacity:1;fill-rule:nonzero;stroke:none"
           id="path5697"
           inkscape:connector-curvature="0" /><g
           id="g5699"
           transform="matrix(7.874016e-5,0,0,-7.874016e-5,442,125)"><path
             d="M 0,381000 C 0,170579.5 338316.2,0 755650,0 c 417334,0 755650,170579.5 755650,381000 0,210420.5 -338316,381000 -755650,381000 C 338316.2,762000 0,591420.5 0,381000 Z"
             style="fill:none;stroke:#000000;stroke-width:25400;stroke-linecap:butt;stroke-linejoin:miter;stroke-miterlimit:8;stroke-dasharray:none;stroke-opacity:1"
             id="path5701"
             inkscape:connector-curvature="0" /></g><g
           id="g5703"
           transform="translate(464.2693,90.34482)"><text
             transform="scale(1,-1)"
             style="font-variant:normal;font-size:14px;font-family:'Hiragino Sans';-inkscape-font-specification:HiraginoSans-W2;writing-mode:lr-tb;fill:#000000;fill-opacity:1;fill-rule:nonzero;stroke:none"
             id="text5705"><tspan
               x="0 7.9995999 15.0052"
               y="0"
               sodipodi:role="line"
               id="tspan5707">ex:</tspan></text>
</g><g
           id="g5709"
           transform="translate(482.2693,90.34482)"><text
             transform="scale(1,-1)"
             style="font-variant:normal;font-size:14px;font-family:'Hiragino Sans';-inkscape-font-specification:HiraginoSans-W2;writing-mode:lr-tb;fill:#000000;fill-opacity:1;fill-rule:nonzero;stroke:none"
             id="text5711"><tspan
               x="0 14 28 42"
               y="0"
               sodipodi:role="line"
               id="tspan5713">民情一新</tspan></text>
</g><g
           id="g5715"
           transform="translate(528.9981,221.2918)"><text
             transform="scale(1,-1)"
             style="font-variant:normal;font-size:14px;font-family:'Hiragino Sans';-inkscape-font-specification:HiraginoSans-W2;writing-mode:lr-tb;fill:#000000;fill-opacity:1;fill-rule:nonzero;stroke:none"
             id="text5717"><tspan
               x="0 7.9995999 15.0052"
               y="0"
               sodipodi:role="line"
               id="tspan5719">ex:</tspan></text>
</g><g
           id="g5721"
           transform="translate(546.9981,221.2918)"><text
             transform="scale(1,-1)"
             style="font-variant:normal;font-size:14px;font-family:'Hiragino Sans';-inkscape-font-specification:HiraginoSans-W2;writing-mode:lr-tb;fill:#000000;fill-opacity:1;fill-rule:nonzero;stroke:none"
             id="text5723"><tspan
               x="0 14"
               y="0"
               sodipodi:role="line"
               id="tspan5725">書物</tspan></text>
</g><g
           id="g5727"
           transform="translate(528.998,131.2991)"><text
             transform="scale(1,-1)"
             style="font-variant:normal;font-size:14px;font-family:'Hiragino Sans';-inkscape-font-specification:HiraginoSans-W2;writing-mode:lr-tb;fill:#000000;fill-opacity:1;fill-rule:nonzero;stroke:none"
             id="text5729"><tspan
               x="0 7.9995999 15.0052"
               y="0"
               sodipodi:role="line"
               id="tspan5731">ex:</tspan></text>
</g><g
           id="g5733"
           transform="translate(546.998,131.2991)"><text
             transform="scale(1,-1)"
             style="font-variant:normal;font-size:14px;font-family:'Hiragino Sans';-inkscape-font-specification:HiraginoSans-W2;writing-mode:lr-tb;fill:#000000;fill-opacity:1;fill-rule:nonzero;stroke:none"
             id="text5735"><tspan
               x="0 14"
               y="0"
               sodipodi:role="line"
               id="tspan5737">書物</tspan></text>
</g><g
           id="g5739"
           transform="matrix(7.874016e-5,0,0,-7.874016e-5,570.5,188.5)"><path
             d="m 0,0 762000,0 0,292100 L 0,292100 0,0 Z"
             style="fill:none;stroke:#ff0000;stroke-width:12700;stroke-linecap:butt;stroke-linejoin:round;stroke-miterlimit:10;stroke-dasharray:50800, 38100;stroke-dashoffset:0;stroke-opacity:1"
             id="path5741"
             inkscape:connector-curvature="0" /></g><g
           id="g5743"
           transform="translate(577.6118,171.8418)"><text
             transform="scale(1,-1)"
             style="font-variant:normal;font-size:14px;font-family:'Hiragino Sans';-inkscape-font-specification:HiraginoSans-W2;writing-mode:lr-tb;fill:#000000;fill-opacity:1;fill-rule:nonzero;stroke:none"
             id="text5745"><tspan
               x="0 7.9995999 15.0052"
               y="0"
               sodipodi:role="line"
               id="tspan5747">ex:</tspan></text>
</g><g
           id="g5749"
           transform="translate(595.6118,171.8418)"><text
             transform="scale(1,-1)"
             style="font-variant:normal;font-size:14px;font-family:'Hiragino Sans';-inkscape-font-specification:HiraginoSans-W2;writing-mode:lr-tb;fill:#000000;fill-opacity:1;fill-rule:nonzero;stroke:none"
             id="text5751"><tspan
               x="0 14"
               y="0"
               sodipodi:role="line"
               id="tspan5753">作者</tspan></text>
</g><g
           id="g5755"
           transform="matrix(7.874016e-5,0,0,-7.874016e-5,568.5,112.5)"><path
             d="m 0,0 762000,0 0,304800 L 0,304800 0,0 Z"
             style="fill:none;stroke:#ff0000;stroke-width:12700;stroke-linecap:butt;stroke-linejoin:round;stroke-miterlimit:10;stroke-dasharray:50800, 38100;stroke-dashoffset:0;stroke-opacity:1"
             id="path5757"
             inkscape:connector-curvature="0" /></g><g
           id="g5759"
           transform="translate(574.9829,95.36993)"><text
             transform="scale(1,-1)"
             style="font-variant:normal;font-size:14px;font-family:'Hiragino Sans';-inkscape-font-specification:HiraginoSans-W2;writing-mode:lr-tb;fill:#000000;fill-opacity:1;fill-rule:nonzero;stroke:none"
             id="text5761"><tspan
               x="0 7.9995999 15.0052"
               y="0"
               sodipodi:role="line"
               id="tspan5763">ex:</tspan></text>
</g><g
           id="g5765"
           transform="translate(592.9829,95.36993)"><text
             transform="scale(1,-1)"
             style="font-variant:normal;font-size:14px;font-family:'Hiragino Sans';-inkscape-font-specification:HiraginoSans-W2;writing-mode:lr-tb;fill:#000000;fill-opacity:1;fill-rule:nonzero;stroke:none"
             id="text5767"><tspan
               x="0 14"
               y="0"
               sodipodi:role="line"
               id="tspan5769">作者</tspan></text>
</g><g
           id="g5771"
           transform="translate(687.3201,171.8418)"><text
             transform="scale(1,-1)"
             style="font-variant:normal;font-size:14px;font-family:'Hiragino Sans';-inkscape-font-specification:HiraginoSans-W2;writing-mode:lr-tb;fill:#000000;fill-opacity:1;fill-rule:nonzero;stroke:none"
             id="text5773"><tspan
               x="0 7.9995999 15.0052"
               y="0"
               sodipodi:role="line"
               id="tspan5775">ex:</tspan></text>
</g><g
           id="g5777"
           transform="translate(705.3201,171.8418)"><text
             transform="scale(1,-1)"
             style="font-variant:normal;font-size:14px;font-family:'Hiragino Sans';-inkscape-font-specification:HiraginoSans-W2;writing-mode:lr-tb;fill:#000000;fill-opacity:1;fill-rule:nonzero;stroke:none"
             id="text5779"><tspan
               x="0 14"
               y="0"
               sodipodi:role="line"
               id="tspan5781">人間</tspan></text>
</g><path
           d="m 381.5,153.5 29.0001,0 0,14 27.9999,-28 -27.9999,-28 0,14 -29.0001,0 0,28 z"
           style="fill:#000000;fill-opacity:1;fill-rule:nonzero;stroke:none"
           id="path5783"
           inkscape:connector-curvature="0" /><g
           id="g5785"
           transform="matrix(7.874016e-5,0,0,-7.874016e-5,381.5,167.5)"><path
             d="m 0,177799.8 368300.8,0 L 368300.8,0 723900,355600.4 368300.8,711200 l 0,-177799.8 -368300.8,0 0,-355600.4 z"
             style="fill:none;stroke:#000000;stroke-width:12700;stroke-linecap:butt;stroke-linejoin:miter;stroke-miterlimit:8;stroke-dasharray:none;stroke-opacity:1"
             id="path5787"
             inkscape:connector-curvature="0" /></g></g></g></g></svg>